<svg width="45" height="45" viewBox="0 0 45 45" fill="none" xmlns="http://www.w3.org/2000/svg">
<path d="M22.5 45C34.9264 45 45 34.9264 45 22.5C45 10.0736 34.9264 0 22.5 0C10.0736 0 0 10.0736 0 22.5C0 34.9264 10.0736 45 22.5 45Z" fill="#4D76A1"/>
<path fill-rule="evenodd" clip-rule="evenodd" d="M21.6501 32.3682H23.4161C23.4161 32.3682 23.9495 32.3096 24.2218 32.0161C24.4725 31.7465 24.4645 31.2404 24.4645 31.2404C24.4645 31.2404 24.43 28.8708 25.5298 28.5218C26.6139 28.1781 28.0061 30.812 29.4817 31.8247C30.5975 32.5912 31.4454 32.4232 31.4454 32.4232L35.3908 32.3682C35.3908 32.3682 37.4548 32.2411 36.4762 30.6183C36.3959 30.4855 35.9062 29.4178 33.5426 27.2239C31.0688 24.9277 31.4 25.2991 34.3801 21.3272C36.195 18.9082 36.9206 17.4314 36.694 16.7989C36.4778 16.1965 35.143 16.3557 35.143 16.3557L30.7006 16.3834C30.7006 16.3834 30.3713 16.3385 30.127 16.4845C29.8884 16.6277 29.7347 16.9614 29.7347 16.9614C29.7347 16.9614 29.0316 18.8332 28.0939 20.4251C26.1158 23.7842 25.3248 23.9615 25.0016 23.7529C24.2495 23.2668 24.4372 21.8 24.4372 20.758C24.4372 17.5028 24.931 16.1456 23.4758 15.7942C22.9929 15.6775 22.6376 15.6005 21.4026 15.5881C19.8175 15.5716 18.4759 15.5929 17.7163 15.9651C17.2109 16.2125 16.821 16.764 17.0585 16.7957C17.3521 16.835 18.0171 16.975 18.3696 17.4551C18.8249 18.0744 18.8088 19.4653 18.8088 19.4653C18.8088 19.4653 19.0703 23.2973 18.198 23.7734C17.5992 24.0999 16.7777 23.4333 15.0142 20.3858C14.1105 18.8248 13.4283 17.0993 13.4283 17.0993C13.4283 17.0993 13.2967 16.7769 13.0621 16.6044C12.7773 16.3954 12.3794 16.3289 12.3794 16.3289L8.15804 16.3565C8.15804 16.3565 7.52433 16.3742 7.2917 16.6497C7.08474 16.8948 7.27525 17.4018 7.27525 17.4018C7.27525 17.4018 10.5802 25.1339 14.3223 29.0304C17.7536 32.6028 21.6501 32.3682 21.6501 32.3682Z" fill="white"/>
</svg>
