<svg width="137" height="192" viewBox="0 0 137 192" fill="none" xmlns="http://www.w3.org/2000/svg">
<path d="M49.687 24.8001V25.7334H50.701H51.7151V24.8001V23.8667H50.701H49.687V24.8001Z" fill="white"/>
<path d="M22.6887 29.4401C22.6887 34.0001 22.6887 34.0934 22.4225 34.3468C22.169 34.5868 21.8775 34.6001 18.2524 34.6401L14.3484 34.6801L14.2977 35.6934C14.2723 36.3601 14.3104 36.7201 14.3991 36.7601C14.4878 36.7868 16.3384 36.8001 18.5186 36.7734C22.2578 36.7334 22.5366 36.7201 23.069 36.4534C23.3859 36.2934 23.7915 36.0001 23.9816 35.7868C24.6787 35.0001 24.7168 34.6668 24.7168 29.5201V24.8001H23.7027H22.6887V29.4401Z" fill="white"/>
<path d="M55.8472 26.0001C55.8853 27.8401 55.974 27.7334 54.4276 27.7334H53.1094V28.8001V29.8667H54.4276H55.7332L55.8219 30.7467C55.8726 31.2267 55.8979 32.7734 55.8979 34.1734L55.8726 36.7334H56.8739H57.8626L57.9006 33.2934L57.926 29.8667H59.7005H61.4751V28.8001V27.7334H59.7005H57.926V26.2667V24.8001H56.8739H55.8219L55.8472 26.0001Z" fill="white"/>
<path d="M89.6903 25.0001C88.9804 25.2667 88.334 25.8667 87.9664 26.6134C87.7002 27.1467 87.6495 27.4534 87.6495 28.3467C87.6495 29.3067 87.6876 29.4934 88.0298 30.0667C88.9424 31.6134 89.7156 31.8667 93.5055 31.8667C96.1166 31.8667 96.2053 31.8801 96.5222 32.1734C96.7757 32.3867 96.8771 32.6401 96.9278 33.0801C96.9912 33.6267 96.9532 33.7467 96.6109 34.1467L96.2307 34.6001L91.9591 34.6401L87.7002 34.6801L87.7383 35.7067L87.7763 36.7334H92.0859C96.1927 36.7334 96.4208 36.7201 96.9658 36.4534C98.3348 35.7867 98.9305 34.7867 98.9305 33.2001C98.9178 31.6401 98.3728 30.7334 97.0292 30.0534C96.4208 29.7467 96.2814 29.7334 93.6703 29.7334C92.1746 29.7334 90.7296 29.6667 90.4761 29.5867C89.6142 29.3467 89.3227 28.1201 89.9438 27.3467L90.2733 26.9334L94.0886 26.9067L97.9165 26.8667L97.9545 25.8267L97.9925 24.8001H94.0886C91.0972 24.8134 90.0705 24.8534 89.6903 25.0001Z" fill="white"/>
<path d="M101.022 25.0667C100.768 25.3334 100.768 25.48 100.794 31.04L100.832 36.7334L101.757 36.7734L102.67 36.8134L102.682 32.04C102.695 29.4134 102.695 27.1867 102.682 27.1067C102.67 26.9734 103.608 26.9334 106.814 26.9067L110.972 26.8667L111.01 25.8267L111.048 24.8H106.155C101.44 24.8 101.263 24.8134 101.022 25.0667Z" fill="white"/>
<path d="M114.141 25.0801C113.558 25.4134 113.266 25.7334 112.899 26.4667C112.632 26.9734 112.62 27.1601 112.62 30.8134V34.6267L113 35.2801C113.279 35.7467 113.583 36.0401 114.077 36.3334L114.775 36.7334H118.831H122.887L122.925 35.7067L122.963 34.6801L119.021 34.6401L115.066 34.6001L114.825 34.2801C114.597 34.0001 114.584 33.7201 114.584 30.7334C114.584 27.8401 114.61 27.4667 114.813 27.2134C115.028 26.9334 115.129 26.9334 118.957 26.8934L122.887 26.8667L122.925 25.8267L122.963 24.8001H118.805C114.8 24.8001 114.622 24.8134 114.141 25.0801Z" fill="white"/>
<path d="M26.8716 30.64C26.8716 34.1333 26.9603 34.5067 27.9363 35.5333C28.963 36.6 29.3686 36.7067 32.5881 36.7733C35.5922 36.8267 35.9978 36.7467 36.2513 36.0533C36.3273 35.8667 36.378 33.9467 36.378 31.72V27.7333H35.364H34.35L34.3246 31.16L34.2866 34.6L32.474 34.64C30.3446 34.68 29.8249 34.56 29.2926 33.9333L28.8996 33.4533V30.6V27.7333H27.8856H26.8716V30.64Z" fill="white"/>
<path d="M40.0919 27.9469C39.306 28.2402 38.5962 29.1335 38.4188 30.0135C38.33 30.4802 38.292 32.2802 38.3047 35.1335L38.3427 39.5335L39.3187 39.5735L40.2947 39.6135L40.3327 34.9335C40.3708 30.4669 40.3834 30.2402 40.6116 30.0535C40.9918 29.7602 45.2761 29.7869 45.5549 30.0802C45.8591 30.4002 45.8465 34.1469 45.5423 34.4135C45.3902 34.5469 44.7817 34.6135 43.2607 34.6402L41.182 34.6802L41.22 35.7069L41.258 36.7335H43.3494C45.669 36.7202 46.1507 36.6135 46.8605 35.9602C47.6717 35.2135 47.7858 34.7602 47.7858 32.2269C47.7858 29.7735 47.7224 29.4535 47.0379 28.6402C46.3915 27.8535 45.8338 27.7335 43.0452 27.7469C41.2453 27.7469 40.4848 27.8002 40.0919 27.9469Z" fill="white"/>
<path d="M49.687 32.2667V36.8134L50.6757 36.7734L51.6517 36.7334L51.6897 32.2267L51.7151 27.7333H50.701H49.687V32.2667Z" fill="white"/>
<path d="M64.3016 28.0667C63.5538 28.4667 63.0721 29.1201 62.882 30.0001C62.7045 30.7734 62.7045 33.7601 62.882 34.5334C63.0594 35.3601 63.7439 36.1867 64.4791 36.4934C64.9861 36.6934 65.4551 36.7334 67.1789 36.7334H69.2703V35.7334V34.7334L67.2296 34.6934C64.5678 34.6534 64.7072 34.7867 64.7072 32.1734C64.7072 29.6001 64.5551 29.7334 67.4831 29.7334C70.0055 29.7334 70.221 29.8001 70.221 30.6534C70.221 31.5201 70.0435 31.5867 67.7493 31.6267L65.7212 31.6667V32.6667V33.6667H67.876C69.8661 33.6534 70.0815 33.6401 70.6392 33.3467C71.7166 32.8001 72.3124 31.5067 72.1096 30.1467C71.9575 29.0801 71.1843 28.1467 70.2463 27.8667C69.9928 27.8001 68.6873 27.7334 67.3564 27.7334C65.0368 27.7334 64.9227 27.7467 64.3016 28.0667Z" fill="white"/>
<path d="M75.329 27.9601C74.5685 28.2401 73.8207 29.1601 73.6432 30.0401C73.5672 30.4534 73.5292 31.9601 73.5418 33.7334L73.5799 36.7334H74.5305H75.4811L75.5445 33.5201C75.5952 31.0934 75.6459 30.2534 75.7854 30.0934C75.9248 29.9067 76.3304 29.8667 78.5105 29.8401L81.0583 29.8001L81.0963 28.7601L81.1343 27.7334L78.4979 27.7467C76.4952 27.7467 75.7347 27.8001 75.329 27.9601Z" fill="white"/>
<path d="M103.658 30.5868C103.595 32.0001 103.265 31.8801 106.891 31.8401L110.085 31.8001L110.123 30.7601L110.161 29.7334H106.929H103.709L103.658 30.5868Z" fill="white"/>
<path d="M37.4807 44.2934C37.3033 44.6134 36.8343 45.4667 36.4414 46.2001C36.0358 46.9334 35.5541 47.8267 35.3513 48.2001C35.1612 48.5601 34.8189 49.2001 34.5781 49.6134C34.35 50.0401 34.0457 50.5734 33.919 50.8134C33.1712 52.2001 30.5981 56.8801 28.5447 60.6001C27.2518 62.9467 25.7815 65.6134 25.2871 66.5334C22.2324 72.1334 20.8381 74.6667 20.5339 75.2001C20.3438 75.5334 20.0396 76.0667 19.8621 76.4001C19.4312 77.2267 14.7793 85.7067 11.9654 90.8001C11.4584 91.7201 10.7613 93.0001 10.4064 93.6667C10.0515 94.3201 9.6205 95.1068 9.4684 95.4001C7.2122 99.4268 5.14614 103.307 5.15881 103.467C5.17149 103.573 5.64047 104.507 6.21086 105.533C6.78124 106.56 7.46571 107.787 7.73189 108.267C7.9854 108.747 8.53043 109.733 8.93604 110.467C10.9261 114.08 14.9061 121.333 16.7947 124.8C17.5806 126.227 18.658 128.213 19.203 129.2C19.748 130.187 20.5973 131.72 21.0789 132.6C21.5606 133.48 23.3858 136.813 25.135 140C26.8842 143.187 28.5067 146.173 28.7602 146.613C29.0137 147.067 29.3052 147.613 29.4193 147.813C29.5334 148.027 30.015 148.893 30.484 149.733C30.953 150.573 31.4727 151.533 31.6501 151.867C32.3473 153.173 35.9217 159.707 36.2512 160.267C36.4414 160.6 36.8723 161.36 37.2019 161.973L37.8103 163.067H70.5252H103.24L104.001 161.693C104.406 160.947 105.357 159.227 106.105 157.867C106.852 156.507 107.588 155.16 107.74 154.867C107.892 154.573 108.323 153.787 108.69 153.133C110.072 150.653 110.807 149.32 112.43 146.333C113.342 144.64 114.318 142.88 114.572 142.4C114.838 141.92 115.383 140.933 115.789 140.2C116.194 139.467 116.739 138.48 116.993 138C117.259 137.52 117.779 136.56 118.159 135.867C118.539 135.173 119.591 133.253 120.504 131.6C121.404 129.947 122.595 127.787 123.14 126.8C124.002 125.253 124.915 123.587 125.739 122.067C126.727 120.253 127.792 118.293 127.893 118.133C127.957 118.027 128.337 117.333 128.73 116.6C129.123 115.867 129.63 114.933 129.858 114.533C130.086 114.133 130.796 112.84 131.443 111.667C132.089 110.493 132.913 108.987 133.28 108.333C134.776 105.613 135.879 103.507 135.879 103.36C135.879 103.267 135.739 102.96 135.562 102.667C135.397 102.387 135.004 101.68 134.7 101.107C134.396 100.533 133.927 99.6801 133.661 99.2001C133.395 98.7201 132.964 97.9467 132.71 97.4668C132.241 96.5867 130.074 92.6401 128.717 90.2001C128.312 89.4667 127.843 88.6001 127.665 88.2667C127.488 87.9334 127.209 87.4401 127.044 87.1734C126.892 86.8934 126.753 86.6401 126.753 86.6001C126.753 86.5601 126.613 86.3067 126.448 86.0267C126.119 85.4801 124.94 83.3467 124.218 82.0001C123.609 80.8667 122.101 78.1201 120.859 75.8667C120.314 74.8801 119.148 72.7467 118.26 71.1334C116.422 67.7734 113.976 63.3201 112.962 61.4667C112.151 59.9867 109.197 54.6134 108.728 53.7334C108.412 53.1601 108.006 52.4267 105.648 48.1334C105.103 47.1467 104.432 45.9067 104.153 45.4001C103.874 44.8801 103.544 44.3067 103.405 44.0934L103.164 43.7334H70.4745H37.785L37.4807 44.2934ZM97.6376 54.4534C97.7897 54.6267 98.1446 55.1867 98.4108 55.6801C98.6769 56.1867 99.1206 57.0001 99.3868 57.4934C99.6656 58.0001 100.097 58.8001 100.363 59.2934C100.642 59.8001 101.364 61.1201 101.985 62.2401C102.606 63.3467 103.341 64.7067 103.633 65.2401C104.14 66.1734 104.799 67.4001 107.233 71.8001C107.879 72.9734 109.045 75.1067 109.831 76.5334C110.604 77.9601 111.606 79.7601 112.024 80.5067C112.455 81.2667 112.81 81.9067 112.81 81.9334C112.81 81.9467 113.266 82.8001 113.837 83.8134C114.394 84.8401 114.99 85.9067 115.142 86.2001C115.307 86.4934 115.725 87.2667 116.093 87.9334C116.46 88.5867 116.803 89.2267 116.866 89.3334C117.018 89.6001 118.311 91.9601 118.602 92.4934C118.729 92.7334 119.173 93.5334 119.578 94.2934C119.984 95.0534 120.504 96.0001 120.732 96.4001C121.53 97.8268 122.912 100.347 123.229 100.933C123.406 101.267 123.749 101.92 124.015 102.373C124.268 102.84 124.471 103.32 124.471 103.453C124.471 103.573 124.154 104.24 123.761 104.933C123.039 106.213 121.023 109.867 120.162 111.467C119.655 112.413 119.16 113.293 118.133 115.133C117.766 115.787 117.31 116.627 117.107 117C116.917 117.36 116.562 118.027 116.321 118.467C115.738 119.48 115.193 120.48 113.444 123.667C113 124.467 112.493 125.4 112.303 125.733C112.113 126.067 111.809 126.6 111.631 126.933C111.466 127.267 110.795 128.493 110.148 129.667C109.502 130.84 108.83 132.067 108.665 132.4C108.488 132.733 108.209 133.24 108.031 133.533C107.867 133.827 107.461 134.547 107.144 135.133C105.876 137.48 104.672 139.653 104.165 140.52C103.937 140.92 103.709 141.36 103.658 141.493C103.595 141.64 103.126 142.493 102.606 143.4C102.087 144.307 101.656 145.08 101.656 145.107C101.656 145.147 101.187 146 100.629 147.013C99.4882 149.053 99.4755 149.093 98.4361 151C98.0305 151.733 97.6122 152.413 97.4981 152.507C97.346 152.627 91.7436 152.667 70.4871 152.667C55.7331 152.667 43.6029 152.613 43.5395 152.56C43.3874 152.453 42.9565 151.693 41.1566 148.4C40.4975 147.187 39.6355 145.6 39.2299 144.867C38.8243 144.133 38.1906 142.96 37.8103 142.267C37.43 141.573 37.0751 140.907 37.0118 140.8C36.6695 140.213 35.7442 138.52 35.4654 138C35.2879 137.667 34.857 136.893 34.5147 136.267C32.6261 132.88 29.7615 127.64 29.1784 126.533C29.001 126.2 28.7728 125.787 28.6588 125.6C28.5447 125.413 28.2531 124.893 28.0123 124.44C27.7715 123.987 27.2898 123.12 26.9476 122.507C26.6054 121.893 26.1871 121.133 26.0223 120.8C25.8448 120.467 25.5153 119.867 25.2871 119.467C25.059 119.067 24.3999 117.867 23.8295 116.8C23.2464 115.733 22.562 114.493 22.2958 114.027C22.0169 113.56 21.8014 113.147 21.8014 113.107C21.8014 113.067 21.624 112.72 21.3958 112.347C21.1803 111.973 20.8635 111.4 20.686 111.067C20.5212 110.733 20.2551 110.253 20.0903 110C19.8368 109.573 19.0129 108.08 17.7454 105.733C17.4918 105.253 17.1243 104.6 16.9468 104.267C16.7567 103.933 16.6046 103.56 16.6046 103.413C16.6046 103.2 18.2777 99.9867 19.1016 98.6134C19.2791 98.3334 19.5452 97.8534 19.6973 97.5467C19.8621 97.2534 20.3184 96.4001 20.724 95.6667C21.6493 94.0001 23.2084 91.1467 23.8295 90.0001C24.3872 88.9467 25.059 87.7334 25.2238 87.4667C25.2871 87.3601 25.5026 86.9601 25.7054 86.6001C25.8955 86.2267 26.504 85.1334 27.049 84.1467C27.594 83.1601 28.1391 82.1601 28.2658 81.9467C28.3926 81.7201 28.7095 81.1467 28.963 80.6667C29.2291 80.1867 29.6855 79.3467 29.977 78.8001C30.2812 78.2534 30.953 77.0134 31.4727 76.0667C32.4487 74.3201 32.5501 74.1201 33.7922 71.8934C34.1725 71.2134 34.4767 70.6267 34.4767 70.5867C34.4767 70.5601 34.6161 70.3067 34.7682 70.0267C34.933 69.7601 35.2119 69.2667 35.3893 68.9334C35.5668 68.6001 35.9977 67.8401 36.3273 67.2267C36.6695 66.6134 37.0371 65.9467 37.1385 65.7601C37.2399 65.5601 37.5188 65.0934 37.7469 64.6934C37.9624 64.3067 38.1525 63.9467 38.1525 63.8934C38.1525 63.8401 38.292 63.5867 38.4441 63.3334C38.6088 63.0801 38.8877 62.6001 39.0652 62.2667C39.9144 60.6667 40.9791 58.7201 41.0805 58.5867C41.1439 58.5067 41.3721 58.0934 41.5875 57.6534C41.803 57.2267 42.0565 56.7734 42.1326 56.6667C42.2213 56.5601 42.3607 56.2801 42.4621 56.0667C42.6903 55.5601 43.21 54.6801 43.4635 54.3601C43.6283 54.1467 45.0732 54.1334 70.4998 54.1334H97.3587L97.6376 54.4534Z" fill="white"/>
<path d="M61.1582 65.7335C59.1808 66.1735 56.2909 67.1868 54.4149 68.0802C54.1488 68.2002 53.2868 68.6268 52.4883 69.0135C51.7024 69.4135 50.9799 69.7335 50.8785 69.7335C50.7771 69.7335 50.7011 69.7868 50.7011 69.8535C50.7011 69.9202 50.3969 70.1068 50.042 70.2668C49.6744 70.4268 49.028 70.7335 48.6097 70.9468C47.2534 71.6135 44.8198 72.4668 43.8564 72.6135C42.9438 72.7468 41.5622 72.7602 41.3214 72.6535C41.22 72.6002 40.713 72.5202 40.1933 72.4802C39.6736 72.4268 39.2046 72.3602 39.1412 72.3202C39.0905 72.2802 38.7737 72.2002 38.4314 72.1335C38.1019 72.0668 37.4808 71.9335 37.0498 71.8268C36.0231 71.5735 35.402 71.7468 34.6669 72.4668C33.9697 73.1468 33.7796 73.8268 33.7923 75.4002C33.8303 77.7468 34.7176 80.5335 36.1372 82.7468C36.771 83.7468 38.4314 85.6002 39.2933 86.2802L39.737 86.6402L39.4201 87.2668C39.0145 88.0935 37.8737 89.5868 36.8343 90.6535C36.0358 91.4802 36.0104 91.5335 36.2259 91.7735C36.34 91.9202 36.771 92.2002 37.1766 92.4135C37.5695 92.6268 37.8991 92.8668 37.8991 92.9602C37.8991 93.1868 37.2653 94.2668 37.1385 94.2668C37.0625 94.2668 37.0118 94.3335 37.0118 94.4135C37.0118 94.6002 35.3006 97.0002 35.0091 97.2268C34.7936 97.4002 34.0965 98.3335 34.0965 98.4535C34.0965 98.4802 34.426 98.6402 34.8316 98.8135C35.3767 99.0268 35.9344 99.1202 37.1132 99.1735C38.0385 99.2135 38.6596 99.2935 38.6596 99.3735C38.6596 99.4535 38.4441 99.8135 38.1779 100.187C36.1118 103.12 34.9457 106.694 35.1485 109.453C35.2626 110.854 35.7569 112.747 36.302 113.867C36.7456 114.747 36.771 114.907 36.8217 116.293C36.9104 118.707 37.2019 119.92 38.1779 122.133C38.9258 123.8 39.6989 124.947 41.0552 126.387C42.5509 127.96 43.0072 128.347 44.3001 129.173C45.5676 129.973 46.2394 130.307 46.3788 130.2C46.4422 130.16 46.5309 129.88 46.5816 129.56C46.7718 128.293 48.5083 125.4 48.9139 125.667C48.9899 125.707 49.0533 126.027 49.0533 126.373C49.0533 127.333 49.4969 129.747 49.8011 130.44C49.9532 130.773 50.0673 131.093 50.0673 131.147C50.0673 131.187 50.2828 131.6 50.5363 132.053C51.0687 132.973 51.8038 133.867 52.0193 133.867C52.0954 133.867 52.2982 133.307 52.4756 132.64C52.8052 131.28 53.2615 130.333 53.9713 129.56C54.4783 129.013 54.7445 128.947 55.0487 129.293C55.2769 129.56 55.3783 129.987 55.8346 132.6C56.5064 136.333 56.8993 137.4 58.1795 138.84C59.5991 140.44 61.3737 141.587 63.7693 142.453C65.81 143.187 66.8874 143.333 70.6013 143.333C74.3151 143.333 75.3038 143.2 77.3825 142.467C79.0683 141.867 79.9429 141.413 81.3752 140.4C84.0371 138.52 84.8102 136.8 85.6975 130.773C86.0651 128.267 87.2946 128.6 88.3847 131.507C88.5748 132 88.7269 132.507 88.7269 132.64C88.7269 132.76 88.8283 133.107 88.9551 133.387L89.1832 133.907L89.6395 133.48C90.1846 132.987 91.0211 131.64 91.2746 130.867C91.3634 130.573 91.4901 130.267 91.5408 130.187C91.6042 130.093 91.7056 129.68 91.7817 129.253C91.8577 128.813 91.9718 128.2 92.0478 127.867C92.1239 127.533 92.1999 126.96 92.2126 126.6C92.238 126.227 92.2633 125.853 92.2633 125.76C92.2887 125.467 92.6436 125.587 92.8717 125.96C92.9985 126.173 93.1379 126.373 93.2013 126.413C93.4928 126.627 94.2407 128.24 94.5575 129.307C94.8237 130.173 94.8744 130.267 95.1152 130.187C95.4321 130.08 97.3841 128.933 97.4728 128.8C97.5109 128.747 97.7771 128.547 98.0813 128.347C98.8164 127.867 99.0446 127.667 99.9952 126.64C101.073 125.48 101.402 125.08 101.402 124.933C101.402 124.88 101.44 124.8 101.504 124.773C101.782 124.64 103.113 122.187 103.57 120.933C104.102 119.507 104.317 118.307 104.406 116.4C104.457 115.4 104.546 114.627 104.647 114.467C105.053 113.813 105.724 111.907 105.902 110.92C106.384 108.214 105.94 105.613 104.495 102.614C103.887 101.36 103.62 100.92 102.961 100.08C102.733 99.7868 102.543 99.4802 102.543 99.3868C102.543 99.2802 103.012 99.2135 104.102 99.1735C105.293 99.1202 105.813 99.0402 106.384 98.8135C106.776 98.6535 107.106 98.4668 107.106 98.4002C107.106 98.3335 106.624 97.6935 106.029 96.9735C104.951 95.6668 103.303 93.2535 103.303 92.9735C103.303 92.8402 103.595 92.6535 104.723 92.0402C104.913 91.9335 105.103 91.8002 105.141 91.7335C105.179 91.6668 104.698 91.0268 104.064 90.3068C102.936 89.0402 101.656 87.1868 101.656 86.8135C101.656 86.7202 102.327 85.9468 103.164 85.0802C105.179 83.0002 106.231 81.2002 106.903 78.6668C107.093 77.9735 107.296 77.2135 107.372 76.9868C107.436 76.7602 107.486 76.0002 107.486 75.2802C107.486 74.1868 107.436 73.8935 107.182 73.3602C106.51 71.9735 105.534 71.4535 104.241 71.8135C102.087 72.4002 98.2207 72.8802 97.5996 72.6268C97.4982 72.5868 97.2067 72.5202 96.9658 72.4935C96.3701 72.4135 96.1673 72.3468 94.9885 71.9335C93.9745 71.5602 93.4928 71.3468 92.0605 70.6535C91.6295 70.4402 91.1479 70.2002 90.9831 70.1335C90.8183 70.0668 90.6028 69.9468 90.5014 69.8802C90.1972 69.6935 87.5861 68.4002 87.4974 68.4002C87.4594 68.4002 87.1298 68.2535 86.7749 68.0802C83.6188 66.5202 80.9443 65.7735 78.1811 65.6668C75.9756 65.5868 73.5673 66.0268 71.5392 66.8802L70.69 67.2402L69.9802 67.0002C69.5872 66.8668 69.0422 66.6535 68.776 66.5068C67.8381 66.0002 66.1269 65.7068 63.82 65.6668C62.6412 65.6402 61.437 65.6668 61.1582 65.7335ZM79.6007 69.6668C79.981 69.7068 80.4119 69.8002 80.5514 69.8535C80.6908 69.9202 81.5781 70.2268 82.516 70.5468C83.454 70.8535 84.4934 71.2535 84.8102 71.4268C85.1398 71.6002 85.4567 71.7335 85.5074 71.7335C85.6088 71.7335 87.9664 72.9068 88.5368 73.2268C88.6762 73.3068 89.1832 73.6002 89.6649 73.8535C90.6409 74.3868 90.831 74.5068 92.0605 75.2668C92.5422 75.5602 93.0492 75.8802 93.2013 75.9602C93.721 76.2802 96.8644 76.0935 99.184 75.6135C100.743 75.2935 101.364 75.1335 101.744 74.9735C102.289 74.7468 102.404 74.9735 101.947 75.4002C101.402 75.9068 101.415 75.9068 100.16 76.6535C99.0319 77.3335 96.8771 78.2402 95.5082 78.6002C95.1659 78.6935 94.7857 78.8002 94.6843 78.8402C94.5829 78.8802 94.1646 78.9868 93.7717 79.0668C93.3661 79.1468 93.0365 79.2935 93.0365 79.3735C93.0365 79.7868 96.8264 81.6002 97.701 81.6002C98.0813 81.6002 98.208 81.9602 97.9038 82.2135C97.232 82.7468 94.6082 83.8002 94.0252 83.7602C93.6449 83.7335 93.7717 83.9468 94.5068 84.5335C95.9645 85.6935 97.7137 87.6668 98.8291 89.4135C99.653 90.7068 100.718 93.0668 100.566 93.2402C100.502 93.3068 99.9826 93.1202 99.3108 92.8002C98.3855 92.3602 94.9378 91.9335 94.9378 92.2535C94.9378 92.3202 95.2166 92.6135 95.5716 92.8935C95.9138 93.1735 96.1926 93.4668 96.2053 93.5468C96.2053 93.6268 96.4462 93.9335 96.7504 94.2268C97.3334 94.8135 97.7137 95.3202 98.9178 97.2002C99.9572 98.8402 100.87 100.947 101.073 102.2C101.123 102.493 101.187 102.827 101.212 102.934C101.25 103.04 101.225 103.214 101.161 103.32C101.073 103.467 100.882 103.374 100.287 102.88C99.8685 102.547 99.4882 102.267 99.4375 102.267C99.3995 102.267 99.0953 102.147 98.7784 101.987C98.2967 101.76 96.9912 101.333 96.763 101.333C96.725 101.333 97.0292 101.774 97.4475 102.293C99.5389 104.973 100.743 109.214 100.401 112.733C100.337 113.373 100.223 113.96 100.147 114.04C99.9826 114.213 99.9952 114.253 99.5769 113.067C98.9432 111.293 98.1573 109.933 96.7757 108.2C95.9138 107.12 94.0505 105.76 92.6562 105.214C92.276 105.054 91.9338 104.934 91.9211 104.934C91.8957 104.934 92.1492 105.28 92.4915 105.694C95.0645 108.854 96.4969 113.293 96.294 117.48C96.218 119.027 95.8124 121.28 95.5209 121.8C95.4321 121.947 95.2927 122.32 95.2166 122.613C95.1279 122.92 94.9885 123.24 94.8871 123.32C94.6843 123.493 94.6463 123.4 94.4942 122.467C94.1646 120.293 92.745 117.76 91.338 116.84C91.0592 116.653 90.7803 116.44 90.7423 116.373C90.7043 116.307 90.5014 116.24 90.2986 116.227C89.9311 116.2 89.9311 116.2 89.855 117.133C89.7663 118.12 89.6649 118.64 89.2973 119.933C89.0184 120.933 88.2579 122.493 88.0044 122.6C87.865 122.653 87.5988 122.44 87.1805 121.947C85.8623 120.387 84.5821 120.307 83.7202 121.733C83.3653 122.32 82.1484 126.067 81.6921 128C81.5781 128.48 81.4386 129.04 81.3752 129.267C81.2231 129.787 80.8429 131.467 80.488 133.133C80.1331 134.84 80.0317 135.133 79.5247 135.867C78.8022 136.92 77.9149 137.547 75.8869 138.4C75.3418 138.627 74.7714 138.8 74.6193 138.787C74.4672 138.773 74.1123 138.827 73.8335 138.92C73.0729 139.173 69.2704 139.267 68.0916 139.08C66.5325 138.813 64.5298 138.147 63.5665 137.547C62.6792 137.013 61.4117 135.68 61.1835 135.04C61.1328 134.88 60.8793 133.867 60.6512 132.8C59.6245 128.213 58.8133 125.04 58.3443 123.733C58.3062 123.627 58.1795 123.267 58.0654 122.933C57.7612 122.053 57.0387 120.96 56.6331 120.787C55.8599 120.453 54.7825 121 53.8065 122.227C53.6164 122.467 53.4009 122.667 53.3375 122.667C53.1474 122.667 52.8939 122.307 52.6151 121.667C52.4883 121.373 52.2601 120.867 52.1207 120.533C51.8165 119.827 51.3349 117.573 51.3349 116.813C51.3349 116.52 51.2841 116.253 51.2208 116.213C51.1067 116.133 50.3335 116.4 50.118 116.6C50.0293 116.667 49.8138 116.853 49.611 117C48.8758 117.56 48.0646 118.667 47.5069 119.907C47.0253 120.947 46.9112 121.32 46.7337 122.387C46.645 122.867 46.5182 123.267 46.4549 123.293C46.2647 123.36 45.5423 121.507 45.2761 120.267C44.9085 118.573 44.8451 117.92 44.8958 116.174C44.9592 114.373 45.3268 112.347 45.8211 111.133C45.9098 110.907 46.0239 110.587 46.0746 110.4C46.3154 109.507 47.5449 107.347 48.7491 105.694C49.0913 105.227 49.1547 105.067 49.0026 105.067C48.8251 105.067 47.2914 105.854 46.5816 106.307C46.0619 106.64 44.9085 107.694 44.3635 108.333C44.0466 108.694 43.7677 109.027 43.7297 109.067C43.6283 109.174 42.9311 110.293 42.741 110.667C42.2087 111.694 41.7016 112.787 41.7016 112.92C41.7016 113.014 41.5876 113.32 41.4355 113.627C41.0425 114.453 40.9031 114.12 40.8397 112.227C40.713 108.133 41.8284 104.534 44.0212 102.027C44.3001 101.72 44.4902 101.427 44.4395 101.374C44.3508 101.267 41.8411 102.174 41.5115 102.44C41.4481 102.493 41.0932 102.774 40.7256 103.067C40.3707 103.36 40.0412 103.547 40.0032 103.48C39.8637 103.267 40.32 101.467 40.827 100.16C41.2453 99.0802 42.4748 96.7068 42.7157 96.5335C42.7664 96.4935 42.9058 96.2668 43.0199 96.0268C43.1339 95.7868 43.3241 95.5468 43.4255 95.5068C43.5142 95.4668 43.6029 95.3735 43.6029 95.3068C43.6029 95.1468 43.8945 94.7868 45.162 93.4402C45.6944 92.8535 46.138 92.3335 46.138 92.2535C46.138 91.8668 42.9565 92.3868 41.3594 93.0402C40.6749 93.3202 40.4595 93.2535 40.6749 92.8402C40.7383 92.7068 41.0552 92.0535 41.3594 91.3868C42.5255 88.8668 44.2874 86.6402 46.8985 84.3735C47.2914 84.0268 47.4055 83.8668 47.2788 83.8268C47.1774 83.7868 46.6323 83.6268 46.0746 83.4668C45.5169 83.2935 44.9465 83.0802 44.8071 83.0002C44.6677 82.9068 44.4015 82.8002 44.224 82.7468C44.0466 82.7068 43.7424 82.5202 43.5269 82.3335C43.3241 82.1468 43.1213 82.0002 43.0706 82.0002C42.8171 82.0002 43.0072 81.7602 43.3241 81.6935C44.5282 81.4402 45.707 81.0268 46.0112 80.7468C46.1126 80.6402 46.3535 80.5335 46.5309 80.4802C46.9112 80.3868 48.0646 79.5868 48.128 79.3735C48.166 79.2802 47.6844 79.1068 46.9365 78.9335C43.9705 78.2268 41.0299 76.9202 39.6229 75.6802C38.9891 75.1068 38.9891 74.7868 39.6356 75.0268C39.8257 75.1068 40.3327 75.2402 40.751 75.3335C41.1693 75.4268 41.689 75.5468 41.8918 75.6135C42.5762 75.8135 46.4422 76.1602 47.152 76.0935C47.8999 76.0135 48.7364 75.6002 51.2208 74.0402C51.601 73.8002 51.994 73.6002 52.108 73.6002C52.2221 73.6002 52.3869 73.5202 52.4629 73.4135C52.6277 73.2135 53.8699 72.5602 55.2642 71.9468C55.7205 71.7468 56.3796 71.4402 56.7218 71.2668C57.0767 71.1068 57.5838 70.8935 57.8626 70.8002C58.1415 70.7202 58.4584 70.6135 58.5598 70.5735C58.6612 70.5202 58.7752 70.4802 58.8133 70.4802C58.8513 70.4668 59.0541 70.4002 59.2569 70.3202C61.1328 69.5868 64.4157 69.2402 65.5565 69.6402C66.0889 69.8402 67.4198 70.4268 67.8127 70.6535C69.5999 71.6668 70.4999 72.1335 70.69 72.1335C70.8167 72.1202 71.2097 71.9468 71.5519 71.7335C73.7321 70.3735 75.2277 69.7068 76.4953 69.5202C76.7741 69.4668 77.015 69.4268 77.0276 69.4135C77.053 69.4002 78.6374 69.5468 79.6007 69.6668Z" fill="white"/>
<path d="M62.844 73.9468C62.8059 73.9868 62.4891 74.0402 62.1595 74.0535C61.2215 74.1202 58.2555 75.0802 57.7232 75.4935C57.6471 75.5468 57.3049 75.7602 56.9626 75.9468C56.3669 76.2668 55.4036 76.9202 55.2642 77.0668C55.2261 77.1068 55.0107 77.2802 54.7952 77.4535C54.567 77.6135 54.3769 77.8002 54.3769 77.8535C54.3769 77.9068 54.8332 77.8802 55.4036 77.7868C55.9613 77.6935 57.2415 77.5468 58.2555 77.4535C61.2342 77.1868 62.844 77.5068 65.1255 78.8002C66.9888 79.8535 67.255 80.0402 69.3717 81.7068L70.6139 82.6802L71.0449 82.4002C71.273 82.2535 71.4885 82.0802 71.5138 82.0135C71.5772 81.8535 74.0996 79.9735 74.9742 79.4402C78.612 77.2268 80.2091 77.0002 86.2425 77.8268C86.6735 77.8802 86.8382 77.8668 86.7749 77.7602C86.6608 77.5602 84.3792 75.9868 83.6567 75.6002C83.3399 75.4402 82.985 75.2535 82.8709 75.1868C81.6541 74.5468 79.6767 74.0268 78.3838 74.0135C76.6854 73.9868 75.3545 74.4135 72.4645 75.8935L70.6012 76.8535L69.5492 76.2802C68.2183 75.5468 66.0001 74.5468 65.4931 74.4402C65.2649 74.4002 65.0241 74.3068 64.9481 74.2535C64.872 74.1868 64.4157 74.0802 63.934 74.0002C62.882 73.8402 62.9327 73.8535 62.844 73.9468Z" fill="white"/>
<path d="M52.6656 80.6268C50.9165 81.0135 49.5982 83.0535 49.0532 86.2002C48.9898 86.5602 48.9011 87.0002 48.8504 87.1601C48.7363 87.6001 48.9011 87.5468 49.687 86.8668C50.6629 86.0135 53.0966 84.3335 53.5783 84.1602C54.4529 83.8535 57.0893 83.6935 60.0173 83.7735C61.6271 83.8268 63.1481 83.9068 63.4143 83.9468C63.6804 84.0002 63.8832 83.9868 63.8832 83.9068C63.8832 83.8002 61.2721 82.4002 61.0567 82.4002C61.0186 82.4002 60.6764 82.2535 60.3088 82.0802C59.9412 81.9068 59.3328 81.6668 58.9652 81.5468C58.5977 81.4402 58.2301 81.3068 58.1414 81.2402C58.0653 81.1868 57.8752 81.1202 57.7357 81.0935C57.5963 81.0802 56.9372 80.9468 56.2527 80.8002C55.1373 80.5602 53.3374 80.4668 52.6656 80.6268Z" fill="white"/>
<path d="M85.875 80.6267C85.1525 80.72 83.0864 81.2267 82.7062 81.4C82.5033 81.4933 82.0977 81.64 81.8189 81.7333C81.54 81.8267 81.0203 82.04 80.6654 82.2133C80.3105 82.3867 79.981 82.5333 79.9429 82.5333C79.7528 82.5333 77.4459 83.7467 77.4459 83.84C77.4459 83.9067 77.9783 83.92 78.6247 83.88C80.5387 83.7467 86.0651 83.8133 86.927 83.9733C87.3706 84.0533 87.9917 84.2933 88.3086 84.4933C89.855 85.4933 90.3113 85.8267 91.5535 86.8533C92.2506 87.4267 92.3393 87.4667 92.3774 87.2267C92.4534 86.7333 91.7563 84.3467 91.1732 83.1067C90.7676 82.2267 90.4381 81.72 90.0324 81.3333C89.7156 81.0533 89.424 80.8133 89.3733 80.8267C89.3353 80.84 88.9931 80.7733 88.6255 80.6933C87.9917 80.5467 86.7115 80.5067 85.875 80.6267Z" fill="white"/>
<path d="M65.9114 85.6266C64.8086 86.1333 63.7566 86.7333 63.7566 86.8533C63.7566 86.9333 64.0861 87.1066 64.4918 87.2533C65.2142 87.4933 66.7987 88.4 67.2043 88.7867C67.3183 88.9067 67.5845 89.1467 67.8 89.3333C68.0282 89.52 68.7126 90.1867 69.3337 90.8267C69.9548 91.48 70.5252 92 70.6139 92C70.69 92 71.0068 91.6933 71.3237 91.3333C72.8321 89.56 75.4685 87.6 76.9135 87.16C77.2177 87.08 77.4586 86.9333 77.4459 86.8666C77.4205 86.7466 76.584 86.2533 75.4305 85.68C74.5052 85.2266 73.4405 85.44 71.5139 86.4666L70.6012 86.96L69.1816 86.2133C67.9141 85.5466 67.6986 85.4666 67.0015 85.48C66.5705 85.48 66.0888 85.5466 65.9114 85.6266Z" fill="white"/>
<path d="M55.3909 89.7869C54.7064 89.9869 53.9206 90.3469 53.8191 90.5202C53.7811 90.5869 53.9839 90.6669 54.2881 90.7069C54.5797 90.7469 55.0233 90.8269 55.2641 90.8936L55.7078 91.0136L55.7838 92.0002C55.8599 93.1069 55.9232 93.3336 56.3669 93.9736C56.6584 94.3736 57.2541 94.8002 57.533 94.8002C57.6091 94.8002 57.5457 94.5469 57.4189 94.2269C57.1401 93.6002 57.0767 92.2136 57.3048 92.0536C57.6091 91.8536 58.4076 91.9869 59.1174 92.3469C59.9667 92.7869 60.2582 93.1336 59.954 93.3336C59.6117 93.5602 58.8639 93.4936 58.6231 93.2002C58.3189 92.8536 58.2048 92.8669 58.1034 93.2536C58.002 93.6802 58.3569 94.3469 58.8512 94.6669C59.3329 94.9869 59.9286 95.0002 60.5497 94.7336C61.1708 94.4536 61.437 94.4802 61.5384 94.8269C61.7158 95.3736 60.537 95.9602 59.485 95.8269C59.1808 95.8002 58.8639 95.8402 58.7498 95.9202C58.5217 96.0936 58.2301 97.5869 58.3569 97.9335C58.4329 98.1602 58.4583 98.1602 58.7245 97.8935C59.0033 97.6269 59.6878 97.2802 60.3976 97.0536C60.6511 96.9736 60.9933 96.9869 61.4116 97.0802C61.9186 97.2136 62.1848 97.3869 62.7806 98.0269C63.1735 98.4535 63.5031 98.8935 63.5031 98.9869C63.5031 99.0802 63.6045 99.3069 63.7312 99.4802C63.8706 99.6535 63.9974 99.9202 64.0481 100.067C64.2509 100.787 64.5044 101.4 64.6185 101.44C64.7959 101.494 64.9354 99.7602 64.834 98.7735C64.7833 98.3069 64.6438 97.5469 64.5044 97.0802C64.3776 96.6136 64.2636 96.2136 64.2636 96.1869C64.2636 96.1602 64.5297 96.1336 64.872 96.1336C65.848 96.1336 65.9494 95.9469 65.2903 95.3336C64.7199 94.7869 64.4157 94.5736 63.6171 94.2002C63.3509 94.0802 62.7425 93.4802 62.1341 92.7469C60.9553 91.3202 59.6878 90.2536 58.7118 89.8669C57.9513 89.5602 56.3415 89.5202 55.3909 89.7869Z" fill="white"/>
<path d="M82.5033 89.8535C82.1864 89.9868 81.6667 90.2802 81.3625 90.4935C80.6907 90.9868 78.7261 93.0535 78.4979 93.5069C78.4092 93.6935 77.9529 94.0402 77.4205 94.3202C76.3811 94.8669 75.3291 95.7469 75.4558 95.9602C75.5066 96.0402 75.8361 96.1069 76.191 96.1202C76.5586 96.1202 76.8755 96.1469 76.9008 96.1735C76.9135 96.2002 76.8248 96.6935 76.6854 97.2669C76.4318 98.2935 76.3304 100.76 76.5079 101.254C76.6347 101.614 76.7741 101.494 76.9262 100.88C77.129 100.014 78.143 98.2002 78.6881 97.7602C79.8669 96.7735 81.1344 96.7602 82.2752 97.7335C82.5413 97.9469 82.7822 98.1335 82.8202 98.1335C83.0103 98.1335 82.8075 96.1202 82.592 95.9069C82.554 95.8669 82.0724 95.8135 81.54 95.8135C80.4119 95.7869 79.7274 95.4802 79.7274 94.9869C79.7274 94.4802 80.0063 94.3735 80.5513 94.6669C80.8302 94.8135 81.2358 94.9335 81.4639 94.9335C82.3512 94.9335 83.1498 94.2135 83.1498 93.4135C83.1498 93.0269 82.985 92.9869 82.516 93.2669C82.0977 93.5202 81.4513 93.5202 81.2485 93.2669C81.0583 93.0135 81.0203 93.0669 81.9203 92.4935C82.7568 91.9602 83.3526 91.8002 83.8342 92.0002C84.1258 92.1069 84.1638 92.2002 84.1638 92.8002C84.1638 93.4669 83.9483 94.1069 83.5554 94.5735C83.2765 94.9069 83.4159 94.9735 83.9356 94.7469C84.4173 94.5335 85.1271 93.7602 85.3172 93.2402C85.3806 93.0669 85.4313 92.4935 85.4313 91.9868C85.4313 90.9202 85.4567 90.8935 86.7369 90.7335C87.1298 90.6802 87.4594 90.6002 87.4594 90.5468C87.4594 90.4002 86.5974 89.9868 85.8749 89.7868C84.9623 89.5202 83.2131 89.5602 82.5033 89.8535Z" fill="white"/>
<path d="M49.1547 90.2933C48.9899 91.4267 49.5222 94.08 50.2194 95.56C50.9672 97.1733 52.1714 98.4533 53.6797 99.2133C54.6684 99.7067 55.8979 100.093 55.8979 99.8933C55.8979 99.8667 55.5557 99.4533 55.1501 98.9867C54.3769 98.12 53.5783 96.84 53.4643 96.2667C53.4262 96.08 53.2995 95.5733 53.1854 95.1333C53.0713 94.7067 52.9826 94.1333 52.9826 93.88C52.9826 93.1733 52.4629 92.3867 51.563 91.7333C51.1193 91.4133 50.4095 90.8533 49.9912 90.5067L49.2054 89.8667L49.1547 90.2933Z" fill="white"/>
<path d="M90.7549 90.88C90.1592 91.3734 89.5508 91.8267 89.3987 91.8934C88.841 92.1734 88.334 93.1467 88.2072 94.1734C87.903 96.4534 87.2439 97.8534 85.7229 99.4C85.4947 99.6267 85.3046 99.8667 85.3046 99.92C85.3046 100.227 87.4974 99.36 88.4861 98.6534C89.7536 97.7467 90.6282 96.5734 91.4267 94.6667C91.8323 93.6934 92.238 90 91.9338 90C91.8704 90 91.3507 90.4 90.7549 90.88Z" fill="white"/>
<path d="M49.3068 98.5868C49.3068 99.5868 50.2067 103 50.625 103.6C50.701 103.707 50.8405 103.933 50.9292 104.093C51.0052 104.267 51.1574 104.52 51.2334 104.667C51.3602 104.88 51.3602 105.013 51.2207 105.36C50.663 106.813 50.6123 109.04 51.094 110.733C51.6644 112.747 52.7291 114.68 54.0473 116.147C54.7698 116.947 56.3162 118.213 56.9119 118.493C58.4583 119.213 58.4456 119.2 58.8766 120.333C59.3329 121.52 59.5864 122.373 60.7779 126.573C62.1468 131.4 62.451 132.2 63.2749 133.053C64.5044 134.36 67.0775 135.067 70.5759 135.067C74.9615 135.067 77.7247 134.027 78.7007 132.027C78.9415 131.547 79.8034 128.907 80.1077 127.733C80.1964 127.4 80.3358 126.893 80.4372 126.6C80.5259 126.307 80.7287 125.587 80.8808 125C81.1724 123.813 81.9963 121.2 82.1357 121C82.1864 120.92 82.3258 120.533 82.4526 120.133C82.7314 119.2 82.7821 119.147 83.492 118.867C85.4186 118.093 87.6114 116.04 88.7902 113.933C89.969 111.813 90.3873 110.427 90.4507 108.4C90.4887 107.04 90.4507 106.747 90.1718 105.853L89.8423 104.84L90.2225 104.187C91.1351 102.613 91.7689 100.507 91.7689 99.0401C91.7689 98.1601 91.6548 98.1334 91.2619 98.9334C90.8943 99.6801 89.4747 101.387 88.4987 102.253C87.1171 103.467 84.6961 105.067 84.2271 105.067C84.1257 105.067 84.037 105.12 84.037 105.2C84.037 105.267 84.2778 105.333 84.582 105.333C85.2411 105.333 86.2805 105.653 86.5974 105.96C86.7241 106.08 86.8255 106.32 86.8255 106.493C86.8255 106.907 85.9002 108.04 84.8102 108.96C84.3539 109.347 83.9483 109.693 83.9102 109.747C83.8088 109.867 81.4005 111.467 81.2991 111.467C81.2611 111.467 80.8175 111.68 80.3231 111.92C79.8161 112.173 79.1697 112.493 78.8782 112.613C78.2697 112.88 78.1557 113.12 78.688 113.013C78.8782 112.973 79.3471 112.907 79.7274 112.867C81.6794 112.627 84.7341 111.453 86.0143 110.44C86.2298 110.267 86.496 110.133 86.6101 110.133C87.0664 110.133 86.7875 110.693 85.8495 111.693C85.0003 112.587 84.6581 112.84 83.4032 113.493C82.6047 113.907 81.3879 114.44 80.7161 114.68C80.0316 114.907 79.5119 115.16 79.5499 115.213C79.6387 115.373 81.1977 115.36 81.7554 115.213C81.9963 115.147 82.516 115.053 82.8962 115.013C83.2765 114.987 83.7835 114.907 84.0116 114.867C84.2271 114.813 84.4172 114.813 84.4172 114.853C84.4172 114.987 84.0497 115.36 83.7708 115.533C83.0737 115.96 82.2624 116.373 82.2624 116.307C82.2624 116.267 82.161 116.32 82.047 116.44C81.9202 116.547 81.54 116.72 81.1851 116.813C80.8428 116.893 80.4879 117.027 80.4119 117.093C80.3231 117.16 80.1964 117.613 80.1077 118.107C79.7908 120 78.6627 123.147 78.2444 123.293C78.1303 123.333 77.9782 122.627 77.8895 121.6C77.7754 120.187 77.3951 118.173 77.1797 117.72C77.1036 117.573 76.8248 117.467 76.3431 117.413C74.9615 117.253 74.784 117.227 73.9475 116.933C72.9461 116.573 72.1856 115.907 71.9828 115.213C71.9194 114.947 71.8687 114.28 71.8941 113.733L71.9321 112.733L73.3264 111.64C74.0996 111.04 74.784 110.533 74.8601 110.533C74.9361 110.533 75.1897 110.4 75.4305 110.227C76.0516 109.787 77.0022 109.533 77.9782 109.56L78.8275 109.573L79.0303 108.96C79.3598 108 79.4359 105.227 79.1697 103.987C78.9162 102.813 78.3838 101.44 78.2951 101.733C78.2571 101.84 78.1937 102.44 78.1557 103.067C78.0669 104.333 77.7501 105.653 77.2304 106.827C76.8755 107.653 76.7741 107.72 76.4318 107.4C76.1403 107.133 75.0249 106.947 74.4291 107.067C74.1756 107.12 73.6306 107.28 73.2377 107.44C72.8447 107.587 72.5025 107.68 72.4645 107.653C72.4391 107.627 72.0715 107.787 71.6406 108C71.2096 108.227 70.766 108.4 70.6646 108.4C70.5505 108.4 70.1195 108.24 69.6886 108.053C68.852 107.68 67.4324 107.2 66.9254 107.107C66.2409 106.987 65.3663 107.08 64.8973 107.333L64.403 107.6L64.2129 107.307C63.5538 106.2 62.9073 103.467 62.9834 102.027C62.9834 101.867 62.9453 101.733 62.882 101.733C62.7552 101.733 62.2355 103.013 62.2355 103.333C62.2355 103.467 62.1468 103.8 62.0327 104.08C61.7158 104.88 61.7539 107.4 62.0961 108.587C62.2355 109.093 62.4003 109.56 62.4637 109.627C62.5271 109.693 62.7425 109.68 62.9453 109.6C63.1608 109.507 63.5791 109.48 63.9467 109.533C64.6565 109.627 66.6212 110.573 67.3183 111.16C67.5718 111.36 67.9394 111.653 68.1422 111.8C69.2703 112.627 69.6125 113.453 69.3337 114.733C68.9788 116.387 68.0408 117 65.2269 117.387L64.0988 117.533L63.9213 118.067C63.6932 118.733 63.3763 120.787 63.2622 122.187C63.2242 122.827 63.1228 123.267 63.0341 123.293C62.6538 123.427 61.7032 120.907 61.2849 118.667C61.1835 118.12 61.0694 117.547 61.0314 117.4C60.9934 117.227 60.7906 117.067 60.4356 116.96C60.1314 116.853 59.7258 116.693 59.5104 116.6C59.3075 116.507 58.8639 116.307 58.5344 116.16C57.7992 115.827 56.7852 115.107 56.7852 114.907C56.7852 114.827 56.9373 114.8 57.2035 114.853C57.4189 114.907 58.0654 115 58.6231 115.08C61.1581 115.427 62.4257 115.347 61.0314 114.933C60.7145 114.84 60.423 114.707 60.3849 114.653C60.3469 114.587 60.2328 114.533 60.1188 114.533C59.9033 114.533 57.5584 113.4 56.6838 112.88C55.7204 112.293 54.3769 110.733 54.3769 110.2C54.3769 110 54.7064 109.92 54.7825 110.093C54.8459 110.267 55.8852 110.933 56.0754 110.933C56.1768 110.933 56.3035 110.987 56.3415 111.067C56.5824 111.467 59.9667 112.667 61.4116 112.853C61.7665 112.907 62.2609 112.973 62.5397 113.013C63.2749 113.133 63.0721 112.813 62.2229 112.533C61.3229 112.24 60.7145 111.96 60.7145 111.84C60.7145 111.773 60.6258 111.733 60.5117 111.733C60.3469 111.733 58.2428 110.48 58.0527 110.267C58.0147 110.227 57.8245 110.08 57.6091 109.947C57.0006 109.533 55.2134 107.853 54.7698 107.24C54.5163 106.893 54.3769 106.56 54.4022 106.387C54.4529 105.96 55.4669 105.453 56.4429 105.333L57.2288 105.24L56.519 104.893C54.5543 103.947 52.146 102 51.0813 100.533C50.9038 100.293 50.6123 99.9068 50.4222 99.6801C50.2321 99.4534 49.9786 99.0401 49.8518 98.7734C49.5983 98.2001 49.3068 98.1068 49.3068 98.5868ZM67.369 120.053C68.4844 120.413 69.866 121.693 70.3604 122.827C70.5632 123.307 70.6519 123.293 70.8927 122.76C71.1843 122.133 71.8814 121.267 72.5278 120.72C72.8828 120.427 74.4038 119.867 74.8601 119.867C75.4685 119.867 76.3178 120.133 76.3938 120.36C76.4318 120.453 76.3431 120.787 76.191 121.107C76.0389 121.427 75.9248 121.747 75.9248 121.827C75.9248 121.893 75.8234 122.307 75.684 122.747C75.5572 123.173 75.2404 124.24 74.9742 125.093C74.6319 126.267 74.4038 126.787 74.0869 127.16C73.8461 127.44 73.6433 127.707 73.6433 127.76C73.6433 127.907 72.8321 128.347 72.1222 128.573C71.4251 128.787 70.0181 128.84 69.7773 128.653C69.7139 128.6 69.4478 128.56 69.2069 128.56C68.6619 128.573 67.5845 127.947 67.407 127.52C67.331 127.347 67.2169 127.2 67.1662 127.2C67.0268 127.2 66.3423 125.653 66.2282 125.12C66.1775 124.907 65.848 123.773 65.4931 122.6C65.1255 121.427 64.834 120.413 64.834 120.333C64.834 120.173 65.7212 119.893 66.3043 119.88C66.5578 119.867 67.0268 119.96 67.369 120.053ZM77.6994 128.933C77.6994 130.347 77.4965 131.213 77.0529 131.613C76.9135 131.733 76.3811 131.92 75.8868 132C75.3798 132.093 74.9235 132.213 74.8474 132.267C74.784 132.32 74.2137 132.467 73.5799 132.613C72.7053 132.8 71.9575 132.867 70.4111 132.853C68.5478 132.84 68.269 132.813 66.9888 132.427C66.2282 132.213 65.3283 131.987 64.9987 131.933C64.2509 131.827 63.7059 131.307 63.5918 130.573C63.4397 129.627 63.5031 127.893 63.7059 127.24C64.0481 126.16 64.2382 126.16 64.5171 127.213C64.6692 127.773 65.848 130.24 66.1268 130.56C66.3677 130.84 66.5831 130.707 66.8747 130.107C67.1409 129.56 67.4831 129.627 67.9394 130.333C68.307 130.893 68.8267 131.16 68.8267 130.773C68.8267 130.533 69.2196 130.133 69.4731 130.133C69.5999 130.133 69.8534 130.373 70.0562 130.667C70.2463 130.96 70.4871 131.2 70.5885 131.2C70.6899 131.2 70.9561 130.96 71.1969 130.667C71.4378 130.373 71.7166 130.133 71.8054 130.133C71.9068 130.133 72.0969 130.307 72.249 130.533C72.4011 130.747 72.6039 130.933 72.6926 130.933C72.794 130.933 73.0475 130.667 73.2757 130.333C73.5038 130 73.7827 129.733 73.9221 129.733C74.0489 129.733 74.2897 129.96 74.4672 130.267C74.6446 130.56 74.8094 130.8 74.8347 130.8C74.9235 130.8 76.0516 128.947 76.0516 128.813C76.0516 128.733 76.1656 128.48 76.3051 128.24C76.4445 128 76.5586 127.733 76.5586 127.64C76.5586 127.56 76.6727 127.2 76.8248 126.84L77.0909 126.2L77.3951 126.92C77.6487 127.52 77.6994 127.853 77.6994 128.933Z" fill="white"/>
</svg>
