<svg width="86" height="91" viewBox="0 0 86 91" fill="none" xmlns="http://www.w3.org/2000/svg">
<rect width="86" height="91" fill="#E5E5E5"/>
<g clip-path="url(#clip0)">
<rect width="1920" height="4888" transform="translate(-918 -15)" fill="white"/>
<g filter="url(#filter0_d)">
<rect x="-919" y="-16" width="1922" height="208" fill="white"/>
<rect x="-918.75" y="-15.75" width="1921.5" height="207.5" stroke="#D4041C" stroke-opacity="0.42" stroke-width="0.5"/>
<path d="M29.3483 1.14584V1.75348H30.0085H30.6687V1.14584V0.538198H30.0085H29.3483V1.14584Z" fill="#D4041C"/>
<path d="M11.7713 4.16666C11.7713 7.13541 11.7713 7.19617 11.598 7.3611C11.433 7.51735 11.2432 7.52603 8.88305 7.55207L6.34139 7.57811L6.30838 8.23784C6.29188 8.67186 6.31664 8.90624 6.3744 8.93228C6.43217 8.94964 7.63698 8.95832 9.05634 8.94096C11.4907 8.91492 11.6723 8.90624 12.0189 8.73263C12.2252 8.62846 12.4892 8.43749 12.613 8.2986C13.0669 7.78645 13.0916 7.56943 13.0916 4.21874V1.14582H12.4315H11.7713V4.16666Z" fill="#D4041C"/>
<path d="M33.3589 1.92708C33.3836 3.125 33.4414 3.05556 32.4346 3.05556H31.5764V3.75V4.44445H32.4346H33.2846L33.3424 5.01736C33.3754 5.32986 33.3919 6.33681 33.3919 7.24827L33.3754 8.91493H34.0273H34.671L34.6957 6.67535L34.7122 4.44445H35.8675H37.0228V3.75V3.05556H35.8675H34.7122V2.1007V1.14583H34.0273H33.3424L33.3589 1.92708Z" fill="#D4041C"/>
<path d="M55.3921 1.27604C54.9299 1.44965 54.5091 1.84028 54.2698 2.32639C54.0965 2.67361 54.0635 2.87326 54.0635 3.45486C54.0635 4.07986 54.0882 4.20139 54.311 4.57465C54.9052 5.5816 55.4086 5.74653 57.8759 5.74653C59.5759 5.74653 59.6336 5.75521 59.84 5.94618C60.005 6.08507 60.071 6.25 60.104 6.53646C60.1453 6.89236 60.1205 6.97049 59.8977 7.2309L59.6502 7.52604L56.8692 7.55208L54.0965 7.57813L54.1212 8.24653L54.146 8.91493H56.9517C59.6254 8.91493 59.7739 8.90625 60.1288 8.73264C61.02 8.29861 61.4079 7.64757 61.4079 6.61458C61.3996 5.59896 61.0448 5.00868 60.17 4.56597C59.7739 4.36632 59.6832 4.35764 57.9832 4.35764C57.0095 4.35764 56.0687 4.31424 55.9037 4.26215C55.3425 4.1059 55.1527 3.30729 55.5571 2.80382L55.7717 2.53472L58.2555 2.51736L60.7477 2.49132L60.7724 1.81424L60.7972 1.14583H58.2555C56.308 1.15451 55.6396 1.18056 55.3921 1.27604Z" fill="#D4041C"/>
<path d="M62.7694 1.31945C62.6044 1.49306 62.6044 1.58854 62.6209 5.20833L62.6456 8.91493L63.248 8.94097L63.8422 8.96701L63.8505 5.85937C63.8587 4.14931 63.8587 2.69965 63.8505 2.64757C63.8422 2.56077 64.4529 2.53472 66.5407 2.51736L69.2474 2.49132L69.2721 1.81424L69.2969 1.14584H66.1115C63.0417 1.14584 62.9262 1.15452 62.7694 1.31945Z" fill="#D4041C"/>
<path d="M71.3104 1.32813C70.9308 1.54514 70.741 1.75347 70.5017 2.2309C70.3284 2.56076 70.3201 2.68229 70.3201 5.06077V7.5434L70.5677 7.96875C70.7492 8.27257 70.9473 8.46354 71.2691 8.65452L71.723 8.91493H74.3637H77.0044L77.0291 8.24653L77.0539 7.57813L74.4875 7.55208L71.9128 7.52604L71.756 7.31771C71.6075 7.13542 71.5992 6.95313 71.5992 5.00868C71.5992 3.125 71.6157 2.88195 71.7478 2.71701C71.888 2.53472 71.9541 2.53472 74.4462 2.50868L77.0044 2.49132L77.0291 1.81424L77.0539 1.14583H74.3472C71.7395 1.14583 71.624 1.15451 71.3104 1.32813Z" fill="#D4041C"/>
<path d="M14.4945 4.94793C14.4945 7.22223 14.5523 7.46529 15.1877 8.13369C15.8561 8.82813 16.1202 8.89758 18.2162 8.94098C20.172 8.9757 20.436 8.92362 20.6011 8.47223C20.6506 8.3507 20.6836 7.1007 20.6836 5.65105V3.05557H20.0234H19.3633L19.3468 5.28647L19.322 7.52605L18.142 7.55209C16.7556 7.57813 16.4173 7.50001 16.0707 7.09202L15.8149 6.77952V4.92189V3.05557H15.1547H14.4945V4.94793Z" fill="#D4041C"/>
<path d="M23.1015 3.19444C22.5899 3.38541 22.1277 3.96701 22.0122 4.53993C21.9545 4.84375 21.9297 6.01562 21.9379 7.87326L21.9627 10.7378L22.5981 10.7639L23.2335 10.7899L23.2583 7.74306C23.283 4.83507 23.2913 4.6875 23.4398 4.56597C23.6874 4.375 26.4766 4.39236 26.6582 4.58333C26.8562 4.79167 26.848 7.2309 26.6499 7.40451C26.5509 7.49132 26.1548 7.53472 25.1645 7.55208L23.8112 7.57813L23.8359 8.24653L23.8607 8.91493H25.2223C26.7324 8.90625 27.046 8.83681 27.5081 8.41146C28.0363 7.92535 28.1105 7.63021 28.1105 5.9809C28.1105 4.38368 28.0693 4.17535 27.6237 3.64583C27.2028 3.13368 26.8397 3.05555 25.0242 3.06423C23.8524 3.06423 23.3573 3.09896 23.1015 3.19444Z" fill="#D4041C"/>
<path d="M29.3483 6.00694V8.96701L29.992 8.94097L30.6274 8.91493L30.6522 5.9809L30.6687 3.05555H30.0085H29.3483V6.00694Z" fill="#D4041C"/>
<path d="M38.863 3.27258C38.3761 3.533 38.0626 3.95835 37.9388 4.53126C37.8232 5.03474 37.8232 6.97918 37.9388 7.48265C38.0543 8.02085 38.4999 8.55904 38.9785 8.7587C39.3086 8.88891 39.6139 8.91495 40.7362 8.91495H42.0978V8.26391V7.61286L40.7692 7.58682C39.0363 7.56078 39.1271 7.64759 39.1271 5.9462C39.1271 4.27085 39.028 4.35765 40.9343 4.35765C42.5765 4.35765 42.7167 4.40106 42.7167 4.95661C42.7167 5.52085 42.6012 5.56425 41.1076 5.59029L39.7872 5.61633V6.26738V6.91842H41.1901C42.4857 6.90974 42.626 6.90106 42.9891 6.71008C43.6905 6.35418 44.0783 5.51217 43.9463 4.62675C43.8473 3.93231 43.3439 3.32467 42.7332 3.14237C42.5682 3.09897 41.7182 3.05557 40.8518 3.05557C39.3416 3.05557 39.2674 3.06425 38.863 3.27258Z" fill="#D4041C"/>
<path d="M46.0423 3.20314C45.5472 3.38543 45.0603 3.98439 44.9448 4.55731C44.8953 4.8264 44.8705 5.80731 44.8788 6.96182L44.9035 8.91495H45.5225H46.1414L46.1826 6.82293C46.2156 5.24307 46.2486 4.69619 46.3394 4.59203C46.4302 4.4705 46.6943 4.44446 48.1136 4.4271L49.7723 4.40106L49.7971 3.72397L49.8218 3.05557L48.1054 3.06425C46.8015 3.06425 46.3064 3.09897 46.0423 3.20314Z" fill="#D4041C"/>
<path d="M64.4859 4.9132C64.4446 5.83334 64.2301 5.75521 66.5902 5.72917L68.6697 5.70313L68.6945 5.02605L68.7192 4.35764H66.6149H64.5189L64.4859 4.9132Z" fill="#D4041C"/>
<path d="M21.4015 13.8368C21.286 14.0451 20.9807 14.6007 20.7249 15.0781C20.4608 15.5555 20.1472 16.1371 20.0152 16.3802C19.8914 16.6146 19.6686 17.0312 19.5118 17.3003C19.3633 17.5781 19.1652 17.9253 19.0827 18.0816C18.5958 18.9844 16.9206 22.0312 15.5838 24.4531C14.7421 25.9809 13.7848 27.717 13.463 28.316C11.4742 31.9618 10.5665 33.6111 10.3684 33.9583C10.2447 34.1753 10.0466 34.5226 9.93107 34.7396C9.6505 35.2778 6.62197 40.7986 4.79 44.1146C4.45991 44.7135 4.00604 45.5469 3.77499 45.9809C3.54393 46.4062 3.26335 46.9184 3.16433 47.1094C1.69545 49.7309 0.350352 52.2569 0.358604 52.3611C0.366856 52.4306 0.672185 53.0382 1.04353 53.7066C1.41488 54.375 1.86049 55.1736 2.03379 55.4861C2.19883 55.7986 2.55367 56.441 2.81774 56.9184C4.11332 59.2708 6.70449 63.9931 7.93406 66.25C8.44569 67.1788 9.14712 68.4722 9.50196 69.1146C9.8568 69.757 10.4097 70.7552 10.7233 71.3281C11.0369 71.9011 12.2252 74.0712 13.364 76.1458C14.5028 78.2205 15.559 80.1649 15.7241 80.4514C15.8891 80.7465 16.0789 81.1024 16.1532 81.2326C16.2274 81.3715 16.541 81.9358 16.8464 82.4826C17.1517 83.0295 17.49 83.6545 17.6056 83.8715C18.0594 84.7222 20.3865 88.9757 20.6011 89.3403C20.7249 89.5573 21.0054 90.0521 21.22 90.4514L21.6161 91.1632H42.9148H64.2136L64.7087 90.2691C64.9728 89.783 65.5917 88.6632 66.0786 87.7778C66.5654 86.8924 67.0441 86.0156 67.1431 85.8247C67.2421 85.6337 67.5227 85.1215 67.762 84.6962C68.6615 83.0816 69.1401 82.2136 70.1964 80.2691C70.7905 79.1667 71.4259 78.0208 71.591 77.7083C71.7643 77.3958 72.1191 76.7535 72.3832 76.2761C72.6472 75.7986 73.0021 75.1563 73.1671 74.8438C73.3404 74.5313 73.6788 73.9063 73.9263 73.4549C74.1739 73.0035 74.8588 71.7535 75.453 70.6771C76.0389 69.6007 76.8146 68.1945 77.1694 67.5521C77.7306 66.5451 78.3247 65.4601 78.8611 64.4705C79.5048 63.2899 80.1979 62.0139 80.264 61.9097C80.3052 61.8403 80.5528 61.3889 80.8086 60.9115C81.0644 60.434 81.3945 59.8264 81.543 59.566C81.6916 59.3056 82.1537 58.4635 82.5746 57.6997C82.9954 56.9358 83.5318 55.9549 83.7711 55.5295C84.7449 53.7587 85.4628 52.3872 85.4628 52.2917C85.4628 52.2309 85.372 52.0313 85.2565 51.8403C85.1492 51.658 84.8934 51.1979 84.6954 50.8247C84.4973 50.4514 84.192 49.8958 84.0187 49.5833C83.8454 49.2708 83.5648 48.7674 83.3998 48.4549C83.0944 47.8819 81.6833 45.3125 80.8004 43.724C80.5363 43.2465 80.231 42.6823 80.1154 42.4653C79.9999 42.2483 79.8183 41.9271 79.7111 41.7535C79.612 41.5712 79.5213 41.4062 79.5213 41.3802C79.5213 41.3542 79.4305 41.1892 79.3232 41.0069C79.1087 40.651 78.3412 39.2622 77.8708 38.3854C77.4747 37.6476 76.4927 35.8594 75.684 34.3924C75.3292 33.75 74.57 32.3611 73.9923 31.3108C72.7958 29.1233 71.2031 26.224 70.543 25.0174C70.0148 24.0538 68.0921 20.5555 67.7867 19.9826C67.5804 19.6094 67.3164 19.1319 65.7815 16.3368C65.4266 15.6944 64.9893 14.8871 64.8077 14.5573C64.6262 14.2187 64.4116 13.8455 64.3208 13.7066L64.1641 13.4722H42.8818H21.5996L21.4015 13.8368ZM60.5661 20.4514C60.6652 20.5642 60.8962 20.9288 61.0695 21.25C61.2428 21.5799 61.5316 22.1094 61.7049 22.4305C61.8865 22.7604 62.167 23.2812 62.3403 23.6024C62.5219 23.9323 62.9923 24.7917 63.3966 25.5208C63.801 26.2413 64.2796 27.1267 64.4694 27.474C64.7995 28.0816 65.2286 28.8802 66.813 31.7448C67.2338 32.5087 67.993 33.8976 68.5047 34.8264C69.0081 35.7552 69.66 36.9271 69.9323 37.4132C70.2129 37.908 70.4439 38.3247 70.4439 38.342C70.4439 38.3507 70.741 38.9062 71.1124 39.566C71.4754 40.2344 71.8633 40.9288 71.9623 41.1198C72.0696 41.3108 72.3419 41.8142 72.5812 42.2483C72.8205 42.6736 73.0434 43.0903 73.0846 43.1597C73.1836 43.3333 74.0254 44.8698 74.2151 45.217C74.2977 45.3733 74.5865 45.8941 74.8506 46.3889C75.1146 46.8837 75.453 47.5 75.6015 47.7604C76.1214 48.6892 77.0209 50.3299 77.2272 50.7118C77.3427 50.9288 77.5655 51.3542 77.7388 51.6493C77.9039 51.9531 78.0359 52.2656 78.0359 52.3524C78.0359 52.4306 77.8296 52.8646 77.5738 53.316C77.1034 54.1493 75.7913 56.5278 75.2302 57.5695C74.9001 58.1858 74.5782 58.7587 73.9098 59.9566C73.6705 60.382 73.3734 60.9288 73.2414 61.1719C73.1176 61.4063 72.8866 61.8403 72.7298 62.1267C72.3502 62.7865 71.9953 63.4375 70.8565 65.5122C70.5677 66.033 70.2376 66.6406 70.1138 66.8576C69.9901 67.0747 69.792 67.4219 69.6765 67.6389C69.5692 67.8559 69.1318 68.6545 68.711 69.4184C68.2901 70.1823 67.8528 70.9809 67.7455 71.1979C67.63 71.4149 67.4484 71.7448 67.3329 71.9358C67.2256 72.1267 66.9615 72.5955 66.7552 72.9774C65.93 74.5052 65.1461 75.9201 64.816 76.4844C64.6674 76.7448 64.5189 77.0313 64.4859 77.1181C64.4446 77.2136 64.1393 77.7691 63.801 78.3594C63.4626 78.9497 63.1821 79.4531 63.1821 79.4705C63.1821 79.4965 62.8767 80.0521 62.5136 80.7118C61.7709 82.0399 61.7627 82.066 61.086 83.3073C60.8219 83.7847 60.5496 84.2274 60.4754 84.2882C60.3763 84.3663 56.7289 84.3924 42.8901 84.3924C33.2846 84.3924 25.3873 84.3577 25.346 84.3229C25.247 84.2535 24.9664 83.7587 23.7946 81.6146C23.3655 80.8247 22.8044 79.7917 22.5403 79.3142C22.2763 78.8368 21.8636 78.0729 21.6161 77.6215C21.3685 77.1701 21.1375 76.7361 21.0962 76.6667C20.8734 76.2847 20.271 75.1823 20.0894 74.8438C19.9739 74.6267 19.6933 74.1233 19.4705 73.7153C18.241 71.5104 16.376 68.099 15.9964 67.3785C15.8809 67.1615 15.7323 66.8924 15.658 66.7708C15.5838 66.6493 15.394 66.3108 15.2372 66.0156C15.0804 65.7205 14.7668 65.1563 14.544 64.757C14.3212 64.3576 14.0489 63.8629 13.9416 63.6458C13.8261 63.4288 13.6115 63.0382 13.463 62.7778C13.3144 62.5174 12.8853 61.7361 12.514 61.0417C12.1344 60.3472 11.6888 59.5399 11.5155 59.2361C11.3339 58.9323 11.1936 58.6632 11.1936 58.6372C11.1936 58.6111 11.0781 58.3854 10.9296 58.1424C10.7893 57.8993 10.583 57.526 10.4675 57.309C10.3602 57.092 10.1869 56.7795 10.0796 56.6146C9.91457 56.3368 9.37818 55.3646 8.55297 53.8368C8.38792 53.5243 8.14861 53.099 8.03308 52.8819C7.9093 52.6649 7.81028 52.4219 7.81028 52.3264C7.81028 52.1875 8.89956 50.0955 9.43594 49.2014C9.55147 49.0191 9.72477 48.7066 9.82379 48.5069C9.93107 48.316 10.2281 47.7604 10.4922 47.283C11.0946 46.1979 12.1096 44.3403 12.514 43.5938C12.8771 42.908 13.3144 42.1181 13.4217 41.9444C13.463 41.875 13.6033 41.6146 13.7353 41.3802C13.8591 41.1372 14.2552 40.4253 14.61 39.783C14.9649 39.1406 15.3197 38.4896 15.4022 38.3507C15.4848 38.2031 15.6911 37.8299 15.8561 37.5174C16.0294 37.2049 16.3265 36.658 16.5163 36.3021C16.7143 35.9462 17.1517 35.1389 17.49 34.5226C18.1254 33.3854 18.1915 33.2552 19.0002 31.8056C19.2477 31.3628 19.4458 30.9809 19.4458 30.9549C19.4458 30.9375 19.5366 30.7726 19.6356 30.5903C19.7429 30.4167 19.9244 30.0955 20.0399 29.8785C20.1555 29.6615 20.436 29.1667 20.6506 28.7674C20.8734 28.3681 21.1127 27.934 21.1787 27.8125C21.2447 27.6823 21.4263 27.3785 21.5748 27.118C21.7151 26.8663 21.8389 26.6319 21.8389 26.5972C21.8389 26.5625 21.9297 26.3976 22.0287 26.2326C22.136 26.0677 22.3175 25.7552 22.433 25.5382C22.9859 24.4965 23.6791 23.2292 23.7451 23.1424C23.7864 23.0903 23.9349 22.8212 24.0752 22.5347C24.2155 22.2569 24.3805 21.9618 24.4301 21.8924C24.4878 21.8229 24.5786 21.6406 24.6446 21.5017C24.7932 21.1719 25.1315 20.599 25.2965 20.3906C25.4038 20.2517 26.3446 20.243 42.8983 20.243H60.3846L60.5661 20.4514Z" fill="#D4041C"/>
<path d="M36.8167 27.0501C35.5294 27.3365 33.6479 27.9962 32.4266 28.5778C32.2533 28.656 31.6922 28.9337 31.1723 29.1855C30.6606 29.4459 30.1903 29.6542 30.1242 29.6542C30.0582 29.6542 30.0087 29.6889 30.0087 29.7324C30.0087 29.7758 29.8107 29.8973 29.5796 30.0014C29.3403 30.1056 28.9194 30.3053 28.6471 30.4442C27.7641 30.8782 26.1797 31.4337 25.5526 31.5292C24.9584 31.616 24.0589 31.6247 23.9021 31.5553C23.8361 31.5205 23.506 31.4685 23.1677 31.4424C22.8294 31.4077 22.524 31.3643 22.4828 31.3383C22.4498 31.3122 22.2435 31.2601 22.0207 31.2167C21.8061 31.1733 21.4018 31.0865 21.1212 31.0171C20.4528 30.8521 20.0484 30.965 19.5698 31.4337C19.1159 31.8764 18.9921 32.3192 19.0004 33.3435C19.0251 34.8712 19.6028 36.6855 20.527 38.1264C20.9396 38.7775 22.0207 39.9841 22.5818 40.4268L22.8706 40.6612L22.6643 41.0692C22.4003 41.6073 21.6576 42.5796 20.9809 43.274C20.461 43.8122 20.4445 43.8469 20.5848 44.0032C20.6591 44.0987 20.9396 44.281 21.2037 44.4198C21.4595 44.5587 21.6741 44.715 21.6741 44.7757C21.6741 44.9233 21.2615 45.6264 21.1789 45.6264C21.1294 45.6264 21.0964 45.6698 21.0964 45.7219C21.0964 45.8435 19.9824 47.406 19.7926 47.5535C19.6523 47.6664 19.1984 48.274 19.1984 48.3521C19.1984 48.3695 19.413 48.4737 19.6771 48.5865C20.0319 48.7254 20.395 48.7862 21.1624 48.8209C21.7648 48.8469 22.1692 48.899 22.1692 48.9511C22.1692 49.0032 22.0289 49.2376 21.8556 49.4806C20.5105 51.3903 19.7513 53.7167 19.8834 55.5136C19.9576 56.4251 20.2795 57.6577 20.6343 58.3869C20.9231 58.9598 20.9396 59.0639 20.9726 59.9667C21.0304 61.5379 21.2202 62.3278 21.8556 63.7688C22.3425 64.8539 22.8459 65.6004 23.7288 66.5379C24.7026 67.5622 24.9997 67.8139 25.8414 68.3521C26.6666 68.873 27.104 69.09 27.1947 69.0205C27.236 68.9945 27.2938 68.8122 27.3268 68.6039C27.4506 67.7792 28.5811 65.8955 28.8452 66.0691C28.8947 66.0952 28.9359 66.3035 28.9359 66.5292C28.9359 67.1542 29.2248 68.7254 29.4228 69.1768C29.5218 69.3938 29.5961 69.6021 29.5961 69.6369C29.5961 69.6629 29.7364 69.932 29.9014 70.2271C30.248 70.8261 30.7267 71.4077 30.8669 71.4077C30.9165 71.4077 31.0485 71.0431 31.164 70.6091C31.3786 69.7237 31.6756 69.1073 32.1378 68.6039C32.4679 68.248 32.6411 68.2046 32.8392 68.4303C32.9877 68.6039 33.0538 68.8816 33.3508 70.583C33.7882 73.0136 34.044 73.708 34.8775 74.6455C35.8017 75.6872 36.957 76.4337 38.5167 76.998C39.8453 77.4754 40.5467 77.5709 42.9646 77.5709C45.3824 77.5709 46.0261 77.4841 47.3794 77.0066C48.477 76.616 49.0464 76.3209 49.9789 75.6612C51.7118 74.4372 52.2152 73.3174 52.7928 69.3938C53.0322 67.7619 53.8326 67.9789 54.5423 69.8712C54.6661 70.1924 54.7651 70.5223 54.7651 70.6091C54.7651 70.6872 54.8311 70.9129 54.9136 71.0952L55.0622 71.4337L55.3593 71.1559C55.7141 70.8348 56.2587 69.958 56.4238 69.4546C56.4815 69.2636 56.5641 69.0639 56.5971 69.0119C56.6383 68.9511 56.7044 68.682 56.7539 68.4042C56.8034 68.1178 56.8776 67.7185 56.9272 67.5014C56.9767 67.2844 57.0262 66.9112 57.0344 66.6768C57.0509 66.4337 57.0674 66.1907 57.0674 66.1299C57.084 65.9389 57.315 66.0171 57.4635 66.2601C57.5461 66.399 57.6368 66.5292 57.6781 66.5553C57.8679 66.6941 58.3548 67.7445 58.5611 68.4389C58.7344 69.0032 58.7674 69.0639 58.9242 69.0119C59.1305 68.9424 60.4013 68.1959 60.4591 68.1091C60.4838 68.0744 60.6571 67.9441 60.8552 67.8139C61.3338 67.5014 61.4823 67.3712 62.1012 66.7028C62.8027 65.9476 63.0172 65.6872 63.0172 65.5917C63.0172 65.557 63.042 65.5049 63.0832 65.4875C63.2648 65.4007 64.1313 63.8035 64.4283 62.9875C64.7749 62.0587 64.9152 61.2775 64.973 60.0362C65.006 59.3851 65.0638 58.8816 65.1298 58.7775C65.3938 58.3521 65.8312 57.1108 65.9467 56.4685C66.2603 54.7063 65.9715 53.0136 65.0307 51.0605C64.6346 50.2445 64.4613 49.958 64.0322 49.4112C63.8837 49.2202 63.7599 49.0205 63.7599 48.9598C63.7599 48.8903 64.0653 48.8469 64.7749 48.8209C65.5506 48.7862 65.889 48.7341 66.2603 48.5865C66.5161 48.4823 66.7307 48.3608 66.7307 48.3174C66.7307 48.274 66.4171 47.8573 66.0293 47.3886C65.3278 46.5379 64.255 44.9667 64.255 44.7844C64.255 44.6976 64.4448 44.5761 65.1793 44.1768C65.3031 44.1073 65.4268 44.0205 65.4516 43.9771C65.4764 43.9337 65.1628 43.5171 64.7502 43.0483C64.0157 42.2237 63.1823 41.0171 63.1823 40.774C63.1823 40.7133 63.6196 40.2098 64.1643 39.6455C65.4764 38.2914 66.1613 37.1195 66.5987 35.4702C66.7224 35.0188 66.8545 34.524 66.904 34.3764C66.9452 34.2289 66.9782 33.7341 66.9782 33.2653C66.9782 32.5535 66.9452 32.3626 66.7802 32.0153C66.3428 31.1126 65.7074 30.774 64.8657 31.0084C63.4628 31.3903 60.9459 31.7028 60.5416 31.5379C60.4756 31.5119 60.2858 31.4685 60.129 31.4511C59.7411 31.399 59.6091 31.3556 58.8417 31.0865C58.1815 30.8435 57.8679 30.7046 56.9354 30.2532C56.6548 30.1143 56.3413 29.958 56.234 29.9146C56.1267 29.8712 55.9864 29.7931 55.9204 29.7497C55.7223 29.6282 54.0224 28.7862 53.9646 28.7862C53.9399 28.7862 53.7253 28.6907 53.4943 28.5778C51.4395 27.5622 49.6983 27.0761 47.8993 27.0067C46.4635 26.9546 44.8956 27.241 43.5752 27.7966L43.0223 28.031L42.5602 27.8747C42.3044 27.7879 41.9495 27.649 41.7763 27.5535C41.1656 27.2237 40.0516 27.0327 38.5497 27.0067C37.7822 26.9893 36.9983 27.0067 36.8167 27.0501ZM48.8236 29.6108C49.0711 29.6369 49.3517 29.6976 49.4425 29.7324C49.5333 29.7758 50.1109 29.9754 50.7216 30.1837C51.3322 30.3834 52.0089 30.6438 52.2152 30.7567C52.4297 30.8695 52.6361 30.9563 52.6691 30.9563C52.7351 30.9563 54.27 31.7202 54.6413 31.9285C54.7321 31.9806 55.0622 32.1716 55.3758 32.3365C56.0112 32.6837 56.135 32.7619 56.9354 33.2567C57.249 33.4476 57.5791 33.656 57.6781 33.708C58.0164 33.9164 60.063 33.7949 61.5731 33.4824C62.5881 33.274 62.9925 33.1699 63.24 33.0657C63.5949 32.9181 63.6691 33.0657 63.3721 33.3435C63.0172 33.6733 63.0255 33.6733 62.2085 34.1594C61.4741 34.6021 60.0712 35.1924 59.18 35.4268C58.9572 35.4876 58.7096 35.557 58.6436 35.583C58.5776 35.6091 58.3053 35.6785 58.0494 35.7306C57.7854 35.7827 57.5708 35.8782 57.5708 35.9303C57.5708 36.1994 60.0382 37.3799 60.6076 37.3799C60.8552 37.3799 60.9377 37.6143 60.7396 37.7792C60.3023 38.1264 58.5941 38.8122 58.2145 38.7862C57.9669 38.7688 58.0494 38.9077 58.5281 39.2896C59.4771 40.0448 60.6159 41.3296 61.342 42.4667C61.8784 43.3087 62.5716 44.8452 62.4726 44.958C62.4313 45.0014 62.093 44.8799 61.6556 44.6716C61.0532 44.3851 58.8086 44.1073 58.8086 44.3157C58.8086 44.3591 58.9902 44.5501 59.2212 44.7323C59.4441 44.9146 59.6256 45.1056 59.6339 45.1577C59.6339 45.2098 59.7906 45.4094 59.9887 45.6004C60.3683 45.9823 60.6159 46.3122 61.3998 47.5362C62.0765 48.6039 62.6706 49.9754 62.8027 50.7914C62.8357 50.9823 62.8769 51.1994 62.8934 51.2688C62.9182 51.3382 62.9017 51.4511 62.8604 51.5205C62.8027 51.616 62.6789 51.5553 62.291 51.2341C62.0187 51.0171 61.7712 50.8348 61.7381 50.8348C61.7134 50.8348 61.5153 50.7567 61.309 50.6525C60.9955 50.5049 60.1455 50.2271 59.997 50.2271C59.9722 50.2271 60.1702 50.5136 60.4426 50.8521C61.8042 52.5969 62.5881 55.3573 62.3653 57.649C62.3241 58.0657 62.2498 58.4476 62.2003 58.4997C62.093 58.6126 62.1012 58.6386 61.8289 57.866C61.4163 56.7115 60.9047 55.8261 60.0052 54.6976C59.4441 53.9945 58.231 53.1091 57.3233 52.7532C57.0757 52.649 56.8529 52.5709 56.8446 52.5709C56.8281 52.5709 56.9932 52.7966 57.216 53.0657C58.8912 55.123 59.8237 58.0136 59.6916 60.7393C59.6421 61.7462 59.378 63.2132 59.1882 63.5518C59.1305 63.6473 59.0397 63.8903 58.9902 64.0813C58.9324 64.281 58.8417 64.4893 58.7756 64.5414C58.6436 64.6542 58.6188 64.5935 58.5198 63.9858C58.3053 62.5709 57.381 60.9216 56.465 60.3226C56.2835 60.2011 56.1019 60.0622 56.0772 60.0188C56.0524 59.9754 55.9204 59.932 55.7884 59.9233C55.5491 59.906 55.5491 59.906 55.4995 60.5136C55.4418 61.156 55.3758 61.4945 55.1364 62.3365C54.9549 62.9875 54.4598 64.0032 54.2947 64.0726C54.204 64.1073 54.0307 63.9685 53.7583 63.6473C52.9001 62.6316 52.0667 62.5796 51.5055 63.5084C51.2744 63.8903 50.4822 66.3296 50.1852 67.5882C50.1109 67.9007 50.0201 68.2653 49.9789 68.4129C49.8798 68.7514 49.6323 69.8452 49.4012 70.9303C49.1702 72.0414 49.1041 72.2323 48.7741 72.7098C48.3037 73.3955 47.726 73.8035 46.4057 74.3591C46.0509 74.5066 45.6795 74.6195 45.5805 74.6108C45.4815 74.6021 45.2504 74.6369 45.0688 74.6976C44.5737 74.8625 42.0981 74.9233 41.3306 74.8018C40.3156 74.6282 39.0118 74.1941 38.3846 73.8035C37.807 73.4563 36.9818 72.5882 36.8332 72.1716C36.8002 72.0674 36.6352 71.4077 36.4866 70.7132C35.8182 67.7271 35.2901 65.6612 34.9848 64.8105C34.96 64.741 34.8775 64.5066 34.8032 64.2896C34.6052 63.7167 34.1348 63.0049 33.8707 62.8921C33.3673 62.675 32.6659 63.031 32.0305 63.8296C31.9067 63.9858 31.7664 64.116 31.7252 64.116C31.6014 64.116 31.4363 63.8816 31.2548 63.465C31.1723 63.274 31.0237 62.9441 30.933 62.7271C30.7349 62.2671 30.4213 60.8001 30.4213 60.3053C30.4213 60.1143 30.3883 59.9407 30.3471 59.9146C30.2728 59.8626 29.7694 60.0362 29.6291 60.1664C29.5714 60.2098 29.4311 60.3313 29.299 60.4268C28.8204 60.7914 28.2923 61.5119 27.9292 62.3191C27.6156 62.9962 27.5413 63.2393 27.4258 63.9337C27.368 64.2462 27.2855 64.5066 27.2443 64.524C27.1205 64.5674 26.6501 63.3608 26.4768 62.5535C26.2375 61.4511 26.1962 61.0257 26.2292 59.8886C26.2705 58.7167 26.5098 57.3973 26.8316 56.6073C26.8894 56.4598 26.9637 56.2514 26.9967 56.1299C27.1535 55.5483 27.9539 54.1421 28.7379 53.0657C28.9607 52.7619 29.002 52.6577 28.9029 52.6577C28.7874 52.6577 27.7889 53.1698 27.3268 53.465C26.9884 53.682 26.2375 54.3678 25.8827 54.7844C25.6764 55.0188 25.4948 55.2358 25.47 55.2619C25.404 55.3313 24.9502 56.0605 24.8264 56.3035C24.4798 56.9719 24.1497 57.6837 24.1497 57.7705C24.1497 57.8313 24.0754 58.031 23.9764 58.2306C23.7206 58.7688 23.6298 58.5518 23.5886 57.3191C23.506 54.6542 24.2322 52.3105 25.6598 50.6785C25.8414 50.4789 25.9652 50.2879 25.9322 50.2532C25.8744 50.1837 24.2405 50.774 24.0259 50.9476C23.9847 50.9823 23.7536 51.1646 23.5143 51.3556C23.2832 51.5466 23.0687 51.6681 23.0439 51.6247C22.9531 51.4858 23.2502 50.3139 23.5803 49.4632C23.8526 48.7601 24.6531 47.215 24.8099 47.1021C24.8429 47.0761 24.9337 46.9285 25.0079 46.7723C25.0822 46.616 25.206 46.4598 25.272 46.4337C25.3298 46.4077 25.3875 46.3469 25.3875 46.3035C25.3875 46.1994 25.5773 45.965 26.4025 45.0882C26.7491 44.7063 27.038 44.3678 27.038 44.3157C27.038 44.0639 24.9667 44.4025 23.9269 44.8278C23.4813 45.0101 23.341 44.9667 23.4813 44.6976C23.5225 44.6108 23.7288 44.1855 23.9269 43.7514C24.6861 42.1108 25.8331 40.6612 27.5331 39.1855C27.7889 38.9598 27.8632 38.8556 27.7806 38.8296C27.7146 38.8035 27.3598 38.6994 26.9967 38.5952C26.6336 38.4823 26.2623 38.3435 26.1715 38.2914C26.0807 38.2306 25.9074 38.1612 25.7919 38.1264C25.6764 38.1004 25.4783 37.9789 25.338 37.8573C25.206 37.7358 25.0739 37.6403 25.0409 37.6403C24.8759 37.6403 24.9997 37.4841 25.206 37.4407C25.9899 37.2758 26.7574 37.0067 26.9554 36.8244C27.0214 36.7549 27.1782 36.6855 27.2938 36.6508C27.5413 36.59 28.2923 36.0692 28.3335 35.9303C28.3583 35.8695 28.0447 35.7567 27.5578 35.6438C25.6268 35.1837 23.7123 34.333 22.7964 33.5258C22.3838 33.1525 22.3838 32.9442 22.8046 33.1004C22.9284 33.1525 23.2585 33.2393 23.5308 33.3001C23.8031 33.3608 24.1415 33.4389 24.2735 33.4824C24.7191 33.6126 27.236 33.8383 27.6981 33.7949C28.185 33.7428 28.7296 33.4737 30.3471 32.458C30.5946 32.3018 30.8504 32.1716 30.9247 32.1716C30.999 32.1716 31.1063 32.1195 31.1558 32.0501C31.263 31.9199 32.0717 31.4945 32.9795 31.0952C33.2766 30.965 33.7057 30.7653 33.9285 30.6525C34.1595 30.5483 34.4896 30.4094 34.6712 30.3487C34.8527 30.2966 35.059 30.2271 35.125 30.2011C35.1911 30.1664 35.2653 30.1403 35.2901 30.1403C35.3148 30.1317 35.4469 30.0883 35.5789 30.0362C36.8002 29.5587 38.9375 29.333 39.6802 29.5935C40.0268 29.7237 40.8933 30.1056 41.1491 30.2532C42.3126 30.9129 42.8985 31.2167 43.0223 31.2167C43.1048 31.208 43.3607 31.0952 43.5835 30.9563C45.0028 30.0709 45.9766 29.6369 46.8018 29.5153C46.9833 29.4806 47.1401 29.4546 47.1484 29.4459C47.1649 29.4372 48.1964 29.5327 48.8236 29.6108Z" fill="#D4041C"/>
<path d="M37.914 33.1424C37.8893 33.1684 37.683 33.2031 37.4684 33.2118C36.8578 33.2552 34.9268 33.8802 34.5802 34.1493C34.5307 34.184 34.3079 34.3229 34.085 34.4444C33.6972 34.6528 33.07 35.0781 32.9793 35.1736C32.9545 35.1996 32.8142 35.3125 32.6739 35.4253C32.5254 35.5295 32.4016 35.651 32.4016 35.6858C32.4016 35.7205 32.6987 35.7031 33.07 35.6424C33.4331 35.5816 34.2666 35.4861 34.9268 35.4253C36.866 35.2517 37.914 35.4601 39.3994 36.3021C40.6125 36.9878 40.7858 37.1094 42.1639 38.1944L42.9726 38.8281L43.2532 38.6458C43.4017 38.5503 43.542 38.4375 43.5585 38.3941C43.5997 38.2899 45.2419 37.066 45.8113 36.7187C48.1797 35.2778 49.2194 35.1302 53.1475 35.6684C53.428 35.7031 53.5353 35.6944 53.494 35.625C53.4198 35.4948 51.9344 34.4705 51.464 34.2187C51.2577 34.1146 51.0267 33.993 50.9524 33.9496C50.1602 33.533 48.8729 33.1944 48.0311 33.1858C46.9254 33.1684 46.0589 33.4462 44.1774 34.4097L42.9643 35.0347L42.2794 34.6615C41.4129 34.184 39.9688 33.533 39.6387 33.4635C39.4902 33.4375 39.3334 33.3767 39.2839 33.342C39.2344 33.2986 38.9373 33.2292 38.6237 33.1771C37.9388 33.0729 37.9718 33.0816 37.914 33.1424Z" fill="#D4041C"/>
<path d="M31.2876 37.4913C30.1488 37.7431 29.2905 39.0712 28.9357 41.1198C28.8944 41.3542 28.8367 41.6406 28.8037 41.7448C28.7294 42.0312 28.8367 41.9965 29.3483 41.5538C29.9837 40.9983 31.5681 39.9045 31.8817 39.7917C32.4511 39.592 34.1675 39.4878 36.0738 39.5399C37.1218 39.5747 38.1121 39.6267 38.2854 39.6528C38.4586 39.6875 38.5907 39.6788 38.5907 39.6267C38.5907 39.5573 36.8907 38.6458 36.7505 38.6458C36.7257 38.6458 36.5029 38.5504 36.2636 38.4375C36.0243 38.3247 35.6282 38.1684 35.3889 38.0903C35.1495 38.0208 34.9102 37.934 34.8525 37.8906C34.803 37.8559 34.6792 37.8125 34.5884 37.7951C34.4976 37.7865 34.0685 37.6997 33.6229 37.6042C32.8967 37.4479 31.7249 37.3872 31.2876 37.4913Z" fill="#D4041C"/>
<path d="M52.9082 37.4913C52.4378 37.5521 51.0927 37.882 50.8452 37.9948C50.7131 38.0556 50.449 38.1511 50.2675 38.2118C50.086 38.2726 49.7476 38.4115 49.5166 38.5243C49.2855 38.6372 49.0709 38.7327 49.0462 38.7327C48.9224 38.7327 47.4205 39.5226 47.4205 39.5833C47.4205 39.6267 47.7671 39.6354 48.188 39.6094C49.434 39.5226 53.032 39.566 53.5931 39.6702C53.8819 39.7222 54.2863 39.8785 54.4926 40.0087C55.4993 40.6597 55.7964 40.8767 56.6051 41.5451C57.059 41.9184 57.1168 41.9444 57.1415 41.7882C57.191 41.467 56.7372 39.9132 56.3576 39.1059C56.0935 38.533 55.8789 38.2031 55.6149 37.9514C55.4086 37.7691 55.2188 37.6129 55.1858 37.6215C55.161 37.6302 54.9382 37.5868 54.6989 37.5347C54.2863 37.4393 53.4528 37.4132 52.9082 37.4913Z" fill="#D4041C"/>
<path d="M39.9111 40.7465C39.1931 41.0764 38.5082 41.467 38.5082 41.5451C38.5082 41.5972 38.7227 41.7101 38.9868 41.8056C39.4572 41.9618 40.4887 42.5521 40.7528 42.8038C40.827 42.8819 41.0003 43.0382 41.1406 43.1597C41.2892 43.2813 41.7348 43.7153 42.1391 44.132C42.5435 44.5573 42.9148 44.8958 42.9726 44.8958C43.0221 44.8958 43.2284 44.6962 43.4347 44.4618C44.4167 43.3073 46.1332 42.0313 47.0739 41.7448C47.2719 41.6927 47.4287 41.5972 47.4205 41.5538C47.404 41.4757 46.8593 41.1545 46.1084 40.7812C45.506 40.4861 44.8128 40.625 43.5585 41.2934L42.9643 41.6146L42.0401 41.1285C41.2149 40.6944 41.0746 40.6424 40.6207 40.651C40.3402 40.651 40.0266 40.6944 39.9111 40.7465Z" fill="#D4041C"/>
<path d="M33.0618 43.4548C32.6162 43.5851 32.1045 43.8194 32.0385 43.9323C32.0137 43.9757 32.1458 44.0278 32.3438 44.0538C32.5336 44.0798 32.8225 44.1319 32.9792 44.1753L33.2681 44.2535L33.3176 44.8958C33.3671 45.6163 33.4084 45.7639 33.6972 46.1805C33.887 46.441 34.2748 46.7187 34.4564 46.7187C34.5059 46.7187 34.4646 46.5538 34.3821 46.3455C34.2006 45.9375 34.1593 45.0347 34.3078 44.9305C34.5059 44.8003 35.0258 44.8871 35.4879 45.1215C36.0408 45.408 36.2306 45.6337 36.0325 45.7639C35.8097 45.9114 35.3228 45.868 35.1661 45.6771C34.968 45.4514 34.8937 45.4601 34.8277 45.7118C34.7617 45.9896 34.9928 46.4236 35.3146 46.6319C35.6282 46.8403 36.016 46.8489 36.4204 46.6753C36.8247 46.493 36.998 46.5104 37.064 46.7361C37.1796 47.092 36.4121 47.4739 35.7272 47.3871C35.5292 47.3698 35.3228 47.3958 35.2486 47.4479C35.1 47.5607 34.9102 48.533 34.9928 48.7587C35.0423 48.9062 35.0588 48.9062 35.2321 48.7326C35.4136 48.559 35.8592 48.3333 36.3214 48.1857C36.4864 48.1337 36.7092 48.1423 36.9815 48.2031C37.3116 48.2899 37.4849 48.4028 37.8728 48.8194C38.1286 49.0972 38.3431 49.3837 38.3431 49.4444C38.3431 49.5052 38.4091 49.6528 38.4917 49.7656C38.5824 49.8784 38.665 50.0521 38.698 50.1475C38.83 50.6163 38.995 51.0156 39.0693 51.0416C39.1848 51.0764 39.2756 49.9479 39.2096 49.3055C39.1766 49.0017 39.0858 48.5069 38.995 48.2031C38.9125 47.8993 38.8383 47.6389 38.8383 47.6215C38.8383 47.6041 39.0115 47.5868 39.2344 47.5868C39.8698 47.5868 39.9358 47.4653 39.5067 47.066C39.1353 46.71 38.9373 46.5712 38.4174 46.3281C38.2441 46.25 37.848 45.8594 37.4519 45.3819C36.6844 44.4531 35.8592 43.7587 35.2238 43.5069C34.7287 43.3073 33.6807 43.2812 33.0618 43.4548Z" fill="#D4041C"/>
<path d="M50.7131 43.4982C50.5068 43.5851 50.1685 43.776 49.9704 43.9149C49.5331 44.2361 48.254 45.5816 48.1054 45.8767C48.0477 45.9983 47.7506 46.2239 47.404 46.4062C46.7273 46.7621 46.0424 47.3351 46.1249 47.4739C46.1579 47.526 46.3725 47.5694 46.6036 47.5781C46.8429 47.5781 47.0492 47.5955 47.0657 47.6128C47.0739 47.6302 47.0162 47.9514 46.9254 48.3246C46.7603 48.993 46.6943 50.599 46.8099 50.9201C46.8924 51.1545 46.9832 51.0764 47.0822 50.6771C47.2142 50.1128 47.8744 48.9323 48.2292 48.6458C48.9967 48.0035 49.8219 47.9948 50.5646 48.6285C50.7379 48.7674 50.8947 48.8889 50.9194 48.8889C51.0432 48.8889 50.9112 47.5781 50.7709 47.4392C50.7461 47.4132 50.4325 47.3785 50.086 47.3785C49.3515 47.3611 48.9059 47.1614 48.9059 46.8403C48.9059 46.5104 49.0874 46.441 49.4423 46.6319C49.6238 46.7274 49.8879 46.8055 50.0364 46.8055C50.6141 46.8055 51.134 46.3368 51.134 45.816C51.134 45.5642 51.0267 45.5382 50.7214 45.7205C50.449 45.8854 50.0282 45.8854 49.8962 45.7205C49.7724 45.5555 49.7476 45.5903 50.3335 45.217C50.8782 44.8698 51.266 44.7656 51.5796 44.8958C51.7694 44.9653 51.7941 45.026 51.7941 45.4167C51.7941 45.8507 51.6539 46.2673 51.398 46.5712C51.2165 46.7882 51.3073 46.8316 51.6456 46.684C51.9592 46.5451 52.4213 46.0417 52.5451 45.7031C52.5864 45.5903 52.6194 45.217 52.6194 44.8871C52.6194 44.1927 52.6359 44.1753 53.4693 44.0712C53.7251 44.0364 53.9397 43.9844 53.9397 43.9496C53.9397 43.8542 53.3786 43.5851 52.9082 43.4548C52.314 43.2812 51.1752 43.3073 50.7131 43.4982Z" fill="#D4041C"/>
<path d="M29.0017 43.7847C28.8945 44.5226 29.2411 46.25 29.6949 47.2135C30.1818 48.2639 30.9658 49.0972 31.9478 49.592C32.5914 49.9132 33.3919 50.1649 33.3919 50.0347C33.3919 50.0173 33.1691 49.7482 32.905 49.4444C32.4016 48.8802 31.8817 48.0469 31.8075 47.6736C31.7827 47.5521 31.7002 47.2222 31.6259 46.9357C31.5517 46.658 31.4939 46.2847 31.4939 46.1198C31.4939 45.6597 31.1556 45.1476 30.5697 44.7222C30.2808 44.5139 29.8187 44.1493 29.5464 43.9236L29.0348 43.5069L29.0017 43.7847Z" fill="#D4041C"/>
<path d="M56.0852 44.1667C55.6974 44.4878 55.3013 44.783 55.2023 44.8264C54.8392 45.0087 54.5091 45.6424 54.4266 46.3108C54.2285 47.7951 53.7994 48.7066 52.8091 49.7135C52.6606 49.8611 52.5368 50.0174 52.5368 50.0521C52.5368 50.2517 53.9644 49.6875 54.6081 49.2274C55.4333 48.6372 56.0027 47.8733 56.5226 46.6319C56.7867 45.9983 57.0507 43.5938 56.8527 43.5938C56.8114 43.5938 56.4731 43.8542 56.0852 44.1667Z" fill="#D4041C"/>
<path d="M29.1008 49.184C29.1008 49.8351 29.6867 52.0573 29.959 52.4479C30.0085 52.5174 30.0993 52.6649 30.157 52.7691C30.2066 52.882 30.3056 53.0469 30.3551 53.1424C30.4376 53.2813 30.4376 53.3681 30.3468 53.5938C29.9838 54.5399 29.9507 55.9896 30.2643 57.092C30.6357 58.4028 31.3289 59.6615 32.1871 60.6163C32.6574 61.1372 33.6642 61.9618 34.0521 62.1441C35.0588 62.6129 35.0506 62.6042 35.3311 63.342C35.6282 64.1146 35.7932 64.6702 36.5689 67.4045C37.4602 70.5469 37.6582 71.0677 38.1946 71.6233C38.9951 72.474 40.6703 72.9341 42.9478 72.9341C45.8031 72.9341 47.602 72.257 48.2375 70.9549C48.3942 70.6424 48.9554 68.9236 49.1534 68.1597C49.2112 67.9427 49.302 67.6129 49.368 67.4219C49.4258 67.2309 49.5578 66.7622 49.6568 66.3802C49.8466 65.6077 50.383 63.9063 50.4738 63.7761C50.5068 63.724 50.5976 63.4722 50.6801 63.2118C50.8616 62.6042 50.8946 62.5695 51.3568 62.3872C52.6111 61.8837 54.0387 60.5469 54.8061 59.1754C55.5736 57.7952 55.8459 56.8924 55.8872 55.5729C55.9119 54.6875 55.8872 54.4965 55.7056 53.9149L55.4911 53.2552L55.7386 52.8299C56.3328 51.8056 56.7454 50.434 56.7454 49.4792C56.7454 48.9063 56.6711 48.8889 56.4153 49.4097C56.176 49.8958 55.2518 51.007 54.6163 51.5712C53.7169 52.3611 52.1407 53.4028 51.8354 53.4028C51.7694 53.4028 51.7116 53.4375 51.7116 53.4896C51.7116 53.533 51.8684 53.5764 52.0664 53.5764C52.4955 53.5764 53.1722 53.7847 53.3785 53.9844C53.461 54.0625 53.5271 54.2188 53.5271 54.3316C53.5271 54.6007 52.9247 55.3386 52.215 55.9375C51.9179 56.1892 51.6538 56.4149 51.6291 56.4497C51.5631 56.5278 49.9952 57.5695 49.9291 57.5695C49.9044 57.5695 49.6156 57.7083 49.2937 57.8646C48.9636 58.0295 48.5428 58.2379 48.353 58.316C47.9569 58.4896 47.8826 58.6458 48.2292 58.5764C48.353 58.5504 48.6583 58.507 48.9059 58.4809C50.1767 58.3247 52.1655 57.5608 52.9989 56.9011C53.1392 56.7882 53.3125 56.7014 53.3868 56.7014C53.6839 56.7014 53.5023 57.066 52.8917 57.717C52.3388 58.2986 52.116 58.4636 51.299 58.8889C50.7791 59.158 49.9869 59.5052 49.5495 59.6615C49.1039 59.809 48.7656 59.974 48.7903 60.0087C48.8481 60.1129 49.8631 60.1042 50.2262 60.0087C50.383 59.9653 50.7213 59.9045 50.9689 59.8785C51.2165 59.8611 51.5466 59.809 51.6951 59.783C51.8354 59.7483 51.9592 59.7483 51.9592 59.7743C51.9592 59.8611 51.7198 60.1042 51.5383 60.217C51.0844 60.4948 50.5563 60.7639 50.5563 60.7205C50.5563 60.6945 50.4903 60.7292 50.416 60.8073C50.3335 60.8768 50.0859 60.9896 49.8549 61.0504C49.6321 61.1024 49.401 61.1893 49.3515 61.2327C49.2937 61.2761 49.2112 61.5712 49.1534 61.8924C48.9471 63.125 48.2127 65.1736 47.9404 65.2691C47.8661 65.2952 47.7671 64.8351 47.7093 64.1667C47.635 63.2465 47.3875 61.9358 47.2472 61.6406C47.1977 61.5452 47.0161 61.4757 46.7026 61.441C45.8031 61.3368 45.6875 61.3195 45.1429 61.1285C44.491 60.8941 43.9959 60.4601 43.8638 60.0087C43.8226 59.8351 43.7896 59.4011 43.8061 59.0452L43.8308 58.3941L44.7386 57.6823C45.2419 57.2917 45.6875 56.9618 45.7371 56.9618C45.7866 56.9618 45.9516 56.875 46.1084 56.7622C46.5128 56.4757 47.1317 56.3108 47.7671 56.3281L48.32 56.3368L48.452 55.9375C48.6666 55.3125 48.7161 53.507 48.5428 52.6997C48.3777 51.9358 48.0311 51.0417 47.9734 51.2326C47.9486 51.3021 47.9074 51.6927 47.8826 52.1007C47.8248 52.9254 47.6185 53.7847 47.2802 54.5486C47.0491 55.0868 46.9831 55.1302 46.7603 54.9219C46.5705 54.7483 45.8443 54.6267 45.4565 54.7049C45.2914 54.7396 44.9366 54.8438 44.6808 54.9479C44.425 55.0434 44.2022 55.1042 44.1774 55.0868C44.1609 55.0695 43.9216 55.1736 43.641 55.3125C43.3604 55.4601 43.0716 55.5729 43.0056 55.5729C42.9313 55.5729 42.6508 55.4688 42.3702 55.3472C41.8256 55.1042 40.9013 54.7917 40.5712 54.7309C40.1256 54.6528 39.5562 54.7136 39.2509 54.8785L38.9291 55.0521L38.8053 54.8611C38.3762 54.1406 37.9553 52.3611 38.0048 51.4236C38.0048 51.3195 37.9801 51.2326 37.9388 51.2326C37.8563 51.2326 37.5179 52.066 37.5179 52.2743C37.5179 52.3611 37.4602 52.5781 37.3859 52.7604C37.1796 53.2813 37.2044 54.9219 37.4272 55.6945C37.5179 56.0243 37.6252 56.3281 37.6665 56.3715C37.7077 56.4149 37.848 56.4063 37.9801 56.3542C38.1203 56.2934 38.3927 56.2761 38.632 56.3108C39.0941 56.3715 40.3732 56.9879 40.827 57.3698C40.9921 57.5 41.2314 57.691 41.3634 57.7865C42.0979 58.3247 42.3207 58.8629 42.1391 59.6962C41.9081 60.7726 41.2974 61.1719 39.4654 61.4236L38.731 61.5191L38.6155 61.8663C38.4669 62.3004 38.2606 63.6372 38.1864 64.5486C38.1616 64.9653 38.0956 65.2518 38.0378 65.2691C37.7903 65.3559 37.1714 63.7153 36.899 62.257C36.833 61.9011 36.7587 61.5278 36.734 61.4323C36.7092 61.3195 36.5772 61.2153 36.3461 61.1458C36.1481 61.0764 35.884 60.9722 35.7437 60.9115C35.6117 60.8507 35.3229 60.7205 35.1083 60.625C34.6297 60.408 33.9695 59.9393 33.9695 59.809C33.9695 59.757 34.0686 59.7396 34.2418 59.7743C34.3821 59.809 34.803 59.8698 35.1661 59.9219C36.8165 60.1476 37.6417 60.0955 36.734 59.8264C36.5277 59.7656 36.3379 59.6788 36.3131 59.6441C36.2884 59.6007 36.2141 59.566 36.1398 59.566C35.9996 59.566 34.4729 58.8281 33.9035 58.4896C33.2764 58.1077 32.4016 57.092 32.4016 56.7448C32.4016 56.6146 32.6162 56.5625 32.6657 56.6754C32.707 56.7882 33.3836 57.2222 33.5074 57.2222C33.5734 57.2222 33.6559 57.257 33.6807 57.309C33.8375 57.5695 36.0408 58.3507 36.9816 58.4722C37.2126 58.507 37.5344 58.5504 37.716 58.5764C38.1946 58.6545 38.0626 58.4462 37.5097 58.2639C36.9238 58.0729 36.5277 57.8906 36.5277 57.8125C36.5277 57.7691 36.4699 57.7431 36.3957 57.7431C36.2884 57.7431 34.9185 56.9271 34.7947 56.7882C34.77 56.7622 34.6462 56.6667 34.5059 56.5799C34.1098 56.3108 32.9463 55.217 32.6574 54.8177C32.4924 54.592 32.4016 54.375 32.4181 54.2622C32.4511 53.9844 33.1113 53.6545 33.7467 53.5764L34.2584 53.5156L33.7962 53.2899C32.5172 52.6736 30.9493 51.4063 30.2561 50.4514C30.1405 50.2951 29.9507 50.0434 29.827 49.8958C29.7032 49.7483 29.5381 49.4792 29.4556 49.3056C29.2906 48.9323 29.1008 48.8715 29.1008 49.184ZM40.8601 63.1597C41.5862 63.3941 42.4857 64.2274 42.8076 64.9653C42.9396 65.2778 42.9974 65.2691 43.1541 64.9219C43.3439 64.5139 43.7978 63.9497 44.2187 63.5938C44.4497 63.4028 45.44 63.0382 45.7371 63.0382C46.1332 63.0382 46.6861 63.2118 46.7356 63.3594C46.7603 63.4202 46.7026 63.6372 46.6035 63.8455C46.5045 64.0538 46.4302 64.2622 46.4302 64.3143C46.4302 64.3577 46.3642 64.6268 46.2734 64.9132C46.1909 65.191 45.9846 65.8854 45.8113 66.441C45.5885 67.2049 45.44 67.5434 45.2337 67.7865C45.0769 67.9688 44.9449 68.1424 44.9449 68.1771C44.9449 68.2726 44.4167 68.559 43.9546 68.7066C43.5007 68.8455 42.5847 68.8802 42.428 68.7587C42.3867 68.724 42.2134 68.6979 42.0566 68.6979C41.7018 68.7066 41.0003 68.2986 40.8848 68.0209C40.8353 67.908 40.761 67.8125 40.728 67.8125C40.6372 67.8125 40.1916 66.8056 40.1174 66.4584C40.0844 66.3195 39.8698 65.5816 39.6387 64.8177C39.3994 64.0538 39.2096 63.3941 39.2096 63.342C39.2096 63.2379 39.7873 63.0556 40.1669 63.0469C40.3319 63.0382 40.6372 63.099 40.8601 63.1597ZM47.5855 68.941C47.5855 69.8611 47.4535 70.4254 47.1647 70.6858C47.0739 70.7639 46.7273 70.8854 46.4055 70.9375C46.0754 70.9983 45.7783 71.0764 45.7288 71.1111C45.6875 71.1459 45.3162 71.2413 44.9036 71.3368C44.3342 71.4584 43.8473 71.5018 42.8406 71.4931C41.6275 71.4844 41.446 71.467 40.6125 71.2153C40.1174 71.0764 39.5315 70.9288 39.3169 70.8941C38.83 70.8247 38.4752 70.4861 38.4009 70.0087C38.3019 69.3924 38.3432 68.2639 38.4752 67.8386C38.698 67.1354 38.8218 67.1354 39.0033 67.8212C39.1024 68.1858 39.8698 69.7917 40.0513 70C40.2081 70.1823 40.3484 70.0955 40.5382 69.7049C40.7115 69.349 40.9343 69.3924 41.2314 69.8525C41.4707 70.217 41.809 70.3906 41.809 70.1389C41.809 69.9827 42.0649 69.7222 42.2299 69.7222C42.3124 69.7222 42.4775 69.8785 42.6095 70.0695C42.7333 70.2604 42.8901 70.4167 42.9561 70.4167C43.0221 70.4167 43.1954 70.2604 43.3522 70.0695C43.509 69.8785 43.6905 69.7222 43.7483 69.7222C43.8143 69.7222 43.9381 69.8351 44.0371 69.9827C44.1361 70.1215 44.2682 70.2431 44.3259 70.2431C44.392 70.2431 44.557 70.0695 44.7055 69.8525C44.8541 69.6354 45.0356 69.4618 45.1264 69.4618C45.2089 69.4618 45.3657 69.6094 45.4812 69.809C45.5968 70 45.7041 70.1563 45.7206 70.1563C45.7783 70.1563 46.5128 68.9497 46.5128 68.8629C46.5128 68.8108 46.587 68.6459 46.6778 68.4896C46.7686 68.3334 46.8428 68.1597 46.8428 68.099C46.8428 68.0469 46.9171 67.8125 47.0161 67.5781L47.1894 67.1615L47.3875 67.6302C47.5525 68.0209 47.5855 68.2379 47.5855 68.941Z" fill="#D4041C"/>
</g>
</g>
<defs>
<filter id="filter0_d" x="-921" y="-17" width="1926" height="212" filterUnits="userSpaceOnUse" color-interpolation-filters="sRGB">
<feFlood flood-opacity="0" result="BackgroundImageFix"/>
<feColorMatrix in="SourceAlpha" type="matrix" values="0 0 0 0 0 0 0 0 0 0 0 0 0 0 0 0 0 0 127 0"/>
<feOffset dy="1"/>
<feGaussianBlur stdDeviation="1"/>
<feColorMatrix type="matrix" values="0 0 0 0 0.831373 0 0 0 0 0.0156863 0 0 0 0 0.109804 0 0 0 0.25 0"/>
<feBlend mode="normal" in2="BackgroundImageFix" result="effect1_dropShadow"/>
<feBlend mode="normal" in="SourceGraphic" in2="effect1_dropShadow" result="shape"/>
</filter>
<clipPath id="clip0">
<rect width="1920" height="4888" fill="white" transform="translate(-918 -15)"/>
</clipPath>
</defs>
</svg>
