<svg width="70" height="70" viewBox="0 0 70 70" fill="none" xmlns="http://www.w3.org/2000/svg">
<g clip-path="url(#clip0)">
<rect width="1920" height="4888" transform="translate(-723 -726)" fill="white"/>
<circle cx="35" cy="35" r="34.75" stroke="#D4041C" stroke-width="0.5"/>
<path d="M29.2444 13.6089V13.8953H29.5556H29.8667V13.6089V13.3226H29.5556H29.2444V13.6089Z" fill="#D4041C"/>
<path d="M20.9611 15.0325C20.9611 16.4315 20.9611 16.4602 20.8794 16.5379C20.8017 16.6115 20.7122 16.6156 19.6 16.6279L18.4022 16.6402L18.3867 16.9511C18.3789 17.1556 18.3905 17.266 18.4178 17.2783C18.445 17.2865 19.0128 17.2906 19.6817 17.2824C20.8289 17.2701 20.9144 17.266 21.0778 17.1842C21.175 17.1351 21.2994 17.0451 21.3578 16.9797C21.5717 16.7383 21.5833 16.6361 21.5833 15.057V13.6089H21.2722H20.9611V15.0325Z" fill="#D4041C"/>
<path d="M31.1344 13.9771C31.1461 14.5416 31.1733 14.5089 30.6989 14.5089H30.2944V14.8362V15.1634H30.6989H31.0994L31.1267 15.4334C31.1422 15.5807 31.15 16.0552 31.15 16.4847L31.1422 17.2702H31.4494H31.7528L31.7644 16.2147L31.7722 15.1634H32.3167H32.8611V14.8362V14.5089H32.3167H31.7722V14.0589V13.6089H31.4494H31.1267L31.1344 13.9771Z" fill="#D4041C"/>
<path d="M41.5178 13.6703C41.3 13.7521 41.1017 13.9362 40.9889 14.1653C40.9072 14.3289 40.8917 14.423 40.8917 14.6971C40.8917 14.9916 40.9033 15.0489 41.0083 15.2248C41.2883 15.6993 41.5256 15.777 42.6883 15.777C43.4894 15.777 43.5167 15.7811 43.6139 15.8711C43.6917 15.9366 43.7228 16.0143 43.7383 16.1493C43.7578 16.317 43.7461 16.3538 43.6411 16.4766L43.5244 16.6156L42.2139 16.6279L40.9072 16.6402L40.9189 16.9552L40.9306 17.2702H42.2528C43.5128 17.2702 43.5828 17.2661 43.75 17.1843C44.17 16.9797 44.3528 16.6729 44.3528 16.1861C44.3489 15.7075 44.1817 15.4293 43.7694 15.2207C43.5828 15.1266 43.54 15.1225 42.7389 15.1225C42.28 15.1225 41.8367 15.1021 41.7589 15.0775C41.4944 15.0039 41.405 14.6275 41.5956 14.3903L41.6967 14.2634L42.8672 14.2553L44.0417 14.243L44.0533 13.9239L44.065 13.6089H42.8672C41.9494 13.613 41.6344 13.6253 41.5178 13.6703Z" fill="#D4041C"/>
<path d="M44.9944 13.6907C44.9167 13.7725 44.9167 13.8175 44.9244 15.5234L44.9361 17.2701L45.22 17.2824L45.5 17.2947L45.5039 15.8302C45.5078 15.0243 45.5078 14.3411 45.5039 14.3166C45.5 14.2757 45.7878 14.2634 46.7717 14.2552L48.0472 14.243L48.0589 13.9239L48.0705 13.6089H46.5694C45.1228 13.6089 45.0683 13.613 44.9944 13.6907Z" fill="#D4041C"/>
<path d="M49.0194 13.6948C48.8405 13.7971 48.7511 13.8953 48.6383 14.1203C48.5567 14.2757 48.5528 14.333 48.5528 15.4539V16.6238L48.6694 16.8243C48.755 16.9675 48.8483 17.0575 49 17.1474L49.2139 17.2702H50.4583H51.7028L51.7144 16.9552L51.7261 16.6402L50.5167 16.6279L49.3033 16.6156L49.2294 16.5175C49.1594 16.4316 49.1555 16.3457 49.1555 15.4293C49.1555 14.5416 49.1633 14.4271 49.2255 14.3493C49.2917 14.2634 49.3228 14.2634 50.4972 14.2512L51.7028 14.243L51.7144 13.9239L51.7261 13.6089H50.4505C49.2217 13.6089 49.1672 13.613 49.0194 13.6948Z" fill="#D4041C"/>
<path d="M22.2444 15.4007C22.2444 16.4725 22.2717 16.587 22.5711 16.902C22.8861 17.2293 23.0106 17.262 23.9983 17.2824C24.92 17.2988 25.0444 17.2743 25.1222 17.0615C25.1456 17.0043 25.1611 16.4152 25.1611 15.732V14.5089H24.85H24.5389L24.5311 15.5602L24.5194 16.6156L23.9633 16.6279C23.31 16.6402 23.1506 16.6034 22.9872 16.4111L22.8667 16.2638V15.3884V14.5089H22.5556H22.2444V15.4007Z" fill="#D4041C"/>
<path d="M26.3006 14.5743C26.0594 14.6643 25.8417 14.9384 25.7872 15.2084C25.76 15.3516 25.7483 15.9038 25.7522 16.7793L25.7639 18.1292L26.0633 18.1415L26.3628 18.1538L26.3744 16.7179C26.3861 15.3475 26.39 15.278 26.46 15.2207C26.5767 15.1307 27.8911 15.1389 27.9767 15.2289C28.07 15.327 28.0661 16.4766 27.9728 16.5584C27.9261 16.5993 27.7394 16.6197 27.2728 16.6279L26.635 16.6402L26.6467 16.9552L26.6583 17.2702H27.3C28.0117 17.2661 28.1594 17.2333 28.3772 17.0329C28.6261 16.8038 28.6611 16.6647 28.6611 15.8875C28.6611 15.1348 28.6417 15.0366 28.4317 14.7871C28.2333 14.5457 28.0622 14.5089 27.2067 14.513C26.6544 14.513 26.4211 14.5293 26.3006 14.5743Z" fill="#D4041C"/>
<path d="M29.2444 15.8997V17.2947L29.5478 17.2824L29.8472 17.2701L29.8589 15.8874L29.8667 14.5088H29.5556H29.2444V15.8997Z" fill="#D4041C"/>
<path d="M33.7283 14.6112C33.4989 14.7339 33.3511 14.9343 33.2928 15.2043C33.2383 15.4416 33.2383 16.3579 33.2928 16.5952C33.3472 16.8488 33.5572 17.1024 33.7828 17.1965C33.9383 17.2579 34.0822 17.2702 34.6111 17.2702H35.2528V16.9634V16.6566L34.6266 16.6443C33.81 16.632 33.8528 16.6729 33.8528 15.8711C33.8528 15.0816 33.8061 15.1225 34.7044 15.1225C35.4783 15.1225 35.5444 15.143 35.5444 15.4048C35.5444 15.6707 35.49 15.6911 34.7861 15.7034L34.1639 15.7157V16.0225V16.3293H34.825C35.4355 16.3252 35.5016 16.3211 35.6728 16.2311C36.0033 16.0634 36.1861 15.6666 36.1239 15.2493C36.0772 14.9221 35.84 14.6357 35.5522 14.5498C35.4744 14.5293 35.0739 14.5089 34.6655 14.5089C33.9539 14.5089 33.9189 14.513 33.7283 14.6112Z" fill="#D4041C"/>
<path d="M37.1116 14.5784C36.8783 14.6643 36.6489 14.9466 36.5944 15.2166C36.5711 15.3434 36.5594 15.8057 36.5633 16.3497L36.575 17.2702H36.8666H37.1583L37.1777 16.2843C37.1933 15.5398 37.2089 15.282 37.2516 15.233C37.2944 15.1757 37.4189 15.1634 38.0877 15.1552L38.8694 15.143L38.8811 14.8239L38.8927 14.5089L38.0839 14.513C37.4694 14.513 37.2361 14.5293 37.1116 14.5784Z" fill="#D4041C"/>
<path d="M45.8033 15.3843C45.7839 15.8179 45.6828 15.7811 46.795 15.7688L47.775 15.7566L47.7867 15.4375L47.7983 15.1225H46.8067H45.8189L45.8033 15.3843Z" fill="#D4041C"/>
<path d="M25.4994 19.5896C25.445 19.6878 25.3011 19.9496 25.1805 20.1746C25.0561 20.3996 24.9083 20.6737 24.8461 20.7882C24.7878 20.8987 24.6828 21.095 24.6089 21.2219C24.5389 21.3528 24.4455 21.5164 24.4067 21.59C24.1772 22.0155 23.3878 23.4513 22.7578 24.5927C22.3611 25.3126 21.91 26.1308 21.7583 26.4131C20.8211 28.1312 20.3933 28.9085 20.3 29.0721C20.2417 29.1744 20.1483 29.338 20.0939 29.4403C19.9617 29.6939 18.5344 32.2956 17.6711 33.8583C17.5155 34.1406 17.3017 34.5333 17.1928 34.7378C17.0839 34.9383 16.9517 35.1796 16.905 35.2696C16.2128 36.505 15.5789 37.6955 15.5828 37.7446C15.5867 37.7773 15.7305 38.0636 15.9055 38.3786C16.0805 38.6936 16.2905 39.07 16.3722 39.2172C16.45 39.3645 16.6172 39.6672 16.7417 39.8922C17.3522 41.0008 18.5733 43.2262 19.1528 44.2898C19.3939 44.7275 19.7244 45.3371 19.8917 45.6398C20.0589 45.9425 20.3194 46.4129 20.4672 46.6829C20.615 46.9529 21.175 47.9756 21.7117 48.9533C22.2483 49.931 22.7461 50.8474 22.8239 50.9824C22.9017 51.1214 22.9911 51.2892 23.0261 51.3505C23.0611 51.416 23.2089 51.6819 23.3528 51.9396C23.4967 52.1973 23.6561 52.4919 23.7105 52.5941C23.9244 52.995 25.0211 54.9995 25.1222 55.1713C25.1805 55.2736 25.3128 55.5068 25.4139 55.695L25.6005 56.0304H35.6378H45.675L45.9083 55.609C46.0328 55.38 46.3244 54.8522 46.5539 54.435C46.7833 54.0177 47.0089 53.6046 47.0555 53.5146C47.1022 53.4246 47.2344 53.1832 47.3472 52.9828C47.7711 52.2219 47.9967 51.8128 48.4944 50.8965C48.7744 50.3769 49.0739 49.8369 49.1517 49.6897C49.2333 49.5424 49.4005 49.2397 49.525 49.0147C49.6494 48.7897 49.8167 48.487 49.8944 48.3397C49.9761 48.1924 50.1355 47.8979 50.2522 47.6852C50.3689 47.4725 50.6917 46.8834 50.9717 46.3761C51.2478 45.8689 51.6133 45.2062 51.7805 44.9034C52.045 44.4289 52.325 43.9176 52.5778 43.4512C52.8811 42.8949 53.2078 42.2935 53.2389 42.2444C53.2583 42.2117 53.375 41.999 53.4955 41.774C53.6161 41.549 53.7717 41.2626 53.8417 41.1399C53.9117 41.0172 54.1294 40.6204 54.3278 40.2604C54.5261 39.9004 54.7789 39.4381 54.8917 39.2377C55.3505 38.4032 55.6889 37.7568 55.6889 37.7118C55.6889 37.6832 55.6461 37.5891 55.5917 37.4991C55.5411 37.4132 55.4205 37.1964 55.3272 37.0205C55.2339 36.8446 55.09 36.5828 55.0083 36.4355C54.9267 36.2882 54.7944 36.051 54.7167 35.9037C54.5728 35.6337 53.9078 34.4228 53.4917 33.6742C53.3672 33.4492 53.2233 33.1833 53.1689 33.0811C53.1144 32.9788 53.0289 32.8274 52.9783 32.7456C52.9317 32.6597 52.8889 32.582 52.8889 32.5697C52.8889 32.5574 52.8461 32.4797 52.7955 32.3938C52.6944 32.2261 52.3328 31.5716 52.1111 31.1584C51.9244 30.8107 51.4617 29.968 51.0805 29.2766C50.9133 28.9739 50.5555 28.3194 50.2833 27.8244C49.7194 26.7935 48.9689 25.4272 48.6578 24.8586C48.4089 24.4045 47.5028 22.7559 47.3589 22.4859C47.2617 22.31 47.1372 22.085 46.4139 20.7678C46.2467 20.4651 46.0405 20.0846 45.955 19.9292C45.8694 19.7696 45.7683 19.5937 45.7255 19.5283L45.6517 19.4178H35.6222H25.5928L25.4994 19.5896ZM43.9561 22.7068C44.0028 22.76 44.1117 22.9318 44.1933 23.0832C44.275 23.2386 44.4111 23.4882 44.4928 23.6395C44.5783 23.795 44.7105 24.0404 44.7922 24.1918C44.8778 24.3472 45.0994 24.7522 45.29 25.0958C45.4805 25.4354 45.7061 25.8526 45.7955 26.0163C45.9511 26.3026 46.1533 26.679 46.9 28.0289C47.0983 28.3889 47.4561 29.0434 47.6972 29.4812C47.9344 29.9189 48.2417 30.4711 48.37 30.7002C48.5022 30.9334 48.6111 31.1298 48.6111 31.1379C48.6111 31.142 48.7511 31.4038 48.9261 31.7147C49.0972 32.0297 49.28 32.357 49.3267 32.447C49.3772 32.537 49.5055 32.7742 49.6183 32.9788C49.7311 33.1792 49.8361 33.3756 49.8555 33.4083C49.9022 33.4901 50.2989 34.2142 50.3883 34.3778C50.4272 34.4515 50.5633 34.6969 50.6878 34.9301C50.8122 35.1633 50.9717 35.4537 51.0417 35.5764C51.2867 36.0142 51.7105 36.7873 51.8078 36.9673C51.8622 37.0696 51.9672 37.27 52.0489 37.4091C52.1267 37.5523 52.1889 37.6996 52.1889 37.7405C52.1889 37.7773 52.0917 37.9818 51.9711 38.1945C51.7494 38.5873 51.1311 39.7081 50.8667 40.199C50.7111 40.4895 50.5594 40.7595 50.2444 41.324C50.1317 41.5245 49.9917 41.7822 49.9294 41.8967C49.8711 42.0072 49.7622 42.2117 49.6883 42.3467C49.5094 42.6576 49.3422 42.9644 48.8055 43.9421C48.6694 44.1876 48.5139 44.4739 48.4555 44.5762C48.3972 44.6785 48.3039 44.8421 48.2494 44.9444C48.1989 45.0466 47.9928 45.423 47.7944 45.783C47.5961 46.143 47.39 46.5193 47.3394 46.6216C47.285 46.7238 47.1994 46.8793 47.145 46.9693C47.0944 47.0593 46.97 47.2802 46.8728 47.4602C46.4839 48.1802 46.1144 48.847 45.9589 49.1129C45.8889 49.2356 45.8189 49.3706 45.8033 49.4115C45.7839 49.4565 45.64 49.7183 45.4805 49.9965C45.3211 50.2747 45.1889 50.5119 45.1889 50.5201C45.1889 50.5324 45.045 50.7942 44.8739 51.1051C44.5239 51.731 44.52 51.7432 44.2011 52.3282C44.0767 52.5532 43.9483 52.7619 43.9133 52.7905C43.8667 52.8273 42.1478 52.8396 35.6261 52.8396C31.0994 52.8396 27.3778 52.8232 27.3583 52.8069C27.3117 52.7741 27.1794 52.541 26.6272 51.5305C26.425 51.1583 26.1605 50.6715 26.0361 50.4465C25.9117 50.2215 25.7172 49.8615 25.6005 49.6488C25.4839 49.436 25.375 49.2315 25.3555 49.1988C25.2505 49.0188 24.9667 48.4992 24.8811 48.3397C24.8267 48.2374 24.6944 48.0002 24.5894 47.8079C24.01 46.7688 23.1311 45.1612 22.9522 44.8216C22.8978 44.7194 22.8278 44.5925 22.7928 44.5353C22.7578 44.478 22.6683 44.3185 22.5944 44.1794C22.5205 44.0403 22.3728 43.7744 22.2678 43.5862C22.1628 43.398 22.0344 43.1649 21.9839 43.0626C21.9294 42.9603 21.8283 42.7762 21.7583 42.6535C21.6883 42.5308 21.4861 42.1626 21.3111 41.8354C21.1322 41.5081 20.9222 41.1276 20.8405 40.9845C20.755 40.8413 20.6889 40.7145 20.6889 40.7022C20.6889 40.6899 20.6344 40.5836 20.5644 40.469C20.4983 40.3545 20.4011 40.1786 20.3467 40.0763C20.2961 39.974 20.2144 39.8268 20.1639 39.749C20.0861 39.6181 19.8333 39.16 19.4444 38.44C19.3667 38.2927 19.2539 38.0923 19.1994 37.99C19.1411 37.8877 19.0944 37.7732 19.0944 37.7282C19.0944 37.6627 19.6078 36.6769 19.8605 36.2555C19.915 36.1696 19.9967 36.0223 20.0433 35.9282C20.0939 35.8383 20.2339 35.5764 20.3583 35.3514C20.6422 34.8401 21.1205 33.9647 21.3111 33.6129C21.4822 33.2897 21.6883 32.9174 21.7389 32.8356C21.7583 32.8029 21.8244 32.6802 21.8867 32.5697C21.945 32.4552 22.1317 32.1197 22.2989 31.817C22.4661 31.5143 22.6333 31.2075 22.6722 31.142C22.7111 31.0725 22.8083 30.8966 22.8861 30.7493C22.9678 30.602 23.1078 30.3443 23.1972 30.1766C23.2905 30.0089 23.4967 29.6284 23.6561 29.338C23.9555 28.8021 23.9867 28.7407 24.3678 28.0576C24.4844 27.8489 24.5778 27.6689 24.5778 27.6567C24.5778 27.6485 24.6205 27.5708 24.6672 27.4849C24.7178 27.403 24.8033 27.2517 24.8578 27.1494C24.9122 27.0471 25.0444 26.814 25.1455 26.6258C25.2505 26.4376 25.3633 26.2331 25.3944 26.1758C25.4255 26.1144 25.5111 25.9713 25.5811 25.8485C25.6472 25.7299 25.7055 25.6195 25.7055 25.6031C25.7055 25.5867 25.7483 25.509 25.795 25.4313C25.8455 25.3536 25.9311 25.2063 25.9855 25.104C26.2461 24.6131 26.5728 24.0159 26.6039 23.975C26.6233 23.9504 26.6933 23.8236 26.7594 23.6886C26.8255 23.5577 26.9033 23.4186 26.9267 23.3859C26.9539 23.3532 26.9967 23.2672 27.0278 23.2018C27.0978 23.0463 27.2572 22.7764 27.335 22.6782C27.3855 22.6127 27.8289 22.6086 35.63 22.6086H43.8705L43.9561 22.7068Z" fill="#D4041C"/>
<path d="M32.7639 26.1676C32.1572 26.3026 31.2705 26.6135 30.695 26.8876C30.6133 26.9244 30.3489 27.0553 30.1039 27.174C29.8628 27.2967 29.6411 27.3949 29.61 27.3949C29.5789 27.3949 29.5555 27.4112 29.5555 27.4317C29.5555 27.4521 29.4622 27.5094 29.3533 27.5585C29.2405 27.6076 29.0422 27.7017 28.9139 27.7671C28.4978 27.9717 27.7511 28.2335 27.4555 28.2785C27.1755 28.3194 26.7517 28.3235 26.6778 28.2907C26.6467 28.2744 26.4911 28.2498 26.3317 28.2376C26.1722 28.2212 26.0283 28.2007 26.0089 28.1885C25.9933 28.1762 25.8961 28.1517 25.7911 28.1312C25.69 28.1107 25.4994 28.0698 25.3672 28.0371C25.0522 27.9594 24.8617 28.0126 24.6361 28.2335C24.4222 28.4421 24.3639 28.6507 24.3678 29.1334C24.3794 29.8534 24.6517 30.7084 25.0872 31.3875C25.2817 31.6943 25.7911 32.2629 26.0555 32.4715L26.1917 32.582L26.0944 32.7742C25.97 33.0279 25.62 33.486 25.3011 33.8133C25.0561 34.0669 25.0483 34.0833 25.1144 34.1569C25.1494 34.2019 25.2817 34.2878 25.4061 34.3533C25.5267 34.4187 25.6278 34.4924 25.6278 34.521C25.6278 34.5906 25.4333 34.9219 25.3944 34.9219C25.3711 34.9219 25.3555 34.9424 25.3555 34.9669C25.3555 35.0242 24.8305 35.7605 24.7411 35.8301C24.675 35.8832 24.4611 36.1696 24.4611 36.2064C24.4611 36.2146 24.5622 36.2637 24.6867 36.3169C24.8539 36.3823 25.025 36.411 25.3867 36.4273C25.6705 36.4396 25.8611 36.4641 25.8611 36.4887C25.8611 36.5132 25.795 36.6237 25.7133 36.7382C25.0794 37.6382 24.7217 38.7345 24.7839 39.5813C24.8189 40.0109 24.9705 40.5917 25.1378 40.9354C25.2739 41.2054 25.2817 41.2545 25.2972 41.6799C25.3244 42.4203 25.4139 42.7926 25.7133 43.4717C25.9428 43.983 26.18 44.3348 26.5961 44.7766C27.055 45.2593 27.195 45.378 27.5917 45.6316C27.9805 45.877 28.1867 45.9793 28.2294 45.9466C28.2489 45.9343 28.2761 45.8484 28.2917 45.7502C28.35 45.3616 28.8828 44.4739 29.0072 44.5557C29.0305 44.568 29.05 44.6662 29.05 44.7725C29.05 45.0671 29.1861 45.8075 29.2794 46.0202C29.3261 46.1225 29.3611 46.2207 29.3611 46.237C29.3611 46.2493 29.4272 46.3761 29.505 46.5152C29.6683 46.7975 29.8939 47.0716 29.96 47.0716C29.9833 47.0716 30.0455 46.8997 30.1 46.6952C30.2011 46.2779 30.3411 45.9875 30.5589 45.7502C30.7144 45.5825 30.7961 45.5621 30.8894 45.6684C30.9594 45.7502 30.9905 45.8811 31.1305 46.6829C31.3367 47.8283 31.4572 48.1556 31.85 48.5974C32.2855 49.0883 32.83 49.4401 33.565 49.706C34.1911 49.931 34.5217 49.976 35.6611 49.976C36.8005 49.976 37.1039 49.9351 37.7417 49.7101C38.2589 49.526 38.5272 49.3869 38.9667 49.076C39.7833 48.4992 40.0205 47.9715 40.2928 46.1225C40.4055 45.3534 40.7828 45.4557 41.1172 46.3475C41.1755 46.4988 41.2222 46.6543 41.2222 46.6952C41.2222 46.732 41.2533 46.8384 41.2922 46.9243L41.3622 47.0838L41.5022 46.9529C41.6694 46.8016 41.9261 46.3884 42.0039 46.1511C42.0311 46.0611 42.07 45.967 42.0855 45.9425C42.105 45.9139 42.1361 45.787 42.1594 45.6561C42.1828 45.5211 42.2178 45.333 42.2411 45.2307C42.2644 45.1284 42.2878 44.9525 42.2917 44.8421C42.2994 44.7275 42.3072 44.613 42.3072 44.5844C42.315 44.4944 42.4239 44.5312 42.4939 44.6457C42.5328 44.7112 42.5755 44.7725 42.595 44.7848C42.6844 44.8503 42.9139 45.3452 43.0111 45.6725C43.0928 45.9384 43.1083 45.967 43.1822 45.9425C43.2794 45.9098 43.8783 45.558 43.9055 45.5171C43.9172 45.5007 43.9989 45.4393 44.0922 45.378C44.3178 45.2307 44.3878 45.1693 44.6794 44.8543C45.01 44.4984 45.1111 44.3757 45.1111 44.3307C45.1111 44.3144 45.1228 44.2898 45.1422 44.2816C45.2278 44.2407 45.6361 43.488 45.7761 43.1035C45.9394 42.6658 46.0055 42.2976 46.0328 41.7126C46.0483 41.4058 46.0755 41.1685 46.1067 41.1195C46.2311 40.919 46.4372 40.334 46.4917 40.0313C46.6394 39.2009 46.5033 38.4032 46.06 37.4827C45.8733 37.0982 45.7917 36.9632 45.5894 36.7055C45.5194 36.6155 45.4611 36.5214 45.4611 36.4928C45.4611 36.46 45.605 36.4396 45.9394 36.4273C46.305 36.411 46.4644 36.3864 46.6394 36.3169C46.76 36.2678 46.8611 36.2105 46.8611 36.1901C46.8611 36.1696 46.7133 35.9732 46.5305 35.7523C46.2 35.3514 45.6944 34.611 45.6944 34.5251C45.6944 34.4842 45.7839 34.4269 46.13 34.2387C46.1883 34.206 46.2467 34.1651 46.2583 34.1447C46.27 34.1242 46.1222 33.9278 45.9278 33.7069C45.5817 33.3183 45.1889 32.7497 45.1889 32.6352C45.1889 32.6065 45.395 32.3693 45.6517 32.1034C46.27 31.4652 46.5928 30.9129 46.7989 30.1357C46.8572 29.923 46.9194 29.6898 46.9428 29.6202C46.9622 29.5507 46.9778 29.3175 46.9778 29.0966C46.9778 28.7612 46.9622 28.6712 46.8844 28.5076C46.6783 28.0821 46.3789 27.9226 45.9822 28.033C45.3211 28.213 44.135 28.3603 43.9444 28.2826C43.9133 28.2703 43.8239 28.2498 43.75 28.2417C43.5672 28.2171 43.505 28.1967 43.1433 28.0698C42.8322 27.9553 42.6844 27.8898 42.245 27.6771C42.1128 27.6117 41.965 27.538 41.9144 27.5176C41.8639 27.4971 41.7978 27.4603 41.7667 27.4399C41.6733 27.3826 40.8722 26.9858 40.845 26.9858C40.8333 26.9858 40.7322 26.9408 40.6233 26.8876C39.655 26.409 38.8344 26.1799 37.9867 26.1472C37.31 26.1226 36.5711 26.2576 35.9489 26.5194L35.6883 26.6299L35.4705 26.5562C35.35 26.5153 35.1828 26.4499 35.1011 26.4049C34.8133 26.2494 34.2883 26.1594 33.5805 26.1472C33.2189 26.139 32.8494 26.1472 32.7639 26.1676ZM38.4222 27.3744C38.5389 27.3867 38.6711 27.4153 38.7139 27.4317C38.7567 27.4521 39.0289 27.5462 39.3167 27.6444C39.6044 27.7385 39.9233 27.8612 40.0205 27.9144C40.1217 27.9676 40.2189 28.0085 40.2344 28.0085C40.2655 28.0085 40.9889 28.3685 41.1639 28.4666C41.2067 28.4912 41.3622 28.5812 41.51 28.6589C41.8094 28.8225 41.8678 28.8594 42.245 29.0925C42.3928 29.1825 42.5483 29.2807 42.595 29.3053C42.7544 29.4034 43.7189 29.3462 44.4305 29.1989C44.9089 29.1007 45.0994 29.0516 45.2161 29.0025C45.3833 28.933 45.4183 29.0025 45.2783 29.1334C45.1111 29.2889 45.115 29.2889 44.73 29.518C44.3839 29.7266 43.7228 30.0048 43.3028 30.1152C43.1978 30.1439 43.0811 30.1766 43.05 30.1889C43.0189 30.2011 42.8905 30.2339 42.77 30.2584C42.6455 30.283 42.5444 30.328 42.5444 30.3525C42.5444 30.4793 43.7072 31.0357 43.9755 31.0357C44.0922 31.0357 44.1311 31.1461 44.0378 31.2238C43.8317 31.3875 43.0267 31.7106 42.8478 31.6984C42.7311 31.6902 42.77 31.7556 42.9955 31.9356C43.4428 32.2915 43.9794 32.897 44.3217 33.4329C44.5744 33.8297 44.9011 34.5537 44.8544 34.6069C44.835 34.6274 44.6755 34.5701 44.4694 34.4719C44.1855 34.3369 43.1278 34.206 43.1278 34.3042C43.1278 34.3247 43.2133 34.4147 43.3222 34.5006C43.4272 34.5865 43.5128 34.6765 43.5167 34.701C43.5167 34.7256 43.5905 34.8196 43.6839 34.9096C43.8628 35.0896 43.9794 35.2451 44.3489 35.8219C44.6678 36.3251 44.9478 36.9714 45.01 37.3559C45.0255 37.4459 45.045 37.5482 45.0528 37.5809C45.0644 37.6136 45.0567 37.6668 45.0372 37.6996C45.01 37.7446 44.9517 37.7159 44.7689 37.5646C44.6405 37.4623 44.5239 37.3764 44.5083 37.3764C44.4967 37.3764 44.4033 37.3396 44.3061 37.2905C44.1583 37.2209 43.7578 37.09 43.6878 37.09C43.6761 37.09 43.7694 37.225 43.8978 37.3846C44.5394 38.2068 44.9089 39.5077 44.8039 40.5877C44.7844 40.784 44.7494 40.964 44.7261 40.9886C44.6755 41.0417 44.6794 41.054 44.5511 40.6899C44.3567 40.1458 44.1155 39.7286 43.6917 39.1968C43.4272 38.8654 42.8555 38.4482 42.4278 38.2804C42.3111 38.2314 42.2061 38.1945 42.2022 38.1945C42.1944 38.1945 42.2722 38.3009 42.3772 38.4277C43.1667 39.3972 43.6061 40.7595 43.5439 42.044C43.5205 42.5185 43.3961 43.2098 43.3067 43.3694C43.2794 43.4144 43.2367 43.5289 43.2133 43.6189C43.1861 43.713 43.1433 43.8112 43.1122 43.8357C43.05 43.8889 43.0383 43.8603 42.9917 43.5739C42.8905 42.9071 42.455 42.1299 42.0233 41.8476C41.9378 41.7903 41.8522 41.7249 41.8405 41.7044C41.8289 41.684 41.7667 41.6635 41.7044 41.6594C41.5917 41.6513 41.5917 41.6513 41.5683 41.9376C41.5411 42.2403 41.51 42.3999 41.3972 42.7967C41.3117 43.1035 41.0783 43.5821 41.0005 43.6148C40.9578 43.6312 40.8761 43.5657 40.7478 43.4144C40.3433 42.9358 39.9505 42.9112 39.6861 43.3489C39.5772 43.5289 39.2039 44.6784 39.0639 45.2716C39.0289 45.4189 38.9861 45.5907 38.9667 45.6602C38.92 45.8198 38.8033 46.3352 38.6944 46.8466C38.5855 47.3702 38.5544 47.4602 38.3989 47.6852C38.1772 48.0083 37.905 48.2006 37.2828 48.4624C37.1155 48.532 36.9405 48.5851 36.8939 48.5811C36.8472 48.577 36.7383 48.5933 36.6528 48.622C36.4194 48.6997 35.2528 48.7283 34.8911 48.6711C34.4128 48.5892 33.7983 48.3847 33.5028 48.2006C33.2305 48.037 32.8417 47.6279 32.7717 47.4315C32.7561 47.3825 32.6783 47.0716 32.6083 46.7443C32.2933 45.3371 32.0444 44.3635 31.9005 43.9626C31.8889 43.9298 31.85 43.8194 31.815 43.7171C31.7217 43.4471 31.5 43.1117 31.3755 43.0585C31.1383 42.9562 30.8078 43.1239 30.5083 43.5003C30.45 43.5739 30.3839 43.6353 30.3644 43.6353C30.3061 43.6353 30.2283 43.5248 30.1428 43.3285C30.1039 43.2385 30.0339 43.083 29.9911 42.9808C29.8978 42.764 29.75 42.0726 29.75 41.8394C29.75 41.7494 29.7344 41.6676 29.715 41.6553C29.68 41.6308 29.4428 41.7126 29.3767 41.774C29.3494 41.7944 29.2833 41.8517 29.2211 41.8967C28.9955 42.0685 28.7467 42.4081 28.5755 42.7885C28.4278 43.1076 28.3928 43.2221 28.3383 43.5494C28.3111 43.6967 28.2722 43.8194 28.2528 43.8276C28.1944 43.848 27.9728 43.2794 27.8911 42.8989C27.7783 42.3794 27.7589 42.179 27.7744 41.6431C27.7939 41.0908 27.9067 40.469 28.0583 40.0968C28.0855 40.0272 28.1205 39.929 28.1361 39.8718C28.21 39.5977 28.5872 38.935 28.9567 38.4277C29.0617 38.2845 29.0811 38.2354 29.0344 38.2354C28.98 38.2354 28.5094 38.4768 28.2917 38.6159C28.1322 38.7182 27.7783 39.0413 27.6111 39.2377C27.5139 39.3481 27.4283 39.4504 27.4167 39.4627C27.3855 39.4954 27.1717 39.839 27.1133 39.9536C26.95 40.2686 26.7944 40.604 26.7944 40.6449C26.7944 40.6736 26.7594 40.7676 26.7128 40.8617C26.5922 41.1154 26.5494 41.0131 26.53 40.4322C26.4911 39.1763 26.8333 38.0718 27.5061 37.3027C27.5917 37.2087 27.65 37.1187 27.6344 37.1023C27.6072 37.0696 26.8372 37.3477 26.7361 37.4296C26.7167 37.4459 26.6078 37.5318 26.495 37.6218C26.3861 37.7118 26.285 37.7691 26.2733 37.7486C26.2305 37.6832 26.3705 37.1309 26.5261 36.73C26.6544 36.3987 27.0317 35.6705 27.1055 35.6173C27.1211 35.6051 27.1639 35.5355 27.1989 35.4619C27.2339 35.3883 27.2922 35.3146 27.3233 35.3024C27.3505 35.2901 27.3778 35.2614 27.3778 35.241C27.3778 35.1919 27.4672 35.0815 27.8561 34.6683C28.0194 34.4883 28.1555 34.3287 28.1555 34.3042C28.1555 34.1856 27.1794 34.3451 26.6894 34.5456C26.4794 34.6315 26.4133 34.611 26.4794 34.4842C26.4989 34.4433 26.5961 34.2428 26.6894 34.0383C27.0472 33.2651 27.5878 32.582 28.3889 31.8865C28.5094 31.7802 28.5444 31.7311 28.5055 31.7188C28.4744 31.7066 28.3072 31.6575 28.1361 31.6084C27.965 31.5552 27.79 31.4897 27.7472 31.4652C27.7044 31.4366 27.6228 31.4038 27.5683 31.3875C27.5139 31.3752 27.4205 31.3179 27.3544 31.2607C27.2922 31.2034 27.23 31.1584 27.2144 31.1584C27.1367 31.1584 27.195 31.0848 27.2922 31.0643C27.6617 30.9866 28.0233 30.8598 28.1167 30.7739C28.1478 30.7411 28.2217 30.7084 28.2761 30.692C28.3928 30.6634 28.7467 30.418 28.7661 30.3525C28.7778 30.3239 28.63 30.2707 28.4005 30.2175C27.4905 30.0007 26.5883 29.5998 26.1567 29.2194C25.9622 29.0434 25.9622 28.9453 26.1605 29.0189C26.2189 29.0434 26.3744 29.0844 26.5028 29.113C26.6311 29.1416 26.7905 29.1784 26.8528 29.1989C27.0628 29.2603 28.2489 29.3666 28.4667 29.3462C28.6961 29.3216 28.9528 29.1948 29.715 28.7162C29.8317 28.6425 29.9522 28.5812 29.9872 28.5812C30.0222 28.5812 30.0728 28.5566 30.0961 28.5239C30.1467 28.4626 30.5278 28.2621 30.9555 28.0739C31.0955 28.0126 31.2978 27.9185 31.4028 27.8653C31.5117 27.8162 31.6672 27.7508 31.7528 27.7221C31.8383 27.6976 31.9355 27.6649 31.9667 27.6526C31.9978 27.6362 32.0328 27.6239 32.0444 27.6239C32.0561 27.6199 32.1183 27.5994 32.1805 27.5749C32.7561 27.3499 33.7633 27.2435 34.1133 27.3662C34.2767 27.4276 34.685 27.6076 34.8055 27.6771C35.3539 27.988 35.63 28.1312 35.6883 28.1312C35.7272 28.1271 35.8478 28.0739 35.9528 28.0085C36.6217 27.5912 37.0805 27.3867 37.4694 27.3294C37.555 27.313 37.6289 27.3008 37.6328 27.2967C37.6405 27.2926 38.1267 27.3376 38.4222 27.3744Z" fill="#D4041C"/>
<path d="M33.2811 28.6875C33.2694 28.6998 33.1722 28.7162 33.0711 28.7203C32.7833 28.7407 31.8733 29.0353 31.71 29.1621C31.6867 29.1784 31.5817 29.2439 31.4767 29.3012C31.2939 29.3993 30.9983 29.5998 30.9555 29.6448C30.9439 29.6571 30.8778 29.7102 30.8117 29.7634C30.7417 29.8125 30.6833 29.8698 30.6833 29.8861C30.6833 29.9025 30.8233 29.8943 30.9983 29.8657C31.1694 29.837 31.5622 29.792 31.8733 29.7634C32.7872 29.6816 33.2811 29.7798 33.9811 30.1766C34.5528 30.4998 34.6344 30.557 35.2839 31.0684L35.665 31.367L35.7972 31.2811C35.8672 31.2361 35.9333 31.1829 35.9411 31.1625C35.9605 31.1134 36.7344 30.5366 37.0028 30.3729C38.1189 29.6939 38.6089 29.6243 40.46 29.878C40.5922 29.8943 40.6428 29.8902 40.6233 29.8575C40.5883 29.7961 39.8883 29.3134 39.6666 29.1948C39.5694 29.1457 39.4605 29.0884 39.4255 29.068C39.0522 28.8716 38.4455 28.7121 38.0489 28.708C37.5278 28.6998 37.1194 28.8307 36.2328 29.2848L35.6611 29.5793L35.3383 29.4034C34.93 29.1784 34.2494 28.8716 34.0939 28.8389C34.0239 28.8266 33.95 28.798 33.9267 28.7816C33.9033 28.7612 33.7633 28.7284 33.6155 28.7039C33.2928 28.6548 33.3083 28.6589 33.2811 28.6875Z" fill="#D4041C"/>
<path d="M30.1583 30.737C29.6216 30.8557 29.2172 31.4816 29.05 32.447C29.0305 32.5574 29.0033 32.6924 28.9878 32.7415C28.9528 32.8765 29.0033 32.8602 29.2444 32.6515C29.5439 32.3897 30.2905 31.8743 30.4383 31.8211C30.7066 31.727 31.5155 31.6779 32.4139 31.7025C32.9078 31.7188 33.3744 31.7434 33.4561 31.7557C33.5378 31.772 33.6 31.7679 33.6 31.7434C33.6 31.7107 32.7989 31.2811 32.7328 31.2811C32.7211 31.2811 32.6161 31.2361 32.5033 31.1829C32.3905 31.1298 32.2039 31.0561 32.0911 31.0193C31.9783 30.9866 31.8655 30.9457 31.8383 30.9252C31.815 30.9089 31.7566 30.8884 31.7139 30.8802C31.6711 30.8761 31.4689 30.8352 31.2589 30.7902C30.9166 30.7166 30.3644 30.688 30.1583 30.737Z" fill="#D4041C"/>
<path d="M40.3472 30.7371C40.1256 30.7657 39.4917 30.9211 39.375 30.9743C39.3128 31.003 39.1883 31.048 39.1028 31.0766C39.0172 31.1052 38.8578 31.1707 38.7489 31.2239C38.64 31.277 38.5389 31.322 38.5272 31.322C38.4689 31.322 37.7611 31.6943 37.7611 31.7229C37.7611 31.7434 37.9245 31.7475 38.1228 31.7352C38.71 31.6943 40.4056 31.7147 40.67 31.7638C40.8061 31.7884 40.9967 31.862 41.0939 31.9234C41.5683 32.2302 41.7083 32.3325 42.0895 32.6474C42.3033 32.8233 42.3306 32.8356 42.3422 32.762C42.3656 32.6106 42.1517 31.8784 41.9728 31.4979C41.8483 31.2279 41.7472 31.0725 41.6228 30.9539C41.5256 30.868 41.4361 30.7943 41.4206 30.7984C41.4089 30.8025 41.3039 30.7821 41.1911 30.7575C40.9967 30.7125 40.6039 30.7002 40.3472 30.7371Z" fill="#D4041C"/>
<path d="M34.2222 32.2711C33.8839 32.4265 33.5611 32.6106 33.5611 32.6475C33.5611 32.672 33.6622 32.7252 33.7867 32.7702C34.0083 32.8438 34.4944 33.122 34.6189 33.2406C34.6539 33.2774 34.7355 33.3511 34.8017 33.4083C34.8717 33.4656 35.0817 33.6702 35.2722 33.8665C35.4628 34.067 35.6378 34.2265 35.665 34.2265C35.6883 34.2265 35.7855 34.1324 35.8828 34.022C36.3455 33.4779 37.1544 32.8765 37.5978 32.7415C37.6911 32.717 37.765 32.672 37.7611 32.6515C37.7533 32.6147 37.4967 32.4634 37.1428 32.2875C36.8589 32.1484 36.5322 32.2138 35.9411 32.5288L35.6611 32.6802L35.2255 32.4511C34.8367 32.2466 34.7705 32.222 34.5567 32.2261C34.4244 32.2261 34.2767 32.2466 34.2222 32.2711Z" fill="#D4041C"/>
<path d="M30.9944 33.5474C30.7844 33.6088 30.5433 33.7192 30.5122 33.7724C30.5005 33.7928 30.5628 33.8174 30.6561 33.8297C30.7455 33.8419 30.8817 33.8665 30.9555 33.8869L31.0917 33.9238L31.115 34.2265C31.1383 34.566 31.1578 34.6355 31.2939 34.8319C31.3833 34.9546 31.5661 35.0855 31.6517 35.0855C31.675 35.0855 31.6555 35.0078 31.6167 34.9096C31.5311 34.7174 31.5117 34.2919 31.5817 34.2428C31.675 34.1815 31.92 34.2224 32.1378 34.3328C32.3983 34.4678 32.4878 34.5742 32.3944 34.6355C32.2894 34.7051 32.06 34.6846 31.9861 34.5946C31.8928 34.4883 31.8578 34.4924 31.8267 34.611C31.7955 34.7419 31.9044 34.9464 32.0561 35.0446C32.2039 35.1428 32.3867 35.1469 32.5772 35.0651C32.7678 34.9792 32.8494 34.9874 32.8805 35.0937C32.935 35.2614 32.5733 35.4414 32.2505 35.4005C32.1572 35.3923 32.06 35.4046 32.025 35.4292C31.955 35.4823 31.8655 35.9405 31.9044 36.0469C31.9278 36.1164 31.9355 36.1164 32.0172 36.0346C32.1028 35.9528 32.3128 35.8464 32.5305 35.7769C32.6083 35.7523 32.7133 35.7564 32.8417 35.7851C32.9972 35.826 33.0789 35.8791 33.2617 36.0755C33.3822 36.2064 33.4833 36.3414 33.4833 36.37C33.4833 36.3987 33.5144 36.4682 33.5533 36.5214C33.5961 36.5746 33.635 36.6564 33.6505 36.7014C33.7128 36.9223 33.7905 37.1105 33.8255 37.1227C33.88 37.1391 33.9228 36.6073 33.8917 36.3046C33.8761 36.1614 33.8333 35.9282 33.7905 35.7851C33.7517 35.6419 33.7167 35.5192 33.7167 35.511C33.7167 35.5028 33.7983 35.4946 33.9033 35.4946C34.2028 35.4946 34.2339 35.4373 34.0317 35.2492C33.8567 35.0814 33.7633 35.016 33.5183 34.9014C33.4367 34.8646 33.25 34.6805 33.0633 34.4556C32.7017 34.0178 32.3128 33.6906 32.0133 33.5719C31.78 33.4779 31.2861 33.4656 30.9944 33.5474Z" fill="#D4041C"/>
<path d="M39.3128 33.5678C39.2156 33.6087 39.0561 33.6987 38.9628 33.7642C38.7567 33.9156 38.1539 34.5496 38.0839 34.6887C38.0567 34.746 37.9167 34.8523 37.7533 34.9383C37.4345 35.106 37.1117 35.376 37.1506 35.4414C37.1661 35.466 37.2672 35.4864 37.3761 35.4905C37.4889 35.4905 37.5861 35.4987 37.5939 35.5069C37.5978 35.5151 37.5706 35.6664 37.5278 35.8423C37.45 36.1573 37.4189 36.9141 37.4733 37.0655C37.5122 37.1759 37.555 37.1391 37.6017 36.9509C37.6639 36.685 37.975 36.1287 38.1422 35.9937C38.5039 35.691 38.8928 35.6869 39.2428 35.9855C39.3245 36.0509 39.3983 36.1082 39.41 36.1082C39.4683 36.1082 39.4061 35.4905 39.34 35.4251C39.3283 35.4128 39.1806 35.3964 39.0172 35.3964C38.6711 35.3882 38.4611 35.2942 38.4611 35.1428C38.4611 34.9873 38.5467 34.9546 38.7139 35.0446C38.7995 35.0896 38.9239 35.1264 38.9939 35.1264C39.2661 35.1264 39.5111 34.9055 39.5111 34.6601C39.5111 34.5414 39.4606 34.5292 39.3167 34.6151C39.1883 34.6928 38.99 34.6928 38.9278 34.6151C38.8695 34.5374 38.8578 34.5537 39.1339 34.3778C39.3906 34.2142 39.5733 34.1651 39.7211 34.2265C39.8106 34.2592 39.8222 34.2878 39.8222 34.4719C39.8222 34.6764 39.7561 34.8728 39.6356 35.016C39.55 35.1182 39.5928 35.1387 39.7522 35.0692C39.9 35.0037 40.1178 34.7664 40.1761 34.6069C40.1956 34.5537 40.2111 34.3778 40.2111 34.2224C40.2111 33.8951 40.2189 33.8869 40.6117 33.8378C40.7322 33.8215 40.8333 33.7969 40.8333 33.7806C40.8333 33.7356 40.5689 33.6087 40.3472 33.5474C40.0672 33.4656 39.5306 33.4778 39.3128 33.5678Z" fill="#D4041C"/>
<path d="M29.0811 33.7029C29.0305 34.0506 29.1939 34.8646 29.4078 35.3187C29.6372 35.8137 30.0067 36.2064 30.4694 36.4396C30.7728 36.591 31.15 36.7096 31.15 36.6482C31.15 36.64 31.045 36.5132 30.9206 36.3701C30.6833 36.1042 30.4383 35.7114 30.4033 35.5355C30.3917 35.4783 30.3528 35.3228 30.3178 35.1878C30.2828 35.0569 30.2556 34.881 30.2556 34.8033C30.2556 34.5865 30.0961 34.3451 29.82 34.1447C29.6839 34.0465 29.4661 33.8747 29.3378 33.7683L29.0967 33.5719L29.0811 33.7029Z" fill="#D4041C"/>
<path d="M41.8444 33.8829C41.6617 34.0342 41.475 34.1733 41.4283 34.1938C41.2572 34.2797 41.1017 34.5783 41.0628 34.8933C40.9694 35.5928 40.7672 36.0224 40.3005 36.4969C40.2305 36.5664 40.1722 36.6401 40.1722 36.6564C40.1722 36.7505 40.845 36.4846 41.1483 36.2678C41.5372 35.9896 41.8055 35.6296 42.0505 35.0447C42.175 34.746 42.2994 33.6129 42.2061 33.6129C42.1867 33.6129 42.0272 33.7356 41.8444 33.8829Z" fill="#D4041C"/>
<path d="M29.1278 36.2474C29.1278 36.5542 29.4039 37.6014 29.5322 37.7855C29.5556 37.8182 29.5983 37.8878 29.6256 37.9368C29.6489 37.99 29.6956 38.0678 29.7189 38.1128C29.7578 38.1782 29.7578 38.2191 29.715 38.3255C29.5439 38.7714 29.5283 39.4545 29.6761 39.9741C29.8511 40.5918 30.1778 41.1849 30.5822 41.6349C30.8039 41.8804 31.2783 42.269 31.4611 42.3549C31.9356 42.5758 31.9317 42.5717 32.0639 42.9194C32.2039 43.2835 32.2817 43.5453 32.6472 44.8339C33.0672 46.3148 33.1606 46.5602 33.4133 46.822C33.7906 47.2229 34.58 47.4398 35.6533 47.4398C36.9989 47.4398 37.8467 47.1207 38.1461 46.5071C38.22 46.3598 38.4844 45.5498 38.5778 45.1898C38.605 45.0876 38.6478 44.9321 38.6789 44.8421C38.7061 44.7521 38.7683 44.5312 38.815 44.3512C38.9044 43.9871 39.1572 43.1853 39.2 43.124C39.2156 43.0994 39.2583 42.9808 39.2972 42.8581C39.3828 42.5717 39.3983 42.5554 39.6161 42.4694C40.2072 42.2322 40.88 41.6022 41.2417 40.9559C41.6033 40.3054 41.7317 39.88 41.7511 39.2582C41.7628 38.8409 41.7511 38.7509 41.6656 38.4768L41.5644 38.1659L41.6811 37.9655C41.9611 37.4828 42.1556 36.8364 42.1556 36.3864C42.1556 36.1164 42.1206 36.1083 42 36.3537C41.8872 36.5828 41.4517 37.1064 41.1522 37.3723C40.7283 37.7446 39.9856 38.2355 39.8417 38.2355C39.8106 38.2355 39.7833 38.2518 39.7833 38.2764C39.7833 38.2968 39.8572 38.3173 39.9506 38.3173C40.1528 38.3173 40.4717 38.4155 40.5689 38.5096C40.6078 38.5464 40.6389 38.62 40.6389 38.6732C40.6389 38.8 40.355 39.1477 40.0206 39.43C39.8806 39.5486 39.7561 39.655 39.7444 39.6713C39.7133 39.7082 38.9744 40.1991 38.9433 40.1991C38.9317 40.1991 38.7956 40.2645 38.6439 40.3381C38.4883 40.4159 38.29 40.514 38.2006 40.5509C38.0139 40.6327 37.9789 40.7063 38.1422 40.6736C38.2006 40.6613 38.3444 40.6409 38.4611 40.6286C39.06 40.555 39.9972 40.195 40.39 39.8841C40.4561 39.8309 40.5378 39.79 40.5728 39.79C40.7128 39.79 40.6272 39.9618 40.3394 40.2686C40.0789 40.5427 39.9739 40.6204 39.5889 40.8209C39.3439 40.9477 38.9706 41.1113 38.7644 41.1849C38.5544 41.2545 38.395 41.3322 38.4067 41.3486C38.4339 41.3977 38.9122 41.3936 39.0833 41.3486C39.1572 41.3281 39.3167 41.2995 39.4333 41.2872C39.55 41.279 39.7056 41.2545 39.7756 41.2422C39.8417 41.2258 39.9 41.2258 39.9 41.2381C39.9 41.279 39.7872 41.3936 39.7017 41.4467C39.4878 41.5777 39.2389 41.7045 39.2389 41.684C39.2389 41.6717 39.2078 41.6881 39.1728 41.7249C39.1339 41.7576 39.0172 41.8108 38.9083 41.8395C38.8033 41.864 38.6944 41.9049 38.6711 41.9254C38.6439 41.9458 38.605 42.0849 38.5778 42.2363C38.4806 42.8172 38.1344 43.7826 38.0061 43.8276C37.9711 43.8399 37.9244 43.623 37.8972 43.3081C37.8622 42.8744 37.7456 42.2567 37.6794 42.1176C37.6561 42.0726 37.5706 42.0399 37.4228 42.0236C36.9989 41.9745 36.9444 41.9663 36.6878 41.8763C36.3806 41.7658 36.1472 41.5613 36.085 41.3486C36.0656 41.2668 36.05 41.0622 36.0578 40.8945L36.0694 40.5877L36.4972 40.2522C36.7344 40.0682 36.9444 39.9127 36.9678 39.9127C36.9911 39.9127 37.0689 39.8718 37.1428 39.8186C37.3333 39.6836 37.625 39.6059 37.9244 39.6141L38.185 39.6182L38.2472 39.43C38.3483 39.1355 38.3717 38.2846 38.29 37.9041C38.2122 37.5441 38.0489 37.1228 38.0217 37.2128C38.01 37.2455 37.9906 37.4296 37.9789 37.6219C37.9517 38.0105 37.8544 38.4155 37.695 38.7755C37.5861 39.0291 37.555 39.0495 37.45 38.9514C37.3606 38.8695 37.0183 38.8123 36.8356 38.8491C36.7578 38.8655 36.5906 38.9145 36.47 38.9636C36.3494 39.0086 36.2444 39.0373 36.2328 39.0291C36.225 39.0209 36.1122 39.07 35.98 39.1355C35.8478 39.205 35.7117 39.2582 35.6806 39.2582C35.6456 39.2582 35.5133 39.2091 35.3811 39.1518C35.1244 39.0373 34.6889 38.89 34.5333 38.8614C34.3233 38.8246 34.055 38.8532 33.9111 38.9309L33.7594 39.0127L33.7011 38.9227C33.4989 38.5832 33.3006 37.7446 33.3239 37.3028C33.3239 37.2537 33.3122 37.2128 33.2928 37.2128C33.2539 37.2128 33.0944 37.6055 33.0944 37.7037C33.0944 37.7446 33.0672 37.8469 33.0322 37.9328C32.935 38.1782 32.9467 38.9514 33.0517 39.3154C33.0944 39.4709 33.145 39.6141 33.1644 39.6345C33.1839 39.655 33.25 39.6509 33.3122 39.6263C33.3783 39.5977 33.5067 39.5895 33.6194 39.6059C33.8372 39.6345 34.44 39.925 34.6539 40.105C34.7317 40.1663 34.8444 40.2563 34.9067 40.3013C35.2528 40.555 35.3578 40.8086 35.2722 41.2013C35.1633 41.7086 34.8756 41.8967 34.0122 42.0154L33.6661 42.0604L33.6117 42.224C33.5417 42.4285 33.4444 43.0585 33.4094 43.4881C33.3978 43.6844 33.3667 43.8194 33.3394 43.8276C33.2228 43.8685 32.9311 43.0953 32.8028 42.4081C32.7717 42.2404 32.7367 42.0645 32.725 42.0195C32.7133 41.9663 32.6511 41.9172 32.5422 41.8845C32.4489 41.8517 32.3244 41.8026 32.2583 41.774C32.1961 41.7454 32.06 41.684 31.9589 41.639C31.7333 41.5367 31.4222 41.3158 31.4222 41.2545C31.4222 41.2299 31.4689 41.2218 31.5506 41.2381C31.6167 41.2545 31.815 41.2831 31.9861 41.3077C32.7639 41.414 33.1528 41.3895 32.725 41.2627C32.6278 41.234 32.5383 41.1931 32.5267 41.1768C32.515 41.1563 32.48 41.1399 32.445 41.1399C32.3789 41.1399 31.6594 40.7922 31.3911 40.6327C31.0956 40.4527 30.6833 39.9741 30.6833 39.8104C30.6833 39.7491 30.7844 39.7245 30.8078 39.7777C30.8272 39.8309 31.1461 40.0354 31.2044 40.0354C31.2356 40.0354 31.2744 40.0518 31.2861 40.0763C31.36 40.1991 32.3983 40.5672 32.8417 40.6245C32.9506 40.6409 33.1022 40.6613 33.1878 40.6736C33.4133 40.7104 33.3511 40.6122 33.0906 40.5263C32.8144 40.4363 32.6278 40.3504 32.6278 40.3136C32.6278 40.2931 32.6006 40.2809 32.5656 40.2809C32.515 40.2809 31.8694 39.8963 31.8111 39.8309C31.7994 39.8186 31.7411 39.7736 31.675 39.7327C31.4883 39.6059 30.94 39.0905 30.8039 38.9023C30.7261 38.7959 30.6833 38.6936 30.6911 38.6405C30.7067 38.5096 31.0178 38.3541 31.3172 38.3173L31.5583 38.2887L31.3406 38.1823C30.7378 37.8919 29.9989 37.2946 29.6722 36.8446C29.6178 36.771 29.5283 36.6523 29.47 36.5828C29.4117 36.5133 29.3339 36.3864 29.295 36.3046C29.2172 36.1287 29.1278 36.1001 29.1278 36.2474ZM34.6694 42.8335C35.0117 42.944 35.4356 43.3367 35.5872 43.6844C35.6494 43.8317 35.6767 43.8276 35.7506 43.664C35.84 43.4717 36.0539 43.2058 36.2522 43.0381C36.3611 42.9481 36.8278 42.7763 36.9678 42.7763C37.1544 42.7763 37.415 42.8581 37.4383 42.9276C37.45 42.9563 37.4228 43.0585 37.3761 43.1567C37.3294 43.2549 37.2944 43.3531 37.2944 43.3776C37.2944 43.3981 37.2633 43.5249 37.2206 43.6599C37.1817 43.7908 37.0844 44.118 37.0028 44.3798C36.8978 44.7398 36.8278 44.8994 36.7306 45.0139C36.6567 45.0998 36.5944 45.1816 36.5944 45.198C36.5944 45.243 36.3456 45.378 36.1278 45.4475C35.9139 45.513 35.4822 45.5294 35.4083 45.4721C35.3889 45.4557 35.3072 45.4435 35.2333 45.4435C35.0661 45.4475 34.7356 45.2553 34.6811 45.1244C34.6578 45.0712 34.6228 45.0262 34.6072 45.0262C34.5644 45.0262 34.3544 44.5517 34.3194 44.388C34.3039 44.3226 34.2028 43.9749 34.0939 43.6149C33.9811 43.2549 33.8917 42.944 33.8917 42.9194C33.8917 42.8703 34.1639 42.7844 34.3428 42.7803C34.4206 42.7763 34.5644 42.8049 34.6694 42.8335ZM37.8389 45.558C37.8389 45.9916 37.7767 46.2575 37.6406 46.3802C37.5978 46.4171 37.4344 46.4743 37.2828 46.4989C37.1272 46.5275 36.9872 46.5643 36.9639 46.5807C36.9444 46.5971 36.7694 46.6421 36.575 46.6871C36.3067 46.7443 36.0772 46.7648 35.6028 46.7607C35.0311 46.7566 34.9456 46.7484 34.5528 46.6298C34.3194 46.5643 34.0433 46.4948 33.9422 46.4784C33.7128 46.4457 33.5456 46.2862 33.5106 46.0612C33.4639 45.7707 33.4833 45.2389 33.5456 45.0385C33.6506 44.7071 33.7089 44.7071 33.7944 45.0303C33.8411 45.2021 34.2028 45.9589 34.2883 46.0571C34.3622 46.143 34.4283 46.1021 34.5178 45.918C34.5994 45.7503 34.7044 45.7707 34.8444 45.9875C34.9572 46.1593 35.1167 46.2412 35.1167 46.1225C35.1167 46.0489 35.2372 45.9262 35.315 45.9262C35.3539 45.9262 35.4317 45.9998 35.4939 46.0898C35.5522 46.1798 35.6261 46.2534 35.6572 46.2534C35.6883 46.2534 35.77 46.1798 35.8439 46.0898C35.9178 45.9998 36.0033 45.9262 36.0306 45.9262C36.0617 45.9262 36.12 45.9793 36.1667 46.0489C36.2133 46.1143 36.2756 46.1716 36.3028 46.1716C36.3339 46.1716 36.4117 46.0898 36.4817 45.9875C36.5517 45.8853 36.6372 45.8034 36.68 45.8034C36.7189 45.8034 36.7928 45.873 36.8472 45.9671C36.9017 46.0571 36.9522 46.1307 36.96 46.1307C36.9872 46.1307 37.3333 45.5621 37.3333 45.5212C37.3333 45.4966 37.3683 45.4189 37.4111 45.3453C37.4539 45.2716 37.4889 45.1898 37.4889 45.1612C37.4889 45.1366 37.5239 45.0262 37.5706 44.9157L37.6522 44.7194L37.7456 44.9403C37.8233 45.1244 37.8389 45.2266 37.8389 45.558Z" fill="#D4041C"/>
</g>
<defs>
<clipPath id="clip0">
<rect width="1920" height="4888" fill="white" transform="translate(-723 -726)"/>
</clipPath>
</defs>
</svg>
