<svg width="60" height="60" viewBox="0 0 60 60" fill="none" xmlns="http://www.w3.org/2000/svg">
<g clip-path="url(#clip0)">
<rect width="1920" height="4888" transform="translate(-329 -1858)" fill="white"/>
<g filter="url(#filter0_d)">
<rect x="-22" y="-273" width="1306" height="445" rx="2" fill="white"/>
<rect x="-21.75" y="-272.75" width="1305.5" height="444.5" rx="1.75" stroke="#313131" stroke-width="0.5"/>
</g>
<circle cx="30" cy="30" r="29.75" fill="white" stroke="#D4041C" stroke-width="0.5"/>
<path d="M24.2444 8.60891V8.89526H24.5556H24.8667V8.60891V8.32255H24.5556H24.2444V8.60891Z" fill="#D4041C"/>
<path d="M15.9611 10.0325C15.9611 11.4315 15.9611 11.4602 15.8794 11.5379C15.8016 11.6115 15.7122 11.6156 14.6 11.6279L13.4022 11.6402L13.3866 11.9511C13.3789 12.1556 13.3905 12.266 13.4178 12.2783C13.445 12.2865 14.0128 12.2906 14.6816 12.2824C15.8289 12.2701 15.9144 12.266 16.0778 12.1842C16.175 12.1351 16.2994 12.0451 16.3578 11.9797C16.5716 11.7383 16.5833 11.6361 16.5833 10.057V8.60888H16.2722H15.9611V10.0325Z" fill="#D4041C"/>
<path d="M26.1344 8.97706C26.1461 9.54158 26.1733 9.50886 25.6989 9.50886H25.2944V9.83612V10.1634H25.6989H26.0994L26.1267 10.4334C26.1422 10.5806 26.15 11.0552 26.15 11.4847L26.1422 12.2701H26.4494H26.7528L26.7644 11.2147L26.7722 10.1634H27.3167H27.8611V9.83612V9.50886H27.3167H26.7722V9.05887V8.60888H26.4494H26.1267L26.1344 8.97706Z" fill="#D4041C"/>
<path d="M36.5178 8.67025C36.3 8.75206 36.1017 8.93615 35.9889 9.16523C35.9072 9.32886 35.8917 9.42295 35.8917 9.69703C35.8917 9.99157 35.9033 10.0488 36.0083 10.2247C36.2883 10.6993 36.5256 10.777 37.6883 10.777C38.4894 10.777 38.5167 10.7811 38.6139 10.8711C38.6917 10.9365 38.7228 11.0143 38.7383 11.1493C38.7578 11.317 38.7461 11.3538 38.6411 11.4765L38.5244 11.6156L37.2139 11.6279L35.9072 11.6402L35.9189 11.9552L35.9306 12.2701H37.2528C38.5128 12.2701 38.5828 12.2661 38.75 12.1842C39.17 11.9797 39.3528 11.6729 39.3528 11.1861C39.3489 10.7075 39.1817 10.4293 38.7694 10.2207C38.5828 10.1266 38.54 10.1225 37.7389 10.1225C37.28 10.1225 36.8367 10.102 36.7589 10.0775C36.4944 10.0038 36.405 9.62749 36.5956 9.39023L36.6967 9.26341L37.8672 9.25523L39.0417 9.24296L39.0533 8.92388L39.065 8.60888H37.8672C36.9494 8.61298 36.6344 8.62525 36.5178 8.67025Z" fill="#D4041C"/>
<path d="M39.9944 8.6907C39.9167 8.77251 39.9167 8.81751 39.9244 10.5234L39.9361 12.2701L40.22 12.2824L40.5 12.2947L40.5039 10.8302C40.5078 10.0243 40.5078 9.34113 40.5039 9.31659C40.5 9.27568 40.7878 9.26341 41.7717 9.25522L43.0472 9.24295L43.0589 8.92387L43.0705 8.60888H41.5694C40.1228 8.60888 40.0683 8.61297 39.9944 8.6907Z" fill="#D4041C"/>
<path d="M44.0195 8.69479C43.8406 8.79706 43.7511 8.89524 43.6384 9.12023C43.5567 9.27568 43.5528 9.33295 43.5528 10.4538V11.6238L43.6695 11.8242C43.755 11.9674 43.8484 12.0574 44 12.1474L44.2139 12.2701H45.4584H46.7028L46.7145 11.9552L46.7261 11.6402L45.5167 11.6279L44.3034 11.6156L44.2295 11.5174C44.1595 11.4315 44.1556 11.3456 44.1556 10.4293C44.1556 9.54158 44.1634 9.42704 44.2256 9.34932C44.2917 9.26341 44.3228 9.26341 45.4972 9.25114L46.7028 9.24296L46.7145 8.92388L46.7261 8.60888H45.4506C44.2217 8.60888 44.1672 8.61298 44.0195 8.69479Z" fill="#D4041C"/>
<path d="M17.2444 10.4006C17.2444 11.4724 17.2717 11.587 17.5711 11.9019C17.8861 12.2292 18.0106 12.2619 18.9983 12.2824C19.92 12.2987 20.0444 12.2742 20.1222 12.0615C20.1456 12.0042 20.1611 11.4151 20.1611 10.732V9.50883H19.85H19.5389L19.5311 10.5602L19.5194 11.6156L18.9633 11.6279C18.31 11.6401 18.1506 11.6033 17.9872 11.411L17.8667 11.2638V10.3884V9.50883H17.5556H17.2444V10.4006Z" fill="#D4041C"/>
<path d="M21.3006 9.57437C21.0595 9.66436 20.8417 9.93845 20.7873 10.2084C20.76 10.3516 20.7484 10.9039 20.7523 11.7793L20.7639 13.1293L21.0634 13.1415L21.3628 13.1538L21.3745 11.7179C21.3861 10.3475 21.39 10.278 21.46 10.2207C21.5767 10.1307 22.8911 10.1389 22.9767 10.2289C23.07 10.3271 23.0661 11.4766 22.9728 11.5584C22.9261 11.5993 22.7395 11.6198 22.2728 11.6279L21.635 11.6402L21.6467 11.9552L21.6584 12.2702H22.3C23.0117 12.2661 23.1595 12.2334 23.3773 12.0329C23.6261 11.8038 23.6611 11.6648 23.6611 10.8875C23.6611 10.1348 23.6417 10.0366 23.4317 9.78709C23.2334 9.54573 23.0623 9.50891 22.2067 9.513C21.6545 9.513 21.4211 9.52937 21.3006 9.57437Z" fill="#D4041C"/>
<path d="M24.2444 10.8997V12.2947L24.5478 12.2824L24.8472 12.2701L24.8589 10.8874L24.8667 9.50885H24.5556H24.2444V10.8997Z" fill="#D4041C"/>
<path d="M28.7283 9.61113C28.4989 9.73385 28.3511 9.9343 28.2928 10.2043C28.2383 10.4416 28.2383 11.3579 28.2928 11.5952C28.3472 11.8488 28.5572 12.1024 28.7828 12.1965C28.9383 12.2579 29.0822 12.2701 29.6111 12.2701H30.2528V11.9633V11.6565L29.6267 11.6443C28.81 11.632 28.8528 11.6729 28.8528 10.8711C28.8528 10.0816 28.8061 10.1225 29.7045 10.1225C30.4783 10.1225 30.5444 10.1429 30.5444 10.4047C30.5444 10.6706 30.49 10.6911 29.7861 10.7034L29.1639 10.7156V11.0224V11.3293H29.825C30.4356 11.3252 30.5017 11.3211 30.6728 11.2311C31.0033 11.0634 31.1861 10.6666 31.1239 10.2493C31.0772 9.92203 30.84 9.63567 30.5522 9.54976C30.4744 9.52931 30.0739 9.50886 29.6656 9.50886C28.9539 9.50886 28.9189 9.51295 28.7283 9.61113Z" fill="#D4041C"/>
<path d="M32.1116 9.5784C31.8783 9.66431 31.6489 9.94657 31.5944 10.2166C31.5711 10.3434 31.5594 10.8056 31.5633 11.3497L31.575 12.2701H31.8666H32.1583L32.1777 11.2843C32.1933 10.5397 32.2089 10.282 32.2516 10.2329C32.2944 10.1757 32.4189 10.1634 33.0877 10.1552L33.8694 10.1429L33.8811 9.82385L33.8927 9.50886L33.0839 9.51295C32.4694 9.51295 32.2361 9.52931 32.1116 9.5784Z" fill="#D4041C"/>
<path d="M40.8033 10.3843C40.7839 10.818 40.6828 10.7811 41.795 10.7689L42.775 10.7566L42.7867 10.4375L42.7983 10.1225H41.8067H40.8189L40.8033 10.3843Z" fill="#D4041C"/>
<path d="M20.4994 14.5896C20.445 14.6878 20.3011 14.9496 20.1806 15.1746C20.0561 15.3996 19.9083 15.6737 19.8461 15.7882C19.7878 15.8987 19.6828 16.095 19.6089 16.2219C19.5389 16.3528 19.4456 16.5164 19.4067 16.59C19.1772 17.0155 18.3878 18.4513 17.7578 19.5927C17.3611 20.3126 16.91 21.1308 16.7583 21.4131C15.8211 23.1312 15.3933 23.9085 15.3 24.0721C15.2417 24.1744 15.1483 24.338 15.0939 24.4403C14.9617 24.6939 13.5344 27.2956 12.6711 28.8583C12.5156 29.1406 12.3017 29.5333 12.1928 29.7378C12.0839 29.9383 11.9517 30.1796 11.905 30.2696C11.2128 31.505 10.5789 32.6955 10.5828 32.7446C10.5867 32.7773 10.7306 33.0636 10.9056 33.3786C11.0806 33.6936 11.2906 34.07 11.3722 34.2172C11.45 34.3645 11.6172 34.6672 11.7417 34.8922C12.3522 36.0008 13.5733 38.2262 14.1528 39.2898C14.3939 39.7275 14.7244 40.3371 14.8917 40.6398C15.0589 40.9425 15.3194 41.4129 15.4672 41.6829C15.615 41.9529 16.175 42.9756 16.7117 43.9533C17.2483 44.931 17.7461 45.8474 17.8239 45.9824C17.9017 46.1214 17.9911 46.2892 18.0261 46.3505C18.0611 46.416 18.2089 46.6819 18.3528 46.9396C18.4967 47.1973 18.6561 47.4919 18.7106 47.5941C18.9244 47.995 20.0211 49.9995 20.1222 50.1713C20.1806 50.2736 20.3128 50.5068 20.4139 50.695L20.6006 51.0304H30.6378H40.675L40.9083 50.609C41.0328 50.38 41.3244 49.8522 41.5539 49.435C41.7833 49.0177 42.0089 48.6046 42.0556 48.5146C42.1022 48.4246 42.2344 48.1832 42.3472 47.9828C42.7711 47.2219 42.9967 46.8128 43.4945 45.8965C43.7745 45.3769 44.0739 44.8369 44.1517 44.6897C44.2333 44.5424 44.4006 44.2397 44.525 44.0147C44.6495 43.7897 44.8167 43.487 44.8945 43.3397C44.9761 43.1924 45.1356 42.8979 45.2522 42.6852C45.3689 42.4725 45.6917 41.8834 45.9717 41.3761C46.2478 40.8689 46.6133 40.2062 46.7806 39.9034C47.045 39.4289 47.325 38.9176 47.5778 38.4512C47.8811 37.8949 48.2078 37.2935 48.2389 37.2444C48.2583 37.2117 48.375 36.999 48.4956 36.774C48.6161 36.549 48.7717 36.2626 48.8417 36.1399C48.9117 36.0172 49.1295 35.6204 49.3278 35.2604C49.5261 34.9004 49.7789 34.4381 49.8917 34.2377C50.3506 33.4032 50.6889 32.7568 50.6889 32.7118C50.6889 32.6832 50.6461 32.5891 50.5917 32.4991C50.5411 32.4132 50.4206 32.1964 50.3272 32.0205C50.2339 31.8446 50.09 31.5828 50.0083 31.4355C49.9267 31.2882 49.7945 31.051 49.7167 30.9037C49.5728 30.6337 48.9078 29.4228 48.4917 28.6742C48.3672 28.4492 48.2233 28.1833 48.1689 28.0811C48.1145 27.9788 48.0289 27.8274 47.9783 27.7456C47.9317 27.6597 47.8889 27.582 47.8889 27.5697C47.8889 27.5574 47.8461 27.4797 47.7956 27.3938C47.6945 27.2261 47.3328 26.5716 47.1111 26.1584C46.9245 25.8107 46.4617 24.968 46.0806 24.2766C45.9133 23.9739 45.5556 23.3194 45.2833 22.8244C44.7195 21.7935 43.9689 20.4272 43.6578 19.8586C43.4089 19.4045 42.5028 17.7559 42.3589 17.4859C42.2617 17.31 42.1372 17.085 41.4139 15.7678C41.2467 15.4651 41.0406 15.0846 40.955 14.9292C40.8694 14.7696 40.7683 14.5937 40.7256 14.5283L40.6517 14.4178H30.6222H20.5928L20.4994 14.5896ZM38.9561 17.7068C39.0028 17.76 39.1117 17.9318 39.1933 18.0832C39.275 18.2386 39.4111 18.4882 39.4928 18.6395C39.5783 18.795 39.7106 19.0404 39.7922 19.1918C39.8778 19.3472 40.0994 19.7522 40.29 20.0958C40.4806 20.4354 40.7061 20.8526 40.7956 21.0163C40.9511 21.3026 41.1533 21.679 41.9 23.0289C42.0983 23.3889 42.4561 24.0434 42.6972 24.4812C42.9345 24.9189 43.2417 25.4711 43.37 25.7002C43.5022 25.9334 43.6111 26.1297 43.6111 26.1379C43.6111 26.142 43.7511 26.4038 43.9261 26.7147C44.0972 27.0297 44.28 27.357 44.3267 27.447C44.3772 27.537 44.5056 27.7742 44.6183 27.9788C44.7311 28.1792 44.8361 28.3756 44.8556 28.4083C44.9022 28.4901 45.2989 29.2142 45.3883 29.3778C45.4272 29.4515 45.5633 29.6969 45.6878 29.9301C45.8122 30.1633 45.9717 30.4537 46.0417 30.5764C46.2867 31.0142 46.7106 31.7873 46.8078 31.9673C46.8622 32.0696 46.9672 32.27 47.0489 32.4091C47.1267 32.5523 47.1889 32.6996 47.1889 32.7405C47.1889 32.7773 47.0917 32.9818 46.9711 33.1945C46.7495 33.5873 46.1311 34.7081 45.8667 35.199C45.7111 35.4895 45.5595 35.7595 45.2445 36.324C45.1317 36.5245 44.9917 36.7822 44.9295 36.8967C44.8711 37.0072 44.7622 37.2117 44.6883 37.3467C44.5095 37.6576 44.3422 37.9644 43.8056 38.9421C43.6695 39.1876 43.5139 39.4739 43.4556 39.5762C43.3972 39.6785 43.3039 39.8421 43.2495 39.9444C43.1989 40.0466 42.9928 40.423 42.7945 40.783C42.5961 41.143 42.39 41.5193 42.3395 41.6216C42.285 41.7238 42.1994 41.8793 42.145 41.9693C42.0944 42.0593 41.97 42.2802 41.8728 42.4602C41.4839 43.1802 41.1145 43.847 40.9589 44.1129C40.8889 44.2356 40.8189 44.3706 40.8033 44.4115C40.7839 44.4565 40.64 44.7183 40.4806 44.9965C40.3211 45.2747 40.1889 45.5119 40.1889 45.5201C40.1889 45.5324 40.045 45.7942 39.8739 46.1051C39.5239 46.731 39.52 46.7432 39.2011 47.3282C39.0767 47.5532 38.9483 47.7619 38.9133 47.7905C38.8667 47.8273 37.1478 47.8396 30.6261 47.8396C26.0994 47.8396 22.3778 47.8232 22.3583 47.8069C22.3117 47.7741 22.1794 47.541 21.6272 46.5305C21.425 46.1583 21.1606 45.6715 21.0361 45.4465C20.9117 45.2215 20.7172 44.8615 20.6006 44.6488C20.4839 44.436 20.375 44.2315 20.3556 44.1988C20.2506 44.0188 19.9667 43.4992 19.8811 43.3397C19.8267 43.2374 19.6944 43.0002 19.5894 42.8079C19.01 41.7688 18.1311 40.1612 17.9522 39.8216C17.8978 39.7194 17.8278 39.5925 17.7928 39.5353C17.7578 39.478 17.6683 39.3185 17.5944 39.1794C17.5206 39.0403 17.3728 38.7744 17.2678 38.5862C17.1628 38.398 17.0344 38.1649 16.9839 38.0626C16.9294 37.9603 16.8283 37.7762 16.7583 37.6535C16.6883 37.5308 16.4861 37.1626 16.3111 36.8354C16.1322 36.5081 15.9222 36.1276 15.8406 35.9845C15.755 35.8413 15.6889 35.7145 15.6889 35.7022C15.6889 35.6899 15.6344 35.5836 15.5644 35.469C15.4983 35.3545 15.4011 35.1786 15.3467 35.0763C15.2961 34.974 15.2144 34.8268 15.1639 34.749C15.0861 34.6181 14.8333 34.16 14.4444 33.44C14.3667 33.2927 14.2539 33.0923 14.1994 32.99C14.1411 32.8877 14.0944 32.7732 14.0944 32.7282C14.0944 32.6627 14.6078 31.6769 14.8606 31.2555C14.915 31.1696 14.9967 31.0223 15.0433 30.9282C15.0939 30.8383 15.2339 30.5764 15.3583 30.3514C15.6422 29.8401 16.1206 28.9647 16.3111 28.6129C16.4822 28.2897 16.6883 27.9174 16.7389 27.8356C16.7583 27.8029 16.8244 27.6802 16.8867 27.5697C16.945 27.4552 17.1317 27.1197 17.2989 26.817C17.4661 26.5143 17.6333 26.2075 17.6722 26.142C17.7111 26.0725 17.8083 25.8966 17.8861 25.7493C17.9678 25.602 18.1078 25.3443 18.1972 25.1766C18.2906 25.0089 18.4967 24.6284 18.6561 24.338C18.9556 23.8021 18.9867 23.7407 19.3678 23.0576C19.4844 22.8489 19.5778 22.6689 19.5778 22.6567C19.5778 22.6485 19.6206 22.5708 19.6672 22.4849C19.7178 22.403 19.8033 22.2517 19.8578 22.1494C19.9122 22.0471 20.0444 21.814 20.1456 21.6258C20.2506 21.4376 20.3633 21.2331 20.3944 21.1758C20.4256 21.1144 20.5111 20.9713 20.5811 20.8485C20.6472 20.7299 20.7056 20.6195 20.7056 20.6031C20.7056 20.5867 20.7483 20.509 20.795 20.4313C20.8456 20.3536 20.9311 20.2063 20.9856 20.104C21.2461 19.6131 21.5728 19.0159 21.6039 18.975C21.6233 18.9504 21.6933 18.8236 21.7594 18.6886C21.8256 18.5577 21.9033 18.4186 21.9267 18.3859C21.9539 18.3532 21.9967 18.2673 22.0278 18.2018C22.0978 18.0463 22.2572 17.7764 22.335 17.6782C22.3856 17.6127 22.8289 17.6086 30.63 17.6086H38.8706L38.9561 17.7068Z" fill="#D4041C"/>
<path d="M27.7639 21.1677C27.1572 21.3027 26.2706 21.6136 25.695 21.8877C25.6134 21.9245 25.3489 22.0554 25.1039 22.174C24.8628 22.2967 24.6411 22.3949 24.61 22.3949C24.5789 22.3949 24.5556 22.4113 24.5556 22.4317C24.5556 22.4522 24.4622 22.5095 24.3534 22.5586C24.2406 22.6076 24.0422 22.7017 23.9139 22.7672C23.4978 22.9717 22.7511 23.2335 22.4556 23.2785C22.1756 23.3194 21.7517 23.3235 21.6778 23.2908C21.6467 23.2744 21.4911 23.2499 21.3317 23.2376C21.1722 23.2213 21.0284 23.2008 21.0089 23.1885C20.9934 23.1763 20.8961 23.1517 20.7911 23.1313C20.69 23.1108 20.4995 23.0699 20.3672 23.0372C20.0522 22.9594 19.8617 23.0126 19.6361 23.2335C19.4222 23.4422 19.3639 23.6508 19.3678 24.1335C19.3795 24.8535 19.6517 25.7085 20.0872 26.3875C20.2817 26.6943 20.7911 27.263 21.0556 27.4716L21.1917 27.582L21.0945 27.7743C20.97 28.0279 20.62 28.4861 20.3011 28.8134C20.0561 29.067 20.0484 29.0834 20.1145 29.157C20.1495 29.202 20.2817 29.2879 20.4061 29.3534C20.5267 29.4188 20.6278 29.4924 20.6278 29.5211C20.6278 29.5906 20.4334 29.922 20.3945 29.922C20.3711 29.922 20.3556 29.9424 20.3556 29.967C20.3556 30.0242 19.8306 30.7606 19.7411 30.8301C19.675 30.8833 19.4611 31.1697 19.4611 31.2065C19.4611 31.2147 19.5622 31.2638 19.6867 31.3169C19.8539 31.3824 20.025 31.411 20.3867 31.4274C20.6706 31.4397 20.8611 31.4642 20.8611 31.4887C20.8611 31.5133 20.795 31.6237 20.7134 31.7383C20.0795 32.6383 19.7217 33.7346 19.7839 34.5814C19.8189 35.0109 19.9706 35.5918 20.1378 35.9354C20.2739 36.2054 20.2817 36.2545 20.2972 36.68C20.3245 37.4204 20.4139 37.7926 20.7134 38.4717C20.9428 38.9831 21.18 39.3349 21.5961 39.7767C22.055 40.2594 22.195 40.378 22.5917 40.6317C22.9806 40.8771 23.1867 40.9794 23.2295 40.9466C23.2489 40.9344 23.2761 40.8485 23.2917 40.7503C23.35 40.3617 23.8828 39.474 24.0072 39.5558C24.0306 39.5681 24.05 39.6662 24.05 39.7726C24.05 40.0671 24.1861 40.8076 24.2795 41.0203C24.3261 41.1226 24.3611 41.2207 24.3611 41.2371C24.3611 41.2494 24.4272 41.3762 24.505 41.5153C24.6684 41.7975 24.8939 42.0716 24.96 42.0716C24.9834 42.0716 25.0456 41.8998 25.1 41.6953C25.2011 41.278 25.3411 40.9876 25.5589 40.7503C25.7145 40.5826 25.7961 40.5621 25.8895 40.6685C25.9595 40.7503 25.9906 40.8812 26.1306 41.683C26.3367 42.8284 26.4572 43.1557 26.85 43.5975C27.2856 44.0884 27.83 44.4402 28.565 44.7061C29.1911 44.9311 29.5217 44.9761 30.6611 44.9761C31.8006 44.9761 32.1039 44.9352 32.7417 44.7102C33.2589 44.5261 33.5272 44.387 33.9667 44.0761C34.7834 43.4993 35.0206 42.9716 35.2928 41.1226C35.4056 40.3535 35.7828 40.4558 36.1172 41.3475C36.1756 41.4989 36.2222 41.6544 36.2222 41.6953C36.2222 41.7321 36.2534 41.8384 36.2922 41.9243L36.3622 42.0839L36.5022 41.953C36.6695 41.8016 36.9261 41.3885 37.0039 41.1512C37.0311 41.0612 37.07 40.9671 37.0856 40.9426C37.105 40.9139 37.1361 40.7871 37.1595 40.6562C37.1828 40.5212 37.2178 40.333 37.2411 40.2308C37.2645 40.1285 37.2878 39.9526 37.2917 39.8421C37.2995 39.7276 37.3072 39.613 37.3072 39.5844C37.315 39.4944 37.4239 39.5312 37.4939 39.6458C37.5328 39.7112 37.5756 39.7726 37.595 39.7849C37.6845 39.8503 37.9139 40.3453 38.0111 40.6726C38.0928 40.9385 38.1084 40.9671 38.1822 40.9426C38.2795 40.9098 38.8784 40.558 38.9056 40.5171C38.9172 40.5008 38.9989 40.4394 39.0922 40.378C39.3178 40.2308 39.3878 40.1694 39.6795 39.8544C40.01 39.4985 40.1111 39.3758 40.1111 39.3308C40.1111 39.3144 40.1228 39.2899 40.1422 39.2817C40.2278 39.2408 40.6361 38.4881 40.7761 38.1035C40.9395 37.6658 41.0056 37.2977 41.0328 36.7127C41.0484 36.4059 41.0756 36.1686 41.1067 36.1195C41.2311 35.9191 41.4372 35.3341 41.4917 35.0314C41.6395 34.2009 41.5034 33.4032 41.06 32.4828C40.8734 32.0983 40.7917 31.9633 40.5895 31.7056C40.5195 31.6156 40.4611 31.5215 40.4611 31.4928C40.4611 31.4601 40.605 31.4397 40.9395 31.4274C41.305 31.411 41.4645 31.3865 41.6395 31.3169C41.76 31.2678 41.8611 31.2106 41.8611 31.1901C41.8611 31.1697 41.7134 30.9733 41.5306 30.7524C41.2 30.3515 40.6945 29.6111 40.6945 29.5252C40.6945 29.4843 40.7839 29.427 41.13 29.2388C41.1884 29.2061 41.2467 29.1652 41.2584 29.1447C41.27 29.1243 41.1222 28.9279 40.9278 28.707C40.5817 28.3184 40.1889 27.7498 40.1889 27.6352C40.1889 27.6066 40.395 27.3693 40.6517 27.1034C41.27 26.4653 41.5928 25.913 41.7989 25.1357C41.8572 24.923 41.9195 24.6899 41.9428 24.6203C41.9622 24.5508 41.9778 24.3176 41.9778 24.0967C41.9778 23.7612 41.9622 23.6712 41.8845 23.5076C41.6784 23.0822 41.3789 22.9226 40.9822 23.0331C40.3211 23.2131 39.135 23.3603 38.9445 23.2826C38.9134 23.2703 38.8239 23.2499 38.75 23.2417C38.5672 23.2172 38.505 23.1967 38.1434 23.0699C37.8322 22.9554 37.6845 22.8899 37.245 22.6772C37.1128 22.6117 36.965 22.5381 36.9145 22.5176C36.8639 22.4972 36.7978 22.4604 36.7667 22.4399C36.6734 22.3826 35.8722 21.9858 35.845 21.9858C35.8334 21.9858 35.7322 21.9408 35.6234 21.8877C34.655 21.409 33.8345 21.18 32.9867 21.1472C32.31 21.1227 31.5711 21.2577 30.9489 21.5195L30.6884 21.6299L30.4706 21.5563C30.35 21.5154 30.1828 21.4499 30.1011 21.4049C29.8134 21.2495 29.2884 21.1595 28.5806 21.1472C28.2189 21.139 27.8495 21.1472 27.7639 21.1677ZM33.4222 22.3745C33.5389 22.3867 33.6711 22.4154 33.7139 22.4317C33.7567 22.4522 34.0289 22.5463 34.3167 22.6445C34.6045 22.7385 34.9234 22.8613 35.0206 22.9144C35.1217 22.9676 35.2189 23.0085 35.2345 23.0085C35.2656 23.0085 35.9889 23.3685 36.1639 23.4667C36.2067 23.4913 36.3622 23.5812 36.51 23.659C36.8095 23.8226 36.8678 23.8594 37.245 24.0926C37.3928 24.1826 37.5484 24.2808 37.595 24.3053C37.7545 24.4035 38.7189 24.3462 39.4306 24.199C39.9089 24.1008 40.0995 24.0517 40.2161 24.0026C40.3834 23.9331 40.4184 24.0026 40.2784 24.1335C40.1111 24.289 40.115 24.289 39.73 24.518C39.3839 24.7267 38.7228 25.0048 38.3028 25.1153C38.1978 25.1439 38.0811 25.1767 38.05 25.1889C38.0189 25.2012 37.8906 25.2339 37.77 25.2585C37.6456 25.283 37.5445 25.328 37.5445 25.3526C37.5445 25.4794 38.7072 26.0357 38.9756 26.0357C39.0922 26.0357 39.1311 26.1462 39.0378 26.2239C38.8317 26.3875 38.0267 26.7107 37.8478 26.6984C37.7311 26.6902 37.77 26.7557 37.9956 26.9357C38.4428 27.2916 38.9795 27.897 39.3217 28.4329C39.5745 28.8297 39.9011 29.5538 39.8545 29.607C39.835 29.6274 39.6756 29.5702 39.4695 29.472C39.1856 29.337 38.1278 29.2061 38.1278 29.3043C38.1278 29.3247 38.2134 29.4147 38.3222 29.5006C38.4272 29.5865 38.5128 29.6765 38.5167 29.7011C38.5167 29.7256 38.5906 29.8197 38.6839 29.9097C38.8628 30.0897 38.9795 30.2451 39.3489 30.8219C39.6678 31.3251 39.9478 31.9715 40.01 32.356C40.0256 32.446 40.045 32.5483 40.0528 32.581C40.0645 32.6137 40.0567 32.6669 40.0372 32.6996C40.01 32.7446 39.9517 32.716 39.7689 32.5646C39.6406 32.4624 39.5239 32.3764 39.5084 32.3764C39.4967 32.3764 39.4034 32.3396 39.3061 32.2905C39.1584 32.221 38.7578 32.0901 38.6878 32.0901C38.6761 32.0901 38.7695 32.2251 38.8978 32.3846C39.5395 33.2069 39.9089 34.5077 39.8039 35.5877C39.7845 35.7841 39.7495 35.9641 39.7261 35.9886C39.6756 36.0418 39.6795 36.0541 39.5511 35.69C39.3567 35.1459 39.1156 34.7286 38.6917 34.1968C38.4272 33.8655 37.8556 33.4482 37.4278 33.2805C37.3111 33.2314 37.2061 33.1946 37.2022 33.1946C37.1945 33.1946 37.2722 33.301 37.3772 33.4278C38.1667 34.3973 38.6061 35.7595 38.5439 37.044C38.5206 37.5186 38.3961 38.2099 38.3067 38.3695C38.2795 38.4144 38.2367 38.529 38.2134 38.619C38.1861 38.7131 38.1434 38.8113 38.1122 38.8358C38.05 38.889 38.0384 38.8603 37.9917 38.574C37.8906 37.9072 37.455 37.1299 37.0234 36.8477C36.9378 36.7904 36.8522 36.725 36.8406 36.7045C36.8289 36.684 36.7667 36.6636 36.7045 36.6595C36.5917 36.6513 36.5917 36.6513 36.5684 36.9377C36.5411 37.2404 36.51 37.3999 36.3972 37.7967C36.3117 38.1035 36.0784 38.5822 36.0006 38.6149C35.9578 38.6313 35.8761 38.5658 35.7478 38.4144C35.3434 37.9358 34.9506 37.9113 34.6861 38.349C34.5772 38.529 34.2039 39.6785 34.0639 40.2717C34.0289 40.4189 33.9861 40.5907 33.9667 40.6603C33.92 40.8198 33.8034 41.3353 33.6945 41.8466C33.5856 42.3702 33.5545 42.4602 33.3989 42.6852C33.1772 43.0084 32.905 43.2007 32.2828 43.4625C32.1156 43.532 31.9406 43.5852 31.8939 43.5811C31.8472 43.577 31.7384 43.5934 31.6528 43.622C31.4195 43.6997 30.2528 43.7284 29.8911 43.6711C29.4128 43.5893 28.7984 43.3848 28.5028 43.2007C28.2306 43.037 27.8417 42.628 27.7717 42.4316C27.7561 42.3825 27.6784 42.0716 27.6084 41.7444C27.2934 40.3371 27.0445 39.3635 26.9006 38.9626C26.8889 38.9299 26.85 38.8194 26.815 38.7172C26.7217 38.4472 26.5 38.1117 26.3756 38.0586C26.1384 37.9563 25.8078 38.124 25.5084 38.5004C25.45 38.574 25.3839 38.6354 25.3645 38.6354C25.3061 38.6354 25.2284 38.5249 25.1428 38.3285C25.1039 38.2385 25.0339 38.0831 24.9911 37.9808C24.8978 37.764 24.75 37.0727 24.75 36.8395C24.75 36.7495 24.7345 36.6677 24.715 36.6554C24.68 36.6309 24.4428 36.7127 24.3767 36.774C24.3495 36.7945 24.2834 36.8518 24.2211 36.8968C23.9956 37.0686 23.7467 37.4081 23.5756 37.7886C23.4278 38.1076 23.3928 38.2222 23.3384 38.5494C23.3111 38.6967 23.2722 38.8194 23.2528 38.8276C23.1945 38.8481 22.9728 38.2795 22.8911 37.899C22.7784 37.3795 22.7589 37.179 22.7745 36.6431C22.7939 36.0909 22.9067 35.4691 23.0584 35.0968C23.0856 35.0273 23.1206 34.9291 23.1361 34.8718C23.21 34.5977 23.5872 33.935 23.9567 33.4278C24.0617 33.2846 24.0811 33.2355 24.0345 33.2355C23.98 33.2355 23.5095 33.4769 23.2917 33.616C23.1322 33.7182 22.7784 34.0414 22.6111 34.2378C22.5139 34.3482 22.4284 34.4505 22.4167 34.4627C22.3856 34.4955 22.1717 34.8391 22.1134 34.9536C21.95 35.2686 21.7945 35.6041 21.7945 35.645C21.7945 35.6736 21.7595 35.7677 21.7128 35.8618C21.5922 36.1154 21.5495 36.0132 21.53 35.4323C21.4911 34.1764 21.8334 33.0719 22.5061 32.3028C22.5917 32.2087 22.65 32.1187 22.6345 32.1024C22.6072 32.0696 21.8372 32.3478 21.7361 32.4296C21.7167 32.446 21.6078 32.5319 21.495 32.6219C21.3861 32.7119 21.285 32.7692 21.2734 32.7487C21.2306 32.6833 21.3706 32.131 21.5261 31.7301C21.6545 31.3987 22.0317 30.6706 22.1056 30.6174C22.1211 30.6051 22.1639 30.5356 22.1989 30.462C22.2339 30.3883 22.2922 30.3147 22.3234 30.3024C22.3506 30.2901 22.3778 30.2615 22.3778 30.2411C22.3778 30.192 22.4672 30.0815 22.8561 29.6683C23.0195 29.4883 23.1556 29.3288 23.1556 29.3043C23.1556 29.1856 22.1795 29.3452 21.6895 29.5456C21.4795 29.6315 21.4134 29.6111 21.4795 29.4843C21.4989 29.4433 21.5961 29.2429 21.6895 29.0384C22.0472 28.2652 22.5878 27.582 23.3889 26.8866C23.5095 26.7802 23.5445 26.7312 23.5056 26.7189C23.4745 26.7066 23.3072 26.6575 23.1361 26.6084C22.965 26.5553 22.79 26.4898 22.7472 26.4653C22.7045 26.4366 22.6228 26.4039 22.5684 26.3875C22.5139 26.3753 22.4206 26.318 22.3545 26.2607C22.2922 26.2034 22.23 26.1584 22.2145 26.1584C22.1367 26.1584 22.195 26.0848 22.2922 26.0644C22.6617 25.9866 23.0234 25.8598 23.1167 25.7739C23.1478 25.7412 23.2217 25.7085 23.2761 25.6921C23.3928 25.6635 23.7467 25.418 23.7661 25.3526C23.7778 25.3239 23.63 25.2707 23.4006 25.2176C22.4906 25.0008 21.5884 24.5999 21.1567 24.2194C20.9622 24.0435 20.9622 23.9453 21.1606 24.019C21.2189 24.0435 21.3745 24.0844 21.5028 24.1131C21.6311 24.1417 21.7906 24.1785 21.8528 24.199C22.0628 24.2603 23.2489 24.3667 23.4667 24.3462C23.6961 24.3217 23.9528 24.1949 24.715 23.7162C24.8317 23.6426 24.9522 23.5812 24.9872 23.5812C25.0222 23.5812 25.0728 23.5567 25.0961 23.524C25.1467 23.4626 25.5278 23.2622 25.9556 23.074C26.0956 23.0126 26.2978 22.9185 26.4028 22.8654C26.5117 22.8163 26.6672 22.7508 26.7528 22.7222C26.8384 22.6976 26.9356 22.6649 26.9667 22.6526C26.9978 22.6363 27.0328 22.624 27.0445 22.624C27.0561 22.6199 27.1184 22.5995 27.1806 22.5749C27.7561 22.3499 28.7634 22.2436 29.1134 22.3663C29.2767 22.4276 29.685 22.6076 29.8056 22.6772C30.3539 22.9881 30.63 23.1313 30.6884 23.1313C30.7272 23.1272 30.8478 23.074 30.9528 23.0085C31.6217 22.5913 32.0806 22.3867 32.4695 22.3295C32.555 22.3131 32.6289 22.3008 32.6328 22.2967C32.6406 22.2927 33.1267 22.3376 33.4222 22.3745Z" fill="#D4041C"/>
<path d="M28.2811 23.6876C28.2695 23.6999 28.1722 23.7162 28.0711 23.7203C27.7833 23.7408 26.8733 24.0353 26.71 24.1621C26.6867 24.1785 26.5817 24.2439 26.4767 24.3012C26.2939 24.3994 25.9983 24.5998 25.9556 24.6448C25.9439 24.6571 25.8778 24.7103 25.8117 24.7635C25.7417 24.8126 25.6833 24.8698 25.6833 24.8862C25.6833 24.9026 25.8233 24.8944 25.9983 24.8657C26.1695 24.8371 26.5622 24.7921 26.8733 24.7635C27.7872 24.6817 28.2811 24.7798 28.9811 25.1766C29.5528 25.4998 29.6345 25.5571 30.2839 26.0684L30.665 26.3671L30.7972 26.2812C30.8672 26.2362 30.9333 26.183 30.9411 26.1625C30.9606 26.1134 31.7345 25.5366 32.0028 25.373C33.1189 24.6939 33.6089 24.6244 35.46 24.878C35.5922 24.8944 35.6428 24.8903 35.6233 24.8576C35.5883 24.7962 34.8883 24.3135 34.6667 24.1949C34.5695 24.1458 34.4606 24.0885 34.4256 24.068C34.0522 23.8717 33.4456 23.7121 33.0489 23.708C32.5278 23.6999 32.1195 23.8308 31.2328 24.2848L30.6611 24.5794L30.3383 24.4035C29.93 24.1785 29.2495 23.8717 29.0939 23.839C29.0239 23.8267 28.95 23.798 28.9267 23.7817C28.9033 23.7612 28.7633 23.7285 28.6156 23.704C28.2928 23.6549 28.3083 23.659 28.2811 23.6876Z" fill="#D4041C"/>
<path d="M25.1583 25.737C24.6216 25.8557 24.2172 26.4816 24.05 27.447C24.0305 27.5574 24.0033 27.6924 23.9878 27.7415C23.9528 27.8765 24.0033 27.8602 24.2444 27.6515C24.5439 27.3897 25.2905 26.8743 25.4383 26.8211C25.7066 26.727 26.5155 26.6779 27.4139 26.7025C27.9078 26.7188 28.3744 26.7434 28.4561 26.7557C28.5378 26.772 28.6 26.7679 28.6 26.7434C28.6 26.7107 27.7989 26.2811 27.7328 26.2811C27.7211 26.2811 27.6161 26.2361 27.5033 26.1829C27.3905 26.1298 27.2039 26.0561 27.0911 26.0193C26.9783 25.9866 26.8655 25.9457 26.8383 25.9252C26.815 25.9089 26.7566 25.8884 26.7139 25.8802C26.6711 25.8761 26.4689 25.8352 26.2589 25.7902C25.9166 25.7166 25.3644 25.688 25.1583 25.737Z" fill="#D4041C"/>
<path d="M35.3472 25.737C35.1255 25.7656 34.4917 25.9211 34.375 25.9743C34.3128 26.0029 34.1883 26.0479 34.1028 26.0765C34.0172 26.1052 33.8578 26.1706 33.7489 26.2238C33.64 26.277 33.5389 26.322 33.5272 26.322C33.4689 26.322 32.7611 26.6942 32.7611 26.7229C32.7611 26.7433 32.9244 26.7474 33.1228 26.7351C33.71 26.6942 35.4055 26.7147 35.67 26.7638C35.8061 26.7883 35.9967 26.862 36.0939 26.9233C36.5683 27.2301 36.7083 27.3324 37.0894 27.6474C37.3033 27.8233 37.3305 27.8356 37.3422 27.7619C37.3655 27.6106 37.1517 26.8783 36.9728 26.4979C36.8483 26.2279 36.7472 26.0724 36.6228 25.9538C36.5255 25.8679 36.4361 25.7943 36.4205 25.7984C36.4089 25.8024 36.3039 25.782 36.1911 25.7574C35.9967 25.7124 35.6039 25.7002 35.3472 25.737Z" fill="#D4041C"/>
<path d="M29.2222 27.271C28.8839 27.4265 28.5611 27.6106 28.5611 27.6474C28.5611 27.6719 28.6622 27.7251 28.7867 27.7701C29.0083 27.8437 29.4944 28.1219 29.6189 28.2406C29.6539 28.2774 29.7355 28.351 29.8017 28.4083C29.8717 28.4656 30.0817 28.6701 30.2722 28.8664C30.4628 29.0669 30.6378 29.2264 30.665 29.2264C30.6883 29.2264 30.7855 29.1324 30.8828 29.0219C31.3455 28.4778 32.1544 27.8765 32.5978 27.7415C32.6911 27.7169 32.765 27.6719 32.7611 27.6515C32.7533 27.6147 32.4967 27.4633 32.1428 27.2874C31.8589 27.1483 31.5322 27.2138 30.9411 27.5288L30.6611 27.6801L30.2255 27.451C29.8367 27.2465 29.7705 27.2219 29.5567 27.226C29.4244 27.226 29.2767 27.2465 29.2222 27.271Z" fill="#D4041C"/>
<path d="M25.9944 28.5475C25.7844 28.6088 25.5433 28.7193 25.5122 28.7725C25.5005 28.7929 25.5628 28.8175 25.6561 28.8297C25.7455 28.842 25.8817 28.8665 25.9555 28.887L26.0917 28.9238L26.115 29.2265C26.1383 29.5661 26.1578 29.6356 26.2939 29.832C26.3833 29.9547 26.5661 30.0856 26.6517 30.0856C26.675 30.0856 26.6555 30.0079 26.6167 29.9097C26.5311 29.7174 26.5117 29.292 26.5817 29.2429C26.675 29.1815 26.92 29.2224 27.1378 29.3329C27.3983 29.4679 27.4878 29.5742 27.3944 29.6356C27.2894 29.7052 27.06 29.6847 26.9861 29.5947C26.8928 29.4883 26.8578 29.4924 26.8267 29.6111C26.7955 29.742 26.9044 29.9465 27.0561 30.0447C27.2039 30.1429 27.3867 30.147 27.5772 30.0651C27.7678 29.9792 27.8494 29.9874 27.8805 30.0938C27.935 30.2615 27.5733 30.4415 27.2505 30.4006C27.1572 30.3924 27.06 30.4047 27.025 30.4292C26.955 30.4824 26.8655 30.9406 26.9044 31.0469C26.9278 31.1165 26.9355 31.1165 27.0172 31.0347C27.1028 30.9528 27.3128 30.8465 27.5305 30.7769C27.6083 30.7524 27.7133 30.7565 27.8417 30.7851C27.9972 30.826 28.0789 30.8792 28.2617 31.0756C28.3822 31.2065 28.4833 31.3415 28.4833 31.3701C28.4833 31.3987 28.5144 31.4683 28.5533 31.5215C28.5961 31.5746 28.635 31.6565 28.6505 31.7014C28.7128 31.9224 28.7905 32.1105 28.8255 32.1228C28.88 32.1392 28.9228 31.6074 28.8917 31.3046C28.8761 31.1615 28.8333 30.9283 28.7905 30.7851C28.7517 30.6419 28.7167 30.5192 28.7167 30.511C28.7167 30.5029 28.7983 30.4947 28.9033 30.4947C29.2028 30.4947 29.2339 30.4374 29.0317 30.2492C28.8567 30.0815 28.7633 30.016 28.5183 29.9015C28.4367 29.8647 28.25 29.6806 28.0633 29.4556C27.7017 29.0179 27.3128 28.6906 27.0133 28.572C26.78 28.4779 26.2861 28.4656 25.9944 28.5475Z" fill="#D4041C"/>
<path d="M34.3128 28.5679C34.2156 28.6088 34.0562 28.6988 33.9628 28.7643C33.7567 28.9156 33.1539 29.5497 33.0839 29.6888C33.0567 29.746 32.9167 29.8524 32.7534 29.9383C32.4345 30.106 32.1117 30.376 32.1506 30.4415C32.1662 30.466 32.2673 30.4865 32.3762 30.4906C32.4889 30.4906 32.5862 30.4988 32.5939 30.5069C32.5978 30.5151 32.5706 30.6665 32.5278 30.8424C32.45 31.1574 32.4189 31.9142 32.4734 32.0655C32.5123 32.176 32.555 32.1392 32.6017 31.951C32.6639 31.6851 32.975 31.1287 33.1423 30.9937C33.5039 30.691 33.8928 30.6869 34.2428 30.9856C34.3245 31.051 34.3984 31.1083 34.41 31.1083C34.4684 31.1083 34.4062 30.4906 34.34 30.4251C34.3284 30.4128 34.1806 30.3965 34.0173 30.3965C33.6712 30.3883 33.4612 30.2942 33.4612 30.1429C33.4612 29.9874 33.5467 29.9547 33.7139 30.0447C33.7995 30.0897 33.9239 30.1265 33.9939 30.1265C34.2662 30.1265 34.5112 29.9056 34.5112 29.6601C34.5112 29.5415 34.4606 29.5292 34.3167 29.6151C34.1884 29.6929 33.99 29.6929 33.9278 29.6151C33.8695 29.5374 33.8578 29.5538 34.1339 29.3779C34.3906 29.2142 34.5734 29.1652 34.7212 29.2265C34.8106 29.2592 34.8223 29.2879 34.8223 29.472C34.8223 29.6765 34.7562 29.8729 34.6356 30.016C34.55 30.1183 34.5928 30.1388 34.7523 30.0692C34.9 30.0038 35.1178 29.7665 35.1762 29.607C35.1956 29.5538 35.2112 29.3779 35.2112 29.2224C35.2112 28.8952 35.2189 28.887 35.6117 28.8379C35.7323 28.8215 35.8334 28.797 35.8334 28.7806C35.8334 28.7356 35.5689 28.6088 35.3473 28.5474C35.0673 28.4656 34.5306 28.4779 34.3128 28.5679Z" fill="#D4041C"/>
<path d="M24.0812 28.7028C24.0306 29.0505 24.1939 29.8646 24.4078 30.3187C24.6373 30.8136 25.0067 31.2064 25.4695 31.4395C25.7728 31.5909 26.15 31.7095 26.15 31.6482C26.15 31.64 26.045 31.5132 25.9206 31.37C25.6834 31.1041 25.4384 30.7114 25.4034 30.5355C25.3917 30.4782 25.3528 30.3227 25.3178 30.1878C25.2828 30.0568 25.2556 29.8809 25.2556 29.8032C25.2556 29.5864 25.0962 29.345 24.82 29.1446C24.6839 29.0464 24.4662 28.8746 24.3378 28.7682L24.0967 28.5719L24.0812 28.7028Z" fill="#D4041C"/>
<path d="M36.8445 28.8829C36.6617 29.0342 36.475 29.1733 36.4284 29.1938C36.2572 29.2797 36.1017 29.5783 36.0628 29.8933C35.9695 30.5928 35.7672 31.0224 35.3006 31.4969C35.2306 31.5664 35.1722 31.6401 35.1722 31.6564C35.1722 31.7505 35.845 31.4846 36.1484 31.2678C36.5372 30.9896 36.8056 30.6296 37.0506 30.0447C37.175 29.746 37.2995 28.6129 37.2061 28.6129C37.1867 28.6129 37.0272 28.7356 36.8445 28.8829Z" fill="#D4041C"/>
<path d="M24.1278 31.2473C24.1278 31.5541 24.4039 32.6013 24.5323 32.7854C24.5556 32.8182 24.5984 32.8877 24.6256 32.9368C24.6489 32.99 24.6956 33.0677 24.7189 33.1127C24.7578 33.1781 24.7578 33.2191 24.715 33.3254C24.5439 33.7713 24.5284 34.4545 24.6761 34.974C24.8511 35.5917 25.1778 36.1849 25.5823 36.6349C25.8039 36.8803 26.2784 37.2689 26.4611 37.3548C26.9356 37.5757 26.9317 37.5717 27.0639 37.9194C27.2039 38.2835 27.2817 38.5453 27.6473 39.8339C28.0673 41.3147 28.1606 41.5602 28.4134 41.822C28.7906 42.2229 29.58 42.4397 30.6534 42.4397C31.9989 42.4397 32.8467 42.1206 33.1461 41.507C33.22 41.3597 33.4845 40.5498 33.5778 40.1898C33.605 40.0875 33.6478 39.932 33.6789 39.842C33.7061 39.752 33.7684 39.5311 33.815 39.3511C33.9045 38.9871 34.1573 38.1853 34.2 38.1239C34.2156 38.0994 34.2584 37.9807 34.2973 37.858C34.3828 37.5717 34.3984 37.5553 34.6161 37.4694C35.2073 37.2321 35.88 36.6021 36.2417 35.9558C36.6034 35.3054 36.7317 34.8799 36.7511 34.2581C36.7628 33.8409 36.7511 33.7509 36.6656 33.4768L36.5645 33.1659L36.6811 32.9654C36.9611 32.4827 37.1556 31.8364 37.1556 31.3864C37.1556 31.1164 37.1206 31.1082 37 31.3537C36.8872 31.5827 36.4517 32.1064 36.1523 32.3723C35.7284 32.7445 34.9856 33.2354 34.8417 33.2354C34.8106 33.2354 34.7834 33.2518 34.7834 33.2763C34.7834 33.2968 34.8573 33.3172 34.9506 33.3172C35.1528 33.3172 35.4717 33.4154 35.5689 33.5095C35.6078 33.5463 35.6389 33.62 35.6389 33.6731C35.6389 33.7999 35.355 34.1477 35.0206 34.4299C34.8806 34.5486 34.7561 34.6549 34.7445 34.6713C34.7134 34.7081 33.9745 35.199 33.9434 35.199C33.9317 35.199 33.7956 35.2644 33.6439 35.3381C33.4884 35.4158 33.29 35.514 33.2006 35.5508C33.0139 35.6326 32.9789 35.7063 33.1423 35.6735C33.2006 35.6613 33.3445 35.6408 33.4611 35.6285C34.06 35.5549 34.9973 35.1949 35.39 34.884C35.4561 34.8308 35.5378 34.7899 35.5728 34.7899C35.7128 34.7899 35.6273 34.9617 35.3395 35.2685C35.0789 35.5426 34.9739 35.6203 34.5889 35.8208C34.3439 35.9476 33.9706 36.1112 33.7645 36.1849C33.5545 36.2544 33.395 36.3321 33.4067 36.3485C33.4339 36.3976 33.9123 36.3935 34.0834 36.3485C34.1573 36.3281 34.3167 36.2994 34.4334 36.2871C34.55 36.279 34.7056 36.2544 34.7756 36.2421C34.8417 36.2258 34.9 36.2258 34.9 36.2381C34.9 36.279 34.7873 36.3935 34.7017 36.4467C34.4878 36.5776 34.2389 36.7044 34.2389 36.684C34.2389 36.6717 34.2078 36.688 34.1728 36.7249C34.1339 36.7576 34.0173 36.8108 33.9084 36.8394C33.8034 36.8639 33.6945 36.9049 33.6711 36.9253C33.6439 36.9458 33.605 37.0849 33.5778 37.2362C33.4806 37.8171 33.1345 38.7825 33.0061 38.8275C32.9711 38.8398 32.9245 38.623 32.8973 38.308C32.8623 37.8744 32.7456 37.2567 32.6795 37.1176C32.6561 37.0726 32.5706 37.0399 32.4228 37.0235C31.9989 36.9744 31.9445 36.9662 31.6878 36.8762C31.3806 36.7658 31.1473 36.5612 31.085 36.3485C31.0656 36.2667 31.05 36.0622 31.0578 35.8944L31.0695 35.5876L31.4973 35.2522C31.7345 35.0681 31.9445 34.9126 31.9678 34.9126C31.9911 34.9126 32.0689 34.8717 32.1428 34.8186C32.3334 34.6836 32.625 34.6058 32.9245 34.614L33.185 34.6181L33.2473 34.4299C33.3484 34.1354 33.3717 33.2845 33.29 32.9041C33.2123 32.5441 33.0489 32.1227 33.0217 32.2127C33.01 32.2454 32.9906 32.4295 32.9789 32.6218C32.9517 33.0104 32.8545 33.4154 32.695 33.7754C32.5861 34.029 32.555 34.0495 32.45 33.9513C32.3606 33.8695 32.0184 33.8122 31.8356 33.849C31.7578 33.8654 31.5906 33.9145 31.47 33.9636C31.3495 34.0086 31.2445 34.0372 31.2328 34.029C31.225 34.0208 31.1123 34.0699 30.98 34.1354C30.8478 34.2049 30.7117 34.2581 30.6806 34.2581C30.6456 34.2581 30.5134 34.209 30.3811 34.1518C30.1245 34.0372 29.6889 33.8899 29.5334 33.8613C29.3234 33.8245 29.055 33.8531 28.9111 33.9309L28.7595 34.0127L28.7011 33.9227C28.4989 33.5831 28.3006 32.7445 28.3239 32.3027C28.3239 32.2536 28.3123 32.2127 28.2928 32.2127C28.2539 32.2127 28.0945 32.6054 28.0945 32.7036C28.0945 32.7445 28.0673 32.8468 28.0323 32.9327C27.935 33.1781 27.9467 33.9513 28.0517 34.3154C28.0945 34.4708 28.145 34.614 28.1645 34.6345C28.1839 34.6549 28.25 34.6508 28.3123 34.6263C28.3784 34.5977 28.5067 34.5895 28.6195 34.6058C28.8373 34.6345 29.44 34.9249 29.6539 35.1049C29.7317 35.1663 29.8445 35.2563 29.9067 35.3013C30.2528 35.5549 30.3578 35.8085 30.2723 36.2012C30.1634 36.7085 29.8756 36.8967 29.0123 37.0153L28.6661 37.0603L28.6117 37.2239C28.5417 37.4285 28.4445 38.0585 28.4095 38.488C28.3978 38.6844 28.3667 38.8193 28.3395 38.8275C28.2228 38.8684 27.9311 38.0953 27.8028 37.408C27.7717 37.2403 27.7367 37.0644 27.725 37.0194C27.7134 36.9662 27.6511 36.9171 27.5423 36.8844C27.4489 36.8517 27.3245 36.8026 27.2584 36.774C27.1961 36.7453 27.06 36.684 26.9589 36.639C26.7334 36.5367 26.4223 36.3158 26.4223 36.2544C26.4223 36.2299 26.4689 36.2217 26.5506 36.2381C26.6167 36.2544 26.815 36.2831 26.9861 36.3076C27.7639 36.414 28.1528 36.3894 27.725 36.2626C27.6278 36.234 27.5384 36.1931 27.5267 36.1767C27.515 36.1562 27.48 36.1399 27.445 36.1399C27.3789 36.1399 26.6595 35.7922 26.3911 35.6326C26.0956 35.4526 25.6834 34.974 25.6834 34.8104C25.6834 34.749 25.7845 34.7245 25.8078 34.7776C25.8273 34.8308 26.1461 35.0354 26.2045 35.0354C26.2356 35.0354 26.2745 35.0517 26.2861 35.0763C26.36 35.199 27.3984 35.5672 27.8417 35.6244C27.9506 35.6408 28.1023 35.6613 28.1878 35.6735C28.4134 35.7103 28.3511 35.6122 28.0906 35.5263C27.8145 35.4363 27.6278 35.3504 27.6278 35.3135C27.6278 35.2931 27.6006 35.2808 27.5656 35.2808C27.515 35.2808 26.8695 34.8963 26.8111 34.8308C26.7995 34.8186 26.7411 34.7736 26.675 34.7326C26.4884 34.6058 25.94 34.0904 25.8039 33.9022C25.7261 33.7959 25.6834 33.6936 25.6911 33.6404C25.7067 33.5095 26.0178 33.354 26.3173 33.3172L26.5584 33.2886L26.3406 33.1822C25.7378 32.8918 24.9989 32.2945 24.6723 31.8445C24.6178 31.7709 24.5284 31.6523 24.47 31.5827C24.4117 31.5132 24.3339 31.3864 24.295 31.3046C24.2173 31.1287 24.1278 31.1 24.1278 31.2473ZM29.6695 37.8335C30.0117 37.9439 30.4356 38.3366 30.5873 38.6844C30.6495 38.8316 30.6767 38.8275 30.7506 38.6639C30.84 38.4716 31.0539 38.2057 31.2523 38.038C31.3611 37.948 31.8278 37.7762 31.9678 37.7762C32.1545 37.7762 32.415 37.858 32.4384 37.9276C32.45 37.9562 32.4228 38.0585 32.3761 38.1566C32.3295 38.2548 32.2945 38.353 32.2945 38.3775C32.2945 38.398 32.2634 38.5248 32.2206 38.6598C32.1817 38.7907 32.0845 39.118 32.0028 39.3798C31.8978 39.7398 31.8278 39.8993 31.7306 40.0139C31.6567 40.0998 31.5945 40.1816 31.5945 40.1979C31.5945 40.2429 31.3456 40.3779 31.1278 40.4475C30.9139 40.5129 30.4823 40.5293 30.4084 40.472C30.3889 40.4557 30.3073 40.4434 30.2334 40.4434C30.0661 40.4475 29.7356 40.2552 29.6811 40.1243C29.6578 40.0711 29.6228 40.0261 29.6073 40.0261C29.5645 40.0261 29.3545 39.5516 29.3195 39.388C29.3039 39.3225 29.2028 38.9748 29.0939 38.6148C28.9811 38.2548 28.8917 37.9439 28.8917 37.9194C28.8917 37.8703 29.1639 37.7844 29.3428 37.7803C29.4206 37.7762 29.5645 37.8048 29.6695 37.8335ZM32.8389 40.5579C32.8389 40.9916 32.7767 41.2575 32.6406 41.3802C32.5978 41.417 32.4345 41.4743 32.2828 41.4988C32.1273 41.5275 31.9873 41.5643 31.9639 41.5806C31.9445 41.597 31.7695 41.642 31.575 41.687C31.3067 41.7443 31.0773 41.7647 30.6028 41.7606C30.0311 41.7565 29.9456 41.7484 29.5528 41.6297C29.3195 41.5643 29.0434 41.4947 28.9423 41.4784C28.7128 41.4456 28.5456 41.2861 28.5106 41.0611C28.4639 40.7707 28.4834 40.2389 28.5456 40.0384C28.6506 39.707 28.7089 39.707 28.7945 40.0302C28.8411 40.202 29.2028 40.9588 29.2884 41.057C29.3623 41.1429 29.4284 41.102 29.5178 40.9179C29.5995 40.7502 29.7045 40.7707 29.8445 40.9875C29.9573 41.1593 30.1167 41.2411 30.1167 41.1225C30.1167 41.0488 30.2373 40.9261 30.315 40.9261C30.3539 40.9261 30.4317 40.9997 30.4939 41.0897C30.5523 41.1797 30.6261 41.2534 30.6573 41.2534C30.6884 41.2534 30.77 41.1797 30.8439 41.0897C30.9178 40.9997 31.0034 40.9261 31.0306 40.9261C31.0617 40.9261 31.12 40.9793 31.1667 41.0488C31.2134 41.1143 31.2756 41.1716 31.3028 41.1716C31.3339 41.1716 31.4117 41.0897 31.4817 40.9875C31.5517 40.8852 31.6373 40.8034 31.68 40.8034C31.7189 40.8034 31.7928 40.8729 31.8473 40.967C31.9017 41.057 31.9523 41.1306 31.96 41.1306C31.9873 41.1306 32.3334 40.562 32.3334 40.5211C32.3334 40.4966 32.3684 40.4188 32.4111 40.3452C32.4539 40.2716 32.4889 40.1898 32.4889 40.1611C32.4889 40.1366 32.5239 40.0261 32.5706 39.9157L32.6523 39.7193L32.7456 39.9402C32.8234 40.1243 32.8389 40.2266 32.8389 40.5579Z" fill="#D4041C"/>
</g>
<defs>
<filter id="filter0_d" x="-28" y="-276" width="1318" height="457" filterUnits="userSpaceOnUse" color-interpolation-filters="sRGB">
<feFlood flood-opacity="0" result="BackgroundImageFix"/>
<feColorMatrix in="SourceAlpha" type="matrix" values="0 0 0 0 0 0 0 0 0 0 0 0 0 0 0 0 0 0 127 0"/>
<feOffset dy="3"/>
<feGaussianBlur stdDeviation="3"/>
<feColorMatrix type="matrix" values="0 0 0 0 0.191594 0 0 0 0 0.191594 0 0 0 0 0.191594 0 0 0 0.25 0"/>
<feBlend mode="normal" in2="BackgroundImageFix" result="effect1_dropShadow"/>
<feBlend mode="normal" in="SourceGraphic" in2="effect1_dropShadow" result="shape"/>
</filter>
<clipPath id="clip0">
<rect width="1920" height="4888" fill="white" transform="translate(-329 -1858)"/>
</clipPath>
</defs>
</svg>
