<svg width="538" height="192" viewBox="0 0 538 192" fill="none" xmlns="http://www.w3.org/2000/svg">
<g clip-path="url(#clip0)">
<rect width="1920" height="4888" transform="translate(-314 -2108)" fill="white"/>
<rect x="-109" width="1920" height="192" fill="#D4041C" fill-opacity="0.85"/>
<path d="M247.687 24.8001V25.7334H248.701H249.715V24.8001V23.8667H248.701H247.687V24.8001Z" fill="white"/>
<path d="M220.689 29.4401C220.689 34.0001 220.689 34.0934 220.423 34.3468C220.169 34.5868 219.878 34.6001 216.252 34.6401L212.348 34.6801L212.298 35.6934C212.272 36.3601 212.31 36.7201 212.399 36.7601C212.488 36.7868 214.338 36.8001 216.519 36.7734C220.258 36.7334 220.537 36.7201 221.069 36.4534C221.386 36.2934 221.791 36.0001 221.982 35.7868C222.679 35.0001 222.717 34.6668 222.717 29.5201V24.8001H221.703H220.689V29.4401Z" fill="white"/>
<path d="M253.847 26.0001C253.885 27.8401 253.974 27.7334 252.428 27.7334H251.109V28.8001V29.8667H252.428H253.733L253.822 30.7467C253.873 31.2267 253.898 32.7734 253.898 34.1734L253.873 36.7334H254.874H255.863L255.901 33.2934L255.926 29.8667H257.701H259.475V28.8001V27.7334H257.701H255.926V26.2667V24.8001H254.874H253.822L253.847 26.0001Z" fill="white"/>
<path d="M287.69 25.0001C286.98 25.2667 286.334 25.8667 285.966 26.6134C285.7 27.1467 285.65 27.4534 285.65 28.3467C285.65 29.3067 285.688 29.4934 286.03 30.0667C286.942 31.6134 287.716 31.8667 291.505 31.8667C294.117 31.8667 294.205 31.8801 294.522 32.1734C294.776 32.3867 294.877 32.6401 294.928 33.0801C294.991 33.6267 294.953 33.7467 294.611 34.1467L294.231 34.6001L289.959 34.6401L285.7 34.6801L285.738 35.7067L285.776 36.7334H290.086C294.193 36.7334 294.421 36.7201 294.966 36.4534C296.335 35.7867 296.931 34.7867 296.931 33.2001C296.918 31.6401 296.373 30.7334 295.029 30.0534C294.421 29.7467 294.281 29.7334 291.67 29.7334C290.175 29.7334 288.73 29.6667 288.476 29.5867C287.614 29.3467 287.323 28.1201 287.944 27.3467L288.273 26.9334L292.089 26.9067L295.916 26.8667L295.955 25.8267L295.993 24.8001H292.089C289.097 24.8134 288.071 24.8534 287.69 25.0001Z" fill="white"/>
<path d="M299.022 25.0667C298.768 25.3334 298.768 25.48 298.794 31.04L298.832 36.7334L299.757 36.7734L300.67 36.8134L300.682 32.04C300.695 29.4134 300.695 27.1867 300.682 27.1067C300.67 26.9734 301.608 26.9334 304.814 26.9067L308.972 26.8667L309.01 25.8267L309.048 24.8H304.155C299.44 24.8 299.263 24.8134 299.022 25.0667Z" fill="white"/>
<path d="M312.141 25.0801C311.558 25.4134 311.266 25.7334 310.899 26.4667C310.632 26.9734 310.62 27.1601 310.62 30.8134V34.6267L311 35.2801C311.279 35.7467 311.583 36.0401 312.077 36.3334L312.775 36.7334H316.831H320.887L320.925 35.7067L320.963 34.6801L317.021 34.6401L313.066 34.6001L312.825 34.2801C312.597 34.0001 312.584 33.7201 312.584 30.7334C312.584 27.8401 312.61 27.4667 312.813 27.2134C313.028 26.9334 313.129 26.9334 316.957 26.8934L320.887 26.8667L320.925 25.8267L320.963 24.8001H316.805C312.8 24.8001 312.622 24.8134 312.141 25.0801Z" fill="white"/>
<path d="M224.872 30.64C224.872 34.1333 224.96 34.5067 225.936 35.5333C226.963 36.6 227.369 36.7067 230.588 36.7733C233.592 36.8267 233.998 36.7467 234.251 36.0533C234.327 35.8667 234.378 33.9467 234.378 31.72V27.7333H233.364H232.35L232.325 31.16L232.287 34.6L230.474 34.64C228.345 34.68 227.825 34.56 227.293 33.9333L226.9 33.4533V30.6V27.7333H225.886H224.872V30.64Z" fill="white"/>
<path d="M238.092 27.9469C237.306 28.2402 236.596 29.1335 236.419 30.0135C236.33 30.4802 236.292 32.2802 236.305 35.1335L236.343 39.5335L237.319 39.5735L238.295 39.6135L238.333 34.9335C238.371 30.4669 238.383 30.2402 238.612 30.0535C238.992 29.7602 243.276 29.7869 243.555 30.0802C243.859 30.4002 243.847 34.1469 243.542 34.4135C243.39 34.5469 242.782 34.6135 241.261 34.6402L239.182 34.6802L239.22 35.7069L239.258 36.7335H241.349C243.669 36.7202 244.151 36.6135 244.861 35.9602C245.672 35.2135 245.786 34.7602 245.786 32.2269C245.786 29.7735 245.722 29.4535 245.038 28.6402C244.392 27.8535 243.834 27.7335 241.045 27.7469C239.245 27.7469 238.485 27.8002 238.092 27.9469Z" fill="white"/>
<path d="M247.687 32.2667V36.8134L248.676 36.7734L249.652 36.7334L249.69 32.2267L249.715 27.7333H248.701H247.687V32.2667Z" fill="white"/>
<path d="M262.302 28.0667C261.554 28.4667 261.072 29.1201 260.882 30.0001C260.705 30.7734 260.705 33.7601 260.882 34.5334C261.059 35.3601 261.744 36.1867 262.479 36.4934C262.986 36.6934 263.455 36.7334 265.179 36.7334H267.27V35.7334V34.7334L265.23 34.6934C262.568 34.6534 262.707 34.7867 262.707 32.1734C262.707 29.6001 262.555 29.7334 265.483 29.7334C268.005 29.7334 268.221 29.8001 268.221 30.6534C268.221 31.5201 268.044 31.5867 265.749 31.6267L263.721 31.6667V32.6667V33.6667H265.876C267.866 33.6534 268.082 33.6401 268.639 33.3467C269.717 32.8001 270.312 31.5067 270.11 30.1467C269.957 29.0801 269.184 28.1467 268.246 27.8667C267.993 27.8001 266.687 27.7334 265.356 27.7334C263.037 27.7334 262.923 27.7467 262.302 28.0667Z" fill="white"/>
<path d="M273.329 27.9601C272.569 28.2401 271.821 29.1601 271.643 30.0401C271.567 30.4534 271.529 31.9601 271.542 33.7334L271.58 36.7334H272.531H273.481L273.545 33.5201C273.595 31.0934 273.646 30.2534 273.785 30.0934C273.925 29.9067 274.33 29.8667 276.511 29.8401L279.058 29.8001L279.096 28.7601L279.134 27.7334L276.498 27.7467C274.495 27.7467 273.735 27.8001 273.329 27.9601Z" fill="white"/>
<path d="M301.658 30.5868C301.595 32.0001 301.265 31.8801 304.891 31.8401L308.085 31.8001L308.123 30.7601L308.161 29.7334H304.929H301.709L301.658 30.5868Z" fill="white"/>
<path d="M235.481 44.2934C235.303 44.6134 234.834 45.4667 234.441 46.2001C234.036 46.9334 233.554 47.8267 233.351 48.2001C233.161 48.5601 232.819 49.2001 232.578 49.6134C232.35 50.0401 232.046 50.5734 231.919 50.8134C231.171 52.2001 228.598 56.8801 226.545 60.6001C225.252 62.9467 223.782 65.6134 223.287 66.5334C220.232 72.1334 218.838 74.6667 218.534 75.2001C218.344 75.5334 218.04 76.0667 217.862 76.4001C217.431 77.2267 212.779 85.7067 209.965 90.8001C209.458 91.7201 208.761 93.0001 208.406 93.6667C208.051 94.3201 207.621 95.1068 207.468 95.4001C205.212 99.4268 203.146 103.307 203.159 103.467C203.172 103.573 203.641 104.507 204.211 105.533C204.781 106.56 205.466 107.787 205.732 108.267C205.985 108.747 206.53 109.733 206.936 110.467C208.926 114.08 212.906 121.333 214.795 124.8C215.581 126.227 216.658 128.213 217.203 129.2C217.748 130.187 218.597 131.72 219.079 132.6C219.561 133.48 221.386 136.813 223.135 140C224.884 143.187 226.507 146.173 226.76 146.613C227.014 147.067 227.305 147.613 227.419 147.813C227.533 148.027 228.015 148.893 228.484 149.733C228.953 150.573 229.473 151.533 229.65 151.867C230.347 153.173 233.922 159.707 234.251 160.267C234.441 160.6 234.872 161.36 235.202 161.973L235.81 163.067H268.525H301.24L302.001 161.693C302.406 160.947 303.357 159.227 304.105 157.867C304.853 156.507 305.588 155.16 305.74 154.867C305.892 154.573 306.323 153.787 306.69 153.133C308.072 150.653 308.807 149.32 310.43 146.333C311.342 144.64 312.318 142.88 312.572 142.4C312.838 141.92 313.383 140.933 313.789 140.2C314.194 139.467 314.739 138.48 314.993 138C315.259 137.52 315.779 136.56 316.159 135.867C316.539 135.173 317.591 133.253 318.504 131.6C319.404 129.947 320.595 127.787 321.14 126.8C322.002 125.253 322.915 123.587 323.739 122.067C324.727 120.253 325.792 118.293 325.893 118.133C325.957 118.027 326.337 117.333 326.73 116.6C327.123 115.867 327.63 114.933 327.858 114.533C328.086 114.133 328.796 112.84 329.443 111.667C330.089 110.493 330.913 108.987 331.28 108.333C332.776 105.613 333.879 103.507 333.879 103.36C333.879 103.267 333.739 102.96 333.562 102.667C333.397 102.387 333.004 101.68 332.7 101.107C332.396 100.533 331.927 99.6801 331.661 99.2001C331.395 98.7201 330.964 97.9467 330.71 97.4668C330.241 96.5867 328.074 92.6401 326.717 90.2001C326.312 89.4667 325.843 88.6001 325.665 88.2667C325.488 87.9334 325.209 87.4401 325.044 87.1734C324.892 86.8934 324.753 86.6401 324.753 86.6001C324.753 86.5601 324.613 86.3067 324.448 86.0267C324.119 85.4801 322.94 83.3467 322.218 82.0001C321.609 80.8667 320.101 78.1201 318.859 75.8667C318.314 74.8801 317.148 72.7467 316.26 71.1334C314.422 67.7734 311.976 63.3201 310.962 61.4667C310.151 59.9867 307.197 54.6134 306.728 53.7334C306.412 53.1601 306.006 52.4267 303.648 48.1334C303.103 47.1467 302.432 45.9067 302.153 45.4001C301.874 44.8801 301.544 44.3067 301.405 44.0934L301.164 43.7334H268.474H235.785L235.481 44.2934ZM295.638 54.4534C295.79 54.6267 296.145 55.1867 296.411 55.6801C296.677 56.1867 297.121 57.0001 297.387 57.4934C297.666 58.0001 298.097 58.8001 298.363 59.2934C298.642 59.8001 299.364 61.1201 299.985 62.2401C300.606 63.3467 301.341 64.7067 301.633 65.2401C302.14 66.1734 302.799 67.4001 305.233 71.8001C305.879 72.9734 307.045 75.1067 307.831 76.5334C308.604 77.9601 309.606 79.7601 310.024 80.5067C310.455 81.2667 310.81 81.9067 310.81 81.9334C310.81 81.9467 311.266 82.8001 311.837 83.8134C312.394 84.8401 312.99 85.9067 313.142 86.2001C313.307 86.4934 313.725 87.2667 314.093 87.9334C314.46 88.5867 314.803 89.2267 314.866 89.3334C315.018 89.6001 316.311 91.9601 316.603 92.4934C316.729 92.7334 317.173 93.5334 317.578 94.2934C317.984 95.0534 318.504 96.0001 318.732 96.4001C319.53 97.8268 320.912 100.347 321.229 100.933C321.406 101.267 321.749 101.92 322.015 102.373C322.268 102.84 322.471 103.32 322.471 103.453C322.471 103.573 322.154 104.24 321.761 104.933C321.039 106.213 319.023 109.867 318.162 111.467C317.655 112.413 317.16 113.293 316.134 115.133C315.766 115.787 315.31 116.627 315.107 117C314.917 117.36 314.562 118.027 314.321 118.467C313.738 119.48 313.193 120.48 311.444 123.667C311 124.467 310.493 125.4 310.303 125.733C310.113 126.067 309.809 126.6 309.631 126.933C309.466 127.267 308.795 128.493 308.148 129.667C307.502 130.84 306.83 132.067 306.665 132.4C306.488 132.733 306.209 133.24 306.031 133.533C305.867 133.827 305.461 134.547 305.144 135.133C303.877 137.48 302.672 139.653 302.165 140.52C301.937 140.92 301.709 141.36 301.658 141.493C301.595 141.64 301.126 142.493 300.606 143.4C300.087 144.307 299.656 145.08 299.656 145.107C299.656 145.147 299.187 146 298.629 147.013C297.488 149.053 297.476 149.093 296.436 151C296.031 151.733 295.612 152.413 295.498 152.507C295.346 152.627 289.744 152.667 268.487 152.667C253.733 152.667 241.603 152.613 241.54 152.56C241.387 152.453 240.956 151.693 239.157 148.4C238.497 147.187 237.636 145.6 237.23 144.867C236.824 144.133 236.191 142.96 235.81 142.267C235.43 141.573 235.075 140.907 235.012 140.8C234.67 140.213 233.744 138.52 233.465 138C233.288 137.667 232.857 136.893 232.515 136.267C230.626 132.88 227.762 127.64 227.178 126.533C227.001 126.2 226.773 125.787 226.659 125.6C226.545 125.413 226.253 124.893 226.012 124.44C225.772 123.987 225.29 123.12 224.948 122.507C224.605 121.893 224.187 121.133 224.022 120.8C223.845 120.467 223.515 119.867 223.287 119.467C223.059 119.067 222.4 117.867 221.83 116.8C221.246 115.733 220.562 114.493 220.296 114.027C220.017 113.56 219.801 113.147 219.801 113.107C219.801 113.067 219.624 112.72 219.396 112.347C219.18 111.973 218.863 111.4 218.686 111.067C218.521 110.733 218.255 110.253 218.09 110C217.837 109.573 217.013 108.08 215.745 105.733C215.492 105.253 215.124 104.6 214.947 104.267C214.757 103.933 214.605 103.56 214.605 103.413C214.605 103.2 216.278 99.9867 217.102 98.6134C217.279 98.3334 217.545 97.8534 217.697 97.5467C217.862 97.2534 218.318 96.4001 218.724 95.6667C219.649 94.0001 221.208 91.1467 221.83 90.0001C222.387 88.9467 223.059 87.7334 223.224 87.4667C223.287 87.3601 223.503 86.9601 223.705 86.6001C223.896 86.2267 224.504 85.1334 225.049 84.1467C225.594 83.1601 226.139 82.1601 226.266 81.9467C226.393 81.7201 226.709 81.1467 226.963 80.6667C227.229 80.1867 227.685 79.3467 227.977 78.8001C228.281 78.2534 228.953 77.0134 229.473 76.0667C230.449 74.3201 230.55 74.1201 231.792 71.8934C232.173 71.2134 232.477 70.6267 232.477 70.5867C232.477 70.5601 232.616 70.3067 232.768 70.0267C232.933 69.7601 233.212 69.2667 233.389 68.9334C233.567 68.6001 233.998 67.8401 234.327 67.2267C234.67 66.6134 235.037 65.9467 235.139 65.7601C235.24 65.5601 235.519 65.0934 235.747 64.6934C235.962 64.3067 236.153 63.9467 236.153 63.8934C236.153 63.8401 236.292 63.5867 236.444 63.3334C236.609 63.0801 236.888 62.6001 237.065 62.2667C237.914 60.6667 238.979 58.7201 239.081 58.5867C239.144 58.5067 239.372 58.0934 239.588 57.6534C239.803 57.2267 240.057 56.7734 240.133 56.6667C240.221 56.5601 240.361 56.2801 240.462 56.0667C240.69 55.5601 241.21 54.6801 241.464 54.3601C241.628 54.1467 243.073 54.1334 268.5 54.1334H295.359L295.638 54.4534Z" fill="white"/>
<path d="M259.158 65.7335C257.181 66.1735 254.291 67.1868 252.415 68.0802C252.149 68.2002 251.287 68.6268 250.488 69.0135C249.702 69.4135 248.98 69.7335 248.879 69.7335C248.777 69.7335 248.701 69.7868 248.701 69.8535C248.701 69.9202 248.397 70.1068 248.042 70.2668C247.674 70.4268 247.028 70.7335 246.61 70.9468C245.253 71.6135 242.82 72.4668 241.856 72.6135C240.944 72.7468 239.562 72.7602 239.321 72.6535C239.22 72.6002 238.713 72.5202 238.193 72.4802C237.674 72.4268 237.205 72.3602 237.141 72.3202C237.091 72.2802 236.774 72.2002 236.431 72.1335C236.102 72.0668 235.481 71.9335 235.05 71.8268C234.023 71.5735 233.402 71.7468 232.667 72.4668C231.97 73.1468 231.78 73.8268 231.792 75.4002C231.83 77.7468 232.718 80.5335 234.137 82.7468C234.771 83.7468 236.431 85.6002 237.293 86.2802L237.737 86.6402L237.42 87.2668C237.015 88.0935 235.874 89.5868 234.834 90.6535C234.036 91.4802 234.01 91.5335 234.226 91.7735C234.34 91.9202 234.771 92.2002 235.177 92.4135C235.57 92.6268 235.899 92.8668 235.899 92.9602C235.899 93.1868 235.265 94.2668 235.139 94.2668C235.063 94.2668 235.012 94.3335 235.012 94.4135C235.012 94.6002 233.301 97.0002 233.009 97.2268C232.794 97.4002 232.097 98.3335 232.097 98.4535C232.097 98.4802 232.426 98.6402 232.832 98.8135C233.377 99.0268 233.934 99.1202 235.113 99.1735C236.039 99.2135 236.66 99.2935 236.66 99.3735C236.66 99.4535 236.444 99.8135 236.178 100.187C234.112 103.12 232.946 106.694 233.149 109.453C233.263 110.854 233.757 112.747 234.302 113.867C234.746 114.747 234.771 114.907 234.822 116.293C234.91 118.707 235.202 119.92 236.178 122.133C236.926 123.8 237.699 124.947 239.055 126.387C240.551 127.96 241.007 128.347 242.3 129.173C243.568 129.973 244.239 130.307 244.379 130.2C244.442 130.16 244.531 129.88 244.582 129.56C244.772 128.293 246.508 125.4 246.914 125.667C246.99 125.707 247.053 126.027 247.053 126.373C247.053 127.333 247.497 129.747 247.801 130.44C247.953 130.773 248.067 131.093 248.067 131.147C248.067 131.187 248.283 131.6 248.536 132.053C249.069 132.973 249.804 133.867 250.019 133.867C250.095 133.867 250.298 133.307 250.476 132.64C250.805 131.28 251.262 130.333 251.971 129.56C252.478 129.013 252.745 128.947 253.049 129.293C253.277 129.56 253.378 129.987 253.835 132.6C254.506 136.333 254.899 137.4 256.18 138.84C257.599 140.44 259.374 141.587 261.769 142.453C263.81 143.187 264.887 143.333 268.601 143.333C272.315 143.333 273.304 143.2 275.383 142.467C277.068 141.867 277.943 141.413 279.375 140.4C282.037 138.52 282.81 136.8 283.698 130.773C284.065 128.267 285.295 128.6 286.385 131.507C286.575 132 286.727 132.507 286.727 132.64C286.727 132.76 286.828 133.107 286.955 133.387L287.183 133.907L287.64 133.48C288.185 132.987 289.021 131.64 289.275 130.867C289.363 130.573 289.49 130.267 289.541 130.187C289.604 130.093 289.706 129.68 289.782 129.253C289.858 128.813 289.972 128.2 290.048 127.867C290.124 127.533 290.2 126.96 290.213 126.6C290.238 126.227 290.263 125.853 290.263 125.76C290.289 125.467 290.644 125.587 290.872 125.96C290.999 126.173 291.138 126.373 291.201 126.413C291.493 126.627 292.241 128.24 292.558 129.307C292.824 130.173 292.874 130.267 293.115 130.187C293.432 130.08 295.384 128.933 295.473 128.8C295.511 128.747 295.777 128.547 296.081 128.347C296.816 127.867 297.045 127.667 297.995 126.64C299.073 125.48 299.402 125.08 299.402 124.933C299.402 124.88 299.44 124.8 299.504 124.773C299.782 124.64 301.113 122.187 301.57 120.933C302.102 119.507 302.318 118.307 302.406 116.4C302.457 115.4 302.546 114.627 302.647 114.467C303.053 113.813 303.724 111.907 303.902 110.92C304.384 108.214 303.94 105.613 302.495 102.614C301.887 101.36 301.62 100.92 300.961 100.08C300.733 99.7868 300.543 99.4802 300.543 99.3868C300.543 99.2802 301.012 99.2135 302.102 99.1735C303.294 99.1202 303.813 99.0402 304.384 98.8135C304.777 98.6535 305.106 98.4668 305.106 98.4002C305.106 98.3335 304.624 97.6935 304.029 96.9735C302.951 95.6668 301.304 93.2535 301.304 92.9735C301.304 92.8402 301.595 92.6535 302.723 92.0402C302.913 91.9335 303.103 91.8002 303.141 91.7335C303.179 91.6668 302.698 91.0268 302.064 90.3068C300.936 89.0402 299.656 87.1868 299.656 86.8135C299.656 86.7202 300.328 85.9468 301.164 85.0802C303.179 83.0002 304.231 81.2002 304.903 78.6668C305.093 77.9735 305.296 77.2135 305.372 76.9868C305.436 76.7602 305.486 76.0002 305.486 75.2802C305.486 74.1868 305.436 73.8935 305.182 73.3602C304.51 71.9735 303.534 71.4535 302.241 71.8135C300.087 72.4002 296.221 72.8802 295.6 72.6268C295.498 72.5868 295.207 72.5202 294.966 72.4935C294.37 72.4135 294.167 72.3468 292.989 71.9335C291.975 71.5602 291.493 71.3468 290.061 70.6535C289.63 70.4402 289.148 70.2002 288.983 70.1335C288.818 70.0668 288.603 69.9468 288.501 69.8802C288.197 69.6935 285.586 68.4002 285.497 68.4002C285.459 68.4002 285.13 68.2535 284.775 68.0802C281.619 66.5202 278.944 65.7735 276.181 65.6668C273.976 65.5868 271.567 66.0268 269.539 66.8802L268.69 67.2402L267.98 67.0002C267.587 66.8668 267.042 66.6535 266.776 66.5068C265.838 66.0002 264.127 65.7068 261.82 65.6668C260.641 65.6402 259.437 65.6668 259.158 65.7335ZM277.601 69.6668C277.981 69.7068 278.412 69.8002 278.551 69.8535C278.691 69.9202 279.578 70.2268 280.516 70.5468C281.454 70.8535 282.493 71.2535 282.81 71.4268C283.14 71.6002 283.457 71.7335 283.507 71.7335C283.609 71.7335 285.966 72.9068 286.537 73.2268C286.676 73.3068 287.183 73.6002 287.665 73.8535C288.641 74.3868 288.831 74.5068 290.061 75.2668C290.542 75.5602 291.049 75.8802 291.201 75.9602C291.721 76.2802 294.864 76.0935 297.184 75.6135C298.743 75.2935 299.364 75.1335 299.744 74.9735C300.289 74.7468 300.404 74.9735 299.947 75.4002C299.402 75.9068 299.415 75.9068 298.16 76.6535C297.032 77.3335 294.877 78.2402 293.508 78.6002C293.166 78.6935 292.786 78.8002 292.684 78.8402C292.583 78.8802 292.165 78.9868 291.772 79.0668C291.366 79.1468 291.037 79.2935 291.037 79.3735C291.037 79.7868 294.826 81.6002 295.701 81.6002C296.081 81.6002 296.208 81.9602 295.904 82.2135C295.232 82.7468 292.608 83.8002 292.025 83.7602C291.645 83.7335 291.772 83.9468 292.507 84.5335C293.965 85.6935 295.714 87.6668 296.829 89.4135C297.653 90.7068 298.718 93.0668 298.566 93.2402C298.502 93.3068 297.983 93.1202 297.311 92.8002C296.385 92.3602 292.938 91.9335 292.938 92.2535C292.938 92.3202 293.217 92.6135 293.572 92.8935C293.914 93.1735 294.193 93.4668 294.205 93.5468C294.205 93.6268 294.446 93.9335 294.75 94.2268C295.333 94.8135 295.714 95.3202 296.918 97.2002C297.957 98.8402 298.87 100.947 299.073 102.2C299.123 102.493 299.187 102.827 299.212 102.934C299.25 103.04 299.225 103.214 299.161 103.32C299.073 103.467 298.883 103.374 298.287 102.88C297.869 102.547 297.488 102.267 297.438 102.267C297.4 102.267 297.095 102.147 296.778 101.987C296.297 101.76 294.991 101.333 294.763 101.333C294.725 101.333 295.029 101.774 295.448 102.293C297.539 104.973 298.743 109.214 298.401 112.733C298.337 113.373 298.223 113.96 298.147 114.04C297.983 114.213 297.995 114.253 297.577 113.067C296.943 111.293 296.157 109.933 294.776 108.2C293.914 107.12 292.051 105.76 290.656 105.214C290.276 105.054 289.934 104.934 289.921 104.934C289.896 104.934 290.149 105.28 290.491 105.694C293.065 108.854 294.497 113.293 294.294 117.48C294.218 119.027 293.812 121.28 293.521 121.8C293.432 121.947 293.293 122.32 293.217 122.613C293.128 122.92 292.989 123.24 292.887 123.32C292.684 123.493 292.646 123.4 292.494 122.467C292.165 120.293 290.745 117.76 289.338 116.84C289.059 116.653 288.78 116.44 288.742 116.373C288.704 116.307 288.501 116.24 288.299 116.227C287.931 116.2 287.931 116.2 287.855 117.133C287.766 118.12 287.665 118.64 287.297 119.933C287.018 120.933 286.258 122.493 286.004 122.6C285.865 122.653 285.599 122.44 285.181 121.947C283.862 120.387 282.582 120.307 281.72 121.733C281.365 122.32 280.148 126.067 279.692 128C279.578 128.48 279.439 129.04 279.375 129.267C279.223 129.787 278.843 131.467 278.488 133.133C278.133 134.84 278.032 135.133 277.525 135.867C276.802 136.92 275.915 137.547 273.887 138.4C273.342 138.627 272.771 138.8 272.619 138.787C272.467 138.773 272.112 138.827 271.833 138.92C271.073 139.173 267.27 139.267 266.092 139.08C264.533 138.813 262.53 138.147 261.567 137.547C260.679 137.013 259.412 135.68 259.184 135.04C259.133 134.88 258.879 133.867 258.651 132.8C257.625 128.213 256.813 125.04 256.344 123.733C256.306 123.627 256.18 123.267 256.065 122.933C255.761 122.053 255.039 120.96 254.633 120.787C253.86 120.453 252.783 121 251.807 122.227C251.616 122.467 251.401 122.667 251.338 122.667C251.147 122.667 250.894 122.307 250.615 121.667C250.488 121.373 250.26 120.867 250.121 120.533C249.817 119.827 249.335 117.573 249.335 116.813C249.335 116.52 249.284 116.253 249.221 116.213C249.107 116.133 248.334 116.4 248.118 116.6C248.029 116.667 247.814 116.853 247.611 117C246.876 117.56 246.065 118.667 245.507 119.907C245.025 120.947 244.911 121.32 244.734 122.387C244.645 122.867 244.518 123.267 244.455 123.293C244.265 123.36 243.542 121.507 243.276 120.267C242.909 118.573 242.845 117.92 242.896 116.174C242.959 114.373 243.327 112.347 243.821 111.133C243.91 110.907 244.024 110.587 244.075 110.4C244.315 109.507 245.545 107.347 246.749 105.694C247.091 105.227 247.155 105.067 247.003 105.067C246.825 105.067 245.291 105.854 244.582 106.307C244.062 106.64 242.909 107.694 242.363 108.333C242.047 108.694 241.768 109.027 241.73 109.067C241.628 109.174 240.931 110.293 240.741 110.667C240.209 111.694 239.702 112.787 239.702 112.92C239.702 113.014 239.588 113.32 239.435 113.627C239.043 114.453 238.903 114.12 238.84 112.227C238.713 108.133 239.828 104.534 242.021 102.027C242.3 101.72 242.49 101.427 242.44 101.374C242.351 101.267 239.841 102.174 239.512 102.44C239.448 102.493 239.093 102.774 238.726 103.067C238.371 103.36 238.041 103.547 238.003 103.48C237.864 103.267 238.32 101.467 238.827 100.16C239.245 99.0802 240.475 96.7068 240.716 96.5335C240.766 96.4935 240.906 96.2668 241.02 96.0268C241.134 95.7868 241.324 95.5468 241.426 95.5068C241.514 95.4668 241.603 95.3735 241.603 95.3068C241.603 95.1468 241.894 94.7868 243.162 93.4402C243.694 92.8535 244.138 92.3335 244.138 92.2535C244.138 91.8668 240.957 92.3868 239.359 93.0402C238.675 93.3202 238.459 93.2535 238.675 92.8402C238.738 92.7068 239.055 92.0535 239.359 91.3868C240.526 88.8668 242.287 86.6402 244.899 84.3735C245.291 84.0268 245.406 83.8668 245.279 83.8268C245.177 83.7868 244.632 83.6268 244.075 83.4668C243.517 83.2935 242.947 83.0802 242.807 83.0002C242.668 82.9068 242.402 82.8002 242.224 82.7468C242.047 82.7068 241.742 82.5202 241.527 82.3335C241.324 82.1468 241.121 82.0002 241.071 82.0002C240.817 82.0002 241.007 81.7602 241.324 81.6935C242.528 81.4402 243.707 81.0268 244.011 80.7468C244.113 80.6402 244.353 80.5335 244.531 80.4802C244.911 80.3868 246.065 79.5868 246.128 79.3735C246.166 79.2802 245.684 79.1068 244.937 78.9335C241.971 78.2268 239.03 76.9202 237.623 75.6802C236.989 75.1068 236.989 74.7868 237.636 75.0268C237.826 75.1068 238.333 75.2402 238.751 75.3335C239.169 75.4268 239.689 75.5468 239.892 75.6135C240.576 75.8135 244.442 76.1602 245.152 76.0935C245.9 76.0135 246.736 75.6002 249.221 74.0402C249.601 73.8002 249.994 73.6002 250.108 73.6002C250.222 73.6002 250.387 73.5202 250.463 73.4135C250.628 73.2135 251.87 72.5602 253.264 71.9468C253.721 71.7468 254.38 71.4402 254.722 71.2668C255.077 71.1068 255.584 70.8935 255.863 70.8002C256.142 70.7202 256.458 70.6135 256.56 70.5735C256.661 70.5202 256.775 70.4802 256.813 70.4802C256.851 70.4668 257.054 70.4002 257.257 70.3202C259.133 69.5868 262.416 69.2402 263.557 69.6402C264.089 69.8402 265.42 70.4268 265.813 70.6535C267.6 71.6668 268.5 72.1335 268.69 72.1335C268.817 72.1202 269.21 71.9468 269.552 71.7335C271.732 70.3735 273.228 69.7068 274.495 69.5202C274.774 69.4668 275.015 69.4268 275.028 69.4135C275.053 69.4002 276.637 69.5468 277.601 69.6668Z" fill="white"/>
<path d="M260.844 73.9468C260.806 73.9868 260.489 74.0402 260.16 74.0535C259.222 74.1202 256.256 75.0802 255.723 75.4935C255.647 75.5468 255.305 75.7602 254.963 75.9468C254.367 76.2668 253.404 76.9202 253.264 77.0668C253.226 77.1068 253.011 77.2802 252.795 77.4535C252.567 77.6135 252.377 77.8002 252.377 77.8535C252.377 77.9068 252.833 77.8802 253.404 77.7868C253.961 77.6935 255.242 77.5468 256.256 77.4535C259.234 77.1868 260.844 77.5068 263.126 78.8002C264.989 79.8535 265.255 80.0402 267.372 81.7068L268.614 82.6802L269.045 82.4002C269.273 82.2535 269.489 82.0802 269.514 82.0135C269.577 81.8535 272.1 79.9735 272.974 79.4402C276.612 77.2268 278.209 77.0002 284.243 77.8268C284.673 77.8802 284.838 77.8668 284.775 77.7602C284.661 77.5602 282.379 75.9868 281.657 75.6002C281.34 75.4402 280.985 75.2535 280.871 75.1868C279.654 74.5468 277.677 74.0268 276.384 74.0135C274.685 73.9868 273.354 74.4135 270.465 75.8935L268.601 76.8535L267.549 76.2802C266.218 75.5468 264 74.5468 263.493 74.4402C263.265 74.4002 263.024 74.3068 262.948 74.2535C262.872 74.1868 262.416 74.0802 261.934 74.0002C260.882 73.8402 260.933 73.8535 260.844 73.9468Z" fill="white"/>
<path d="M250.666 80.6268C248.917 81.0135 247.598 83.0535 247.053 86.2002C246.99 86.5602 246.901 87.0002 246.85 87.1601C246.736 87.6001 246.901 87.5468 247.687 86.8668C248.663 86.0135 251.097 84.3335 251.578 84.1602C252.453 83.8535 255.089 83.6935 258.017 83.7735C259.627 83.8268 261.148 83.9068 261.414 83.9468C261.681 84.0002 261.883 83.9868 261.883 83.9068C261.883 83.8002 259.272 82.4002 259.057 82.4002C259.019 82.4002 258.676 82.2535 258.309 82.0802C257.941 81.9068 257.333 81.6668 256.965 81.5468C256.598 81.4402 256.23 81.3068 256.141 81.2402C256.065 81.1868 255.875 81.1202 255.736 81.0935C255.596 81.0802 254.937 80.9468 254.253 80.8002C253.137 80.5602 251.337 80.4668 250.666 80.6268Z" fill="white"/>
<path d="M283.875 80.6267C283.153 80.72 281.086 81.2267 280.706 81.4C280.503 81.4933 280.098 81.64 279.819 81.7333C279.54 81.8267 279.02 82.04 278.665 82.2133C278.311 82.3867 277.981 82.5333 277.943 82.5333C277.753 82.5333 275.446 83.7467 275.446 83.84C275.446 83.9067 275.978 83.92 276.625 83.88C278.539 83.7467 284.065 83.8133 284.927 83.9733C285.371 84.0533 285.992 84.2933 286.309 84.4933C287.855 85.4933 288.311 85.8267 289.554 86.8533C290.251 87.4267 290.339 87.4667 290.377 87.2267C290.453 86.7333 289.756 84.3467 289.173 83.1067C288.768 82.2267 288.438 81.72 288.032 81.3333C287.716 81.0533 287.424 80.8133 287.373 80.8267C287.335 80.84 286.993 80.7733 286.626 80.6933C285.992 80.5467 284.712 80.5067 283.875 80.6267Z" fill="white"/>
<path d="M263.911 85.6266C262.809 86.1333 261.757 86.7333 261.757 86.8533C261.757 86.9333 262.086 87.1066 262.492 87.2533C263.214 87.4933 264.799 88.4 265.204 88.7867C265.318 88.9067 265.585 89.1467 265.8 89.3333C266.028 89.52 266.713 90.1867 267.334 90.8267C267.955 91.48 268.525 92 268.614 92C268.69 92 269.007 91.6933 269.324 91.3333C270.832 89.56 273.469 87.6 274.914 87.16C275.218 87.08 275.459 86.9333 275.446 86.8666C275.421 86.7466 274.584 86.2533 273.431 85.68C272.505 85.2266 271.441 85.44 269.514 86.4666L268.601 86.96L267.182 86.2133C265.914 85.5466 265.699 85.4666 265.001 85.48C264.571 85.48 264.089 85.5466 263.911 85.6266Z" fill="white"/>
<path d="M253.391 89.7869C252.706 89.9869 251.921 90.3469 251.819 90.5202C251.781 90.5869 251.984 90.6669 252.288 90.7069C252.58 90.7469 253.023 90.8269 253.264 90.8936L253.708 91.0136L253.784 92.0002C253.86 93.1069 253.923 93.3336 254.367 93.9736C254.658 94.3736 255.254 94.8002 255.533 94.8002C255.609 94.8002 255.546 94.5469 255.419 94.2269C255.14 93.6002 255.077 92.2136 255.305 92.0536C255.609 91.8536 256.408 91.9869 257.117 92.3469C257.967 92.7869 258.258 93.1336 257.954 93.3336C257.612 93.5602 256.864 93.4936 256.623 93.2002C256.319 92.8536 256.205 92.8669 256.103 93.2536C256.002 93.6802 256.357 94.3469 256.851 94.6669C257.333 94.9869 257.929 95.0002 258.55 94.7336C259.171 94.4536 259.437 94.4802 259.538 94.8269C259.716 95.3736 258.537 95.9602 257.485 95.8269C257.181 95.8002 256.864 95.8402 256.75 95.9202C256.522 96.0936 256.23 97.5869 256.357 97.9335C256.433 98.1602 256.458 98.1602 256.724 97.8935C257.003 97.6269 257.688 97.2802 258.398 97.0536C258.651 96.9736 258.993 96.9869 259.412 97.0802C259.919 97.2136 260.185 97.3869 260.781 98.0269C261.173 98.4535 261.503 98.8935 261.503 98.9869C261.503 99.0802 261.604 99.3069 261.731 99.4802C261.871 99.6535 261.997 99.9202 262.048 100.067C262.251 100.787 262.504 101.4 262.618 101.44C262.796 101.494 262.935 99.7602 262.834 98.7735C262.783 98.3069 262.644 97.5469 262.504 97.0802C262.378 96.6136 262.264 96.2136 262.264 96.1869C262.264 96.1602 262.53 96.1336 262.872 96.1336C263.848 96.1336 263.949 95.9469 263.29 95.3336C262.72 94.7869 262.416 94.5736 261.617 94.2002C261.351 94.0802 260.743 93.4802 260.134 92.7469C258.955 91.3202 257.688 90.2536 256.712 89.8669C255.951 89.5602 254.342 89.5202 253.391 89.7869Z" fill="white"/>
<path d="M280.503 89.8535C280.186 89.9868 279.667 90.2802 279.363 90.4935C278.691 90.9868 276.726 93.0535 276.498 93.5069C276.409 93.6935 275.953 94.0402 275.421 94.3202C274.381 94.8669 273.329 95.7469 273.456 95.9602C273.507 96.0402 273.836 96.1069 274.191 96.1202C274.559 96.1202 274.876 96.1469 274.901 96.1735C274.914 96.2002 274.825 96.6935 274.685 97.2669C274.432 98.2935 274.331 100.76 274.508 101.254C274.635 101.614 274.774 101.494 274.926 100.88C275.129 100.014 276.143 98.2002 276.688 97.7602C277.867 96.7735 279.134 96.7602 280.275 97.7335C280.541 97.9469 280.782 98.1335 280.82 98.1335C281.01 98.1335 280.808 96.1202 280.592 95.9069C280.554 95.8669 280.072 95.8135 279.54 95.8135C278.412 95.7869 277.727 95.4802 277.727 94.9869C277.727 94.4802 278.006 94.3735 278.551 94.6669C278.83 94.8135 279.236 94.9335 279.464 94.9335C280.351 94.9335 281.15 94.2135 281.15 93.4135C281.15 93.0269 280.985 92.9869 280.516 93.2669C280.098 93.5202 279.451 93.5202 279.249 93.2669C279.058 93.0135 279.02 93.0669 279.92 92.4935C280.757 91.9602 281.353 91.8002 281.834 92.0002C282.126 92.1069 282.164 92.2002 282.164 92.8002C282.164 93.4669 281.948 94.1069 281.555 94.5735C281.277 94.9069 281.416 94.9735 281.936 94.7469C282.417 94.5335 283.127 93.7602 283.317 93.2402C283.381 93.0669 283.431 92.4935 283.431 91.9868C283.431 90.9202 283.457 90.8935 284.737 90.7335C285.13 90.6802 285.459 90.6002 285.459 90.5468C285.459 90.4002 284.597 89.9868 283.875 89.7868C282.962 89.5202 281.213 89.5602 280.503 89.8535Z" fill="white"/>
<path d="M247.155 90.2933C246.99 91.4267 247.522 94.08 248.219 95.56C248.967 97.1733 250.171 98.4533 251.68 99.2133C252.668 99.7067 253.898 100.093 253.898 99.8933C253.898 99.8667 253.556 99.4533 253.15 98.9867C252.377 98.12 251.578 96.84 251.464 96.2667C251.426 96.08 251.3 95.5733 251.185 95.1333C251.071 94.7067 250.983 94.1333 250.983 93.88C250.983 93.1733 250.463 92.3867 249.563 91.7333C249.119 91.4133 248.41 90.8533 247.991 90.5067L247.205 89.8667L247.155 90.2933Z" fill="white"/>
<path d="M288.755 90.88C288.159 91.3734 287.551 91.8267 287.399 91.8934C286.841 92.1734 286.334 93.1467 286.207 94.1734C285.903 96.4534 285.244 97.8534 283.723 99.4C283.495 99.6267 283.305 99.8667 283.305 99.92C283.305 100.227 285.497 99.36 286.486 98.6534C287.754 97.7467 288.628 96.5734 289.427 94.6667C289.832 93.6934 290.238 90 289.934 90C289.87 90 289.351 90.4 288.755 90.88Z" fill="white"/>
<path d="M247.307 98.5868C247.307 99.5868 248.207 103 248.625 103.6C248.701 103.707 248.841 103.933 248.929 104.093C249.005 104.267 249.157 104.52 249.233 104.667C249.36 104.88 249.36 105.013 249.221 105.36C248.663 106.813 248.612 109.04 249.094 110.733C249.664 112.747 250.729 114.68 252.047 116.147C252.77 116.947 254.316 118.213 254.912 118.493C256.458 119.213 256.446 119.2 256.877 120.333C257.333 121.52 257.586 122.373 258.778 126.573C260.147 131.4 260.451 132.2 261.275 133.053C262.504 134.36 265.078 135.067 268.576 135.067C272.962 135.067 275.725 134.027 276.701 132.027C276.942 131.547 277.803 128.907 278.108 127.733C278.196 127.4 278.336 126.893 278.437 126.6C278.526 126.307 278.729 125.587 278.881 125C279.172 123.813 279.996 121.2 280.136 121C280.186 120.92 280.326 120.533 280.453 120.133C280.731 119.2 280.782 119.147 281.492 118.867C283.419 118.093 285.611 116.04 286.79 113.933C287.969 111.813 288.387 110.427 288.451 108.4C288.489 107.04 288.451 106.747 288.172 105.853L287.842 104.84L288.223 104.187C289.135 102.613 289.769 100.507 289.769 99.0401C289.769 98.1601 289.655 98.1334 289.262 98.9334C288.894 99.6801 287.475 101.387 286.499 102.253C285.117 103.467 282.696 105.067 282.227 105.067C282.126 105.067 282.037 105.12 282.037 105.2C282.037 105.267 282.278 105.333 282.582 105.333C283.241 105.333 284.281 105.653 284.597 105.96C284.724 106.08 284.826 106.32 284.826 106.493C284.826 106.907 283.9 108.04 282.81 108.96C282.354 109.347 281.948 109.693 281.91 109.747C281.809 109.867 279.401 111.467 279.299 111.467C279.261 111.467 278.817 111.68 278.323 111.92C277.816 112.173 277.17 112.493 276.878 112.613C276.27 112.88 276.156 113.12 276.688 113.013C276.878 112.973 277.347 112.907 277.727 112.867C279.679 112.627 282.734 111.453 284.014 110.44C284.23 110.267 284.496 110.133 284.61 110.133C285.066 110.133 284.788 110.693 283.85 111.693C283 112.587 282.658 112.84 281.403 113.493C280.605 113.907 279.388 114.44 278.716 114.68C278.032 114.907 277.512 115.16 277.55 115.213C277.639 115.373 279.198 115.36 279.755 115.213C279.996 115.147 280.516 115.053 280.896 115.013C281.277 114.987 281.784 114.907 282.012 114.867C282.227 114.813 282.417 114.813 282.417 114.853C282.417 114.987 282.05 115.36 281.771 115.533C281.074 115.96 280.262 116.373 280.262 116.307C280.262 116.267 280.161 116.32 280.047 116.44C279.92 116.547 279.54 116.72 279.185 116.813C278.843 116.893 278.488 117.027 278.412 117.093C278.323 117.16 278.196 117.613 278.108 118.107C277.791 120 276.663 123.147 276.244 123.293C276.13 123.333 275.978 122.627 275.89 121.6C275.775 120.187 275.395 118.173 275.18 117.72C275.104 117.573 274.825 117.467 274.343 117.413C272.962 117.253 272.784 117.227 271.948 116.933C270.946 116.573 270.186 115.907 269.983 115.213C269.919 114.947 269.869 114.28 269.894 113.733L269.932 112.733L271.326 111.64C272.1 111.04 272.784 110.533 272.86 110.533C272.936 110.533 273.19 110.4 273.431 110.227C274.052 109.787 275.002 109.533 275.978 109.56L276.827 109.573L277.03 108.96C277.36 108 277.436 105.227 277.17 103.987C276.916 102.813 276.384 101.44 276.295 101.733C276.257 101.84 276.194 102.44 276.156 103.067C276.067 104.333 275.75 105.653 275.23 106.827C274.875 107.653 274.774 107.72 274.432 107.4C274.14 107.133 273.025 106.947 272.429 107.067C272.176 107.12 271.631 107.28 271.238 107.44C270.845 107.587 270.503 107.68 270.465 107.653C270.439 107.627 270.072 107.787 269.641 108C269.21 108.227 268.766 108.4 268.665 108.4C268.551 108.4 268.12 108.24 267.689 108.053C266.852 107.68 265.432 107.2 264.925 107.107C264.241 106.987 263.366 107.08 262.897 107.333L262.403 107.6L262.213 107.307C261.554 106.2 260.907 103.467 260.983 102.027C260.983 101.867 260.945 101.733 260.882 101.733C260.755 101.733 260.236 103.013 260.236 103.333C260.236 103.467 260.147 103.8 260.033 104.08C259.716 104.88 259.754 107.4 260.096 108.587C260.236 109.093 260.4 109.56 260.464 109.627C260.527 109.693 260.743 109.68 260.945 109.6C261.161 109.507 261.579 109.48 261.947 109.533C262.657 109.627 264.621 110.573 265.318 111.16C265.572 111.36 265.939 111.653 266.142 111.8C267.27 112.627 267.613 113.453 267.334 114.733C266.979 116.387 266.041 117 263.227 117.387L262.099 117.533L261.921 118.067C261.693 118.733 261.376 120.787 261.262 122.187C261.224 122.827 261.123 123.267 261.034 123.293C260.654 123.427 259.703 120.907 259.285 118.667C259.184 118.12 259.069 117.547 259.031 117.4C258.993 117.227 258.791 117.067 258.436 116.96C258.131 116.853 257.726 116.693 257.51 116.6C257.308 116.507 256.864 116.307 256.534 116.16C255.799 115.827 254.785 115.107 254.785 114.907C254.785 114.827 254.937 114.8 255.203 114.853C255.419 114.907 256.065 115 256.623 115.08C259.158 115.427 260.426 115.347 259.031 114.933C258.715 114.84 258.423 114.707 258.385 114.653C258.347 114.587 258.233 114.533 258.119 114.533C257.903 114.533 255.558 113.4 254.684 112.88C253.72 112.293 252.377 110.733 252.377 110.2C252.377 110 252.706 109.92 252.783 110.093C252.846 110.267 253.885 110.933 254.075 110.933C254.177 110.933 254.304 110.987 254.342 111.067C254.582 111.467 257.967 112.667 259.412 112.853C259.767 112.907 260.261 112.973 260.54 113.013C261.275 113.133 261.072 112.813 260.223 112.533C259.323 112.24 258.715 111.96 258.715 111.84C258.715 111.773 258.626 111.733 258.512 111.733C258.347 111.733 256.243 110.48 256.053 110.267C256.015 110.227 255.825 110.08 255.609 109.947C255.001 109.533 253.213 107.853 252.77 107.24C252.516 106.893 252.377 106.56 252.402 106.387C252.453 105.96 253.467 105.453 254.443 105.333L255.229 105.24L254.519 104.893C252.554 103.947 250.146 102 249.081 100.533C248.904 100.293 248.612 99.9068 248.422 99.6801C248.232 99.4534 247.979 99.0401 247.852 98.7734C247.598 98.2001 247.307 98.1068 247.307 98.5868ZM265.369 120.053C266.484 120.413 267.866 121.693 268.36 122.827C268.563 123.307 268.652 123.293 268.893 122.76C269.184 122.133 269.881 121.267 270.528 120.72C270.883 120.427 272.404 119.867 272.86 119.867C273.469 119.867 274.318 120.133 274.394 120.36C274.432 120.453 274.343 120.787 274.191 121.107C274.039 121.427 273.925 121.747 273.925 121.827C273.925 121.893 273.823 122.307 273.684 122.747C273.557 123.173 273.24 124.24 272.974 125.093C272.632 126.267 272.404 126.787 272.087 127.16C271.846 127.44 271.643 127.707 271.643 127.76C271.643 127.907 270.832 128.347 270.122 128.573C269.425 128.787 268.018 128.84 267.777 128.653C267.714 128.6 267.448 128.56 267.207 128.56C266.662 128.573 265.585 127.947 265.407 127.52C265.331 127.347 265.217 127.2 265.166 127.2C265.027 127.2 264.342 125.653 264.228 125.12C264.178 124.907 263.848 123.773 263.493 122.6C263.126 121.427 262.834 120.413 262.834 120.333C262.834 120.173 263.721 119.893 264.304 119.88C264.558 119.867 265.027 119.96 265.369 120.053ZM275.699 128.933C275.699 130.347 275.497 131.213 275.053 131.613C274.914 131.733 274.381 131.92 273.887 132C273.38 132.093 272.924 132.213 272.847 132.267C272.784 132.32 272.214 132.467 271.58 132.613C270.705 132.8 269.957 132.867 268.411 132.853C266.548 132.84 266.269 132.813 264.989 132.427C264.228 132.213 263.328 131.987 262.999 131.933C262.251 131.827 261.706 131.307 261.592 130.573C261.44 129.627 261.503 127.893 261.706 127.24C262.048 126.16 262.238 126.16 262.517 127.213C262.669 127.773 263.848 130.24 264.127 130.56C264.368 130.84 264.583 130.707 264.875 130.107C265.141 129.56 265.483 129.627 265.939 130.333C266.307 130.893 266.827 131.16 266.827 130.773C266.827 130.533 267.22 130.133 267.473 130.133C267.6 130.133 267.853 130.373 268.056 130.667C268.246 130.96 268.487 131.2 268.589 131.2C268.69 131.2 268.956 130.96 269.197 130.667C269.438 130.373 269.717 130.133 269.805 130.133C269.907 130.133 270.097 130.307 270.249 130.533C270.401 130.747 270.604 130.933 270.693 130.933C270.794 130.933 271.048 130.667 271.276 130.333C271.504 130 271.783 129.733 271.922 129.733C272.049 129.733 272.29 129.96 272.467 130.267C272.645 130.56 272.809 130.8 272.835 130.8C272.924 130.8 274.052 128.947 274.052 128.813C274.052 128.733 274.166 128.48 274.305 128.24C274.445 128 274.559 127.733 274.559 127.64C274.559 127.56 274.673 127.2 274.825 126.84L275.091 126.2L275.395 126.92C275.649 127.52 275.699 127.853 275.699 128.933Z" fill="white"/>
</g>
<defs>
<clipPath id="clip0">
<rect width="1920" height="4888" fill="white" transform="translate(-314 -2108)"/>
</clipPath>
</defs>
</svg>
